<svg width="500" height="500" viewBox="0 0 500 500" fill="none" xmlns="http://www.w3.org/2000/svg">
<path d="M412.935 244.767C410.769 243.671 411.039 241.715 412.6 240.555C431.035 226.916 443.477 209.414 443.477 182.4C443.477 150.413 420.567 105.519 330.986 105.519H100.076L47.778 196.487H86.18C90.47 196.487 93.933 199.945 93.933 204.214V295.025C93.933 299.294 90.47 302.759 86.18 302.759H44.999L97.852 393.4L341.931 393.372C420.702 393.372 454.757 352.342 454.757 308.302C454.757 279.132 434.013 255.497 412.935 244.768" fill="#F5F3EE"/>
<path d="M238.235 232.364H268.924L268.923 232.365H276.166C285.728 232.365 292.839 229.934 297.548 225.285C302.262 220.632 304.086 214.234 304.086 207.331C304.086 200.751 302.238 194.534 297.524 189.983C292.823 185.445 285.731 183.008 276.166 183.008H245.204C239.722 183.008 235.287 187.416 235.235 192.881L235.235 192.895V192.909V229.364V232.364H238.235ZM238.236 266.881H235.236V269.881V306.28C235.236 311.787 239.709 316.231 245.205 316.231H276.167H276.168C285.73 316.231 292.841 313.798 297.55 309.151C302.263 304.499 304.088 298.105 304.088 291.211C304.088 284.468 302.25 278.232 297.513 273.712C292.8 269.214 285.702 266.881 276.168 266.881H238.236ZM380.526 247.698C380.791 248.052 381.095 248.365 381.432 248.636V249.191L383.735 249.742C410.997 256.258 430.409 279.168 430.409 305.42C430.409 335.382 405.071 377.046 341.933 377.046L116.772 377.074L81.8284 316.203H102.578C109.417 316.203 114.956 310.682 114.956 303.847V195.406C114.956 188.57 109.417 183.05 102.578 183.05H81.5035L116.205 121.845H331.614C359.825 121.845 382.27 128.583 397.536 139.908C412.723 151.174 420.962 167.074 420.796 185.981L420.796 185.994V186.007C420.796 200.338 417.278 211.309 410.953 219.799C404.609 228.314 395.242 234.604 383.083 239.198C380.756 240.073 379.524 242.325 379.483 244.395C379.461 245.489 379.76 246.674 380.526 247.698Z" fill="#F5F3EE" stroke="#403737" stroke-width="6"/>
<path d="M188.332 361.092C148.07 285.527 137.488 198.65 152.488 118.845H114.457L76.354 186.05H102.578C107.766 186.05 111.956 190.233 111.956 195.406V278.612C131.495 310.272 159.793 340.595 188.332 361.092ZM378.218 126.323C332.134 194.56 307.165 281.529 318.374 360.744C332.106 294.108 367.928 232.566 423.724 187.986C423.738 187.324 423.795 186.684 423.795 186.008C424.03 158.574 407.37 137.045 378.217 126.323H378.218ZM300.965 118.846C293.739 137.743 286.15 160.545 279.765 186.143C278.625 186.058 277.421 186.008 276.166 186.008H245.204C241.37 186.008 238.27 189.089 238.235 192.909V229.364H270.801C268.649 242.434 266.91 255.973 265.756 269.882H238.235V306.281C238.235 310.123 241.356 313.232 245.204 313.232H264.216C264.501 335.053 266.446 357.442 270.537 380.046H242.233C219.9 326.202 189.166 235.106 219.736 118.846H300.965V118.846Z" fill="#403737"/>
</svg>
