<svg width="500" height="500" viewBox="0 0 500 500" fill="none" xmlns="http://www.w3.org/2000/svg">
<path d="M246.825 110.496C242.337 110.496 237.684 110.596 232.995 110.791L223.635 111.187L236.111 126.667C234.018 126.608 231.895 126.584 229.755 126.584C211.201 126.584 174.122 128.834 134.234 143.912C116.23 150.716 99.768 159.38 85.318 169.651C69.034 181.233 55.139 194.976 44.029 210.503L38.914 217.655L47.706 217.974C50.018 218.057 52.022 218.092 54.021 218.092C55.003 218.092 55.913 218.086 56.747 218.074C48.221 228.982 36.259 246.99 26.539 269.303C19.556 285.338 14.713 301.331 12.153 316.847C9.084 335.457 9.297 353.441 12.797 370.303L15.41 382.889L21.577 371.603C44.927 328.902 71.729 296.472 103.528 272.464C130.875 251.822 157.139 240.896 180.306 231.258C181.938 230.579 183.546 229.911 185.137 229.244L189.926 227.242L187.49 222.671C185.793 219.482 182.576 215.294 179.608 211.721C184.669 211.508 189.731 211.402 194.733 211.402C264.001 211.402 332.057 231.565 397.004 271.336L407.345 277.667L404.028 266.014C402.721 261.425 401.486 257.373 400.285 253.706C435.626 287.27 465.083 335.121 479.912 371.136L487.522 389.616L489 369.695C491.034 342.563 489.242 315.306 483.85 290.861C477.381 261.508 465.857 236.047 449.621 215.205C440.509 201.97 430.233 190.045 418.206 178.771C399.835 161.531 378.135 146.689 353.733 134.665L353.573 134.576L353.396 134.517C351.711 133.838 349.588 132.857 347.14 131.735C339.418 128.18 327.752 122.811 311.35 118.393C291.891 113.16 270.179 110.497 246.824 110.497" fill="#F5F3EE"/>
<path d="M233.196 115.51C237.897 115.315 242.444 115.221 246.825 115.221C308.655 115.221 338.846 133.772 351.647 138.898C406.742 166.06 434.042 200.888 445.796 217.986C475.076 255.495 485.075 304.025 485.098 347.694C485.098 355.071 484.808 362.311 484.288 369.34C466.561 326.279 430.056 270.231 388.69 237.322C389.376 238.739 390.032 240.163 390.671 241.616C391.434 243.352 392.161 245.124 392.871 246.961C395.171 252.914 397.241 259.446 399.476 267.307C339.219 230.412 270.293 206.676 194.734 206.676C186.456 206.676 178.107 206.959 169.682 207.544C169.682 207.544 170.989 208.961 172.828 211.07C173.1 211.371 173.378 211.69 173.662 212.027C176.95 215.83 181.378 221.24 183.312 224.884C136.713 244.368 72.69 268.246 17.429 369.34C15.549 360.268 14.721 351.22 14.727 342.302C14.798 287.264 47.017 237.257 62.828 218.039C63.13 217.673 63.425 217.313 63.715 216.976C64.868 215.606 65.915 214.419 66.843 213.426C64.502 213.332 62.686 213.308 61.078 213.308C59.836 213.308 58.713 213.32 57.572 213.332C56.454 213.35 55.319 213.367 54.024 213.367C52.339 213.367 50.388 213.337 47.881 213.249C93.575 149.381 176.313 131.309 229.758 131.309C233.317 131.309 236.753 131.386 240.04 131.539C240.596 131.569 241.163 131.598 241.707 131.622C243.321 131.711 244.894 131.823 246.431 131.941L233.198 115.51" fill="#403737"/>
<path d="M255.434 123.82L250.018 123.932C250.018 123.932 257.616 134.799 261.01 139.654C235.118 137.534 135.594 134.315 68.803 200.776L64.067 205.507C64.067 205.507 81.244 206.056 83.224 206.109C81.574 208.147 79.913 210.19 79.913 210.19C59.851 234.482 32.38 267.756 22.926 332.049L21.111 344.493L28.2 334.092C64.286 281.138 111.05 243.877 167.257 223.389L170.834 222.072L168.605 218.983C162.734 210.839 157.022 205.618 151.789 201.147C250.184 191.201 321.368 217.855 378.042 245.572L384.936 248.962L381.986 241.881C376.511 228.657 371.509 219.745 366.305 211.441C408.842 236.654 438.731 273.697 469.471 321.169L475.804 330.914L474.799 319.338C463.653 190.84 338.03 122.165 255.435 123.819" fill="#403737"/>
<path d="M269.353 141.503C269.353 141.503 264.475 134.51 261.14 129.738C301.087 130.512 348.466 147.905 386.326 176.1C418.663 200.173 457.989 242.218 467.591 307.899C436.212 260.863 404.768 224.352 358.677 200.321L348.773 195.159L354.97 204.538C361.474 214.395 367.245 223.42 373.471 237.033C318.707 210.952 244.129 184.316 144.333 196.01L137.717 196.79L145.628 203.482C150.542 207.628 156.029 212.382 161.604 219.452C109.56 239.261 65.628 273.386 30.73 320.865C41.408 265.957 66.047 236.072 84.389 213.871L95.127 200.671L89.196 200.523L78.009 200.163C153.019 131.157 265.403 145.851 266.544 146.011L273.22 147.033L269.353 141.505" fill="#F5F3EE"/>
</svg>
