<svg width="451" height="500" viewBox="0 0 451 500" fill="none" xmlns="http://www.w3.org/2000/svg">
<path d="M306.644 262.498C324.669 262.498 341.876 262.498 359.784 262.498C359.199 229.399 350.069 199.44 330.99 172.985C311.911 146.53 286.863 128.289 256.313 118.625C225.646 108.961 194.98 109.928 164.547 120.8C164.43 120.437 164.313 120.075 164.196 119.712C165.367 118.988 166.654 118.263 167.825 117.538C169.112 116.813 170.283 115.968 171.57 115.243C192.639 104.492 214.878 97.8477 238.405 96.3981C283.585 93.4989 324.084 106.424 359.55 135.537C387.993 158.852 407.423 188.568 417.84 224.446C423.458 243.774 426.385 263.706 424.98 283.88C424.161 296.08 421.82 308.16 420.064 320.24C419.713 322.656 418.425 324.106 415.616 324.106C393.611 323.985 371.606 324.106 349.718 323.985C349.016 323.985 348.313 323.744 347.494 323.623C349.835 316.858 352.059 310.335 354.517 302.966C352.527 302.966 351.005 302.966 349.484 302.966C327.127 302.966 304.771 303.087 282.298 302.966C279.372 302.966 277.499 303.691 275.86 306.348C272.583 311.543 269.071 316.496 265.443 321.328C264.507 322.536 262.868 323.985 261.463 323.985C239.458 324.106 217.336 324.106 194.395 324.106C228.924 274.095 262.985 224.567 297.163 175.039C229.86 144.476 144.766 193.038 147.809 277.719C129.199 277.719 110.588 277.719 91.3919 277.719C106.959 242.445 122.41 207.534 137.977 172.26C129.082 172.26 119.952 172.26 110.939 172.26C110.705 171.777 110.471 171.415 110.237 170.932C115.153 165.979 119.835 160.784 124.985 156.194C141.02 141.819 159.397 131.913 179.998 126.236C201.534 120.316 223.188 120.196 244.842 125.148C273.285 131.672 297.163 146.288 316.593 168.636C327.127 180.716 334.853 194.608 340.822 209.588C341.29 210.675 340.588 212.728 339.769 213.816C329.586 228.795 319.285 243.653 308.985 258.512C308.283 259.357 307.697 260.565 306.644 262.498Z" fill="#403737"/>
<path d="M128.262 179.508C123.814 189.776 119.367 200.044 114.919 210.192C104.735 233.264 94.5522 256.216 84.369 279.289C82.3792 283.759 83.3156 285.088 88.3487 285.088C102.043 285.088 115.855 285.088 129.55 285.088C155.417 285.088 181.285 285.088 208.089 285.088C204.578 290.282 201.535 294.993 198.257 299.584C192.873 306.832 189.127 315.65 180.817 319.878C176.837 321.932 172.155 323.864 167.825 323.864C136.104 324.227 104.384 323.985 72.6642 324.106C52.6489 324.106 32.6336 324.468 12.6183 324.589C10.8626 324.589 9.22392 324.348 7 324.227C12.3842 311.543 17.4173 299.463 22.5674 287.383C30.5267 268.659 38.7201 250.056 46.6794 231.452C53.8194 214.903 60.7252 198.353 67.9822 181.924C68.5675 180.716 70.4403 179.267 71.7278 179.267C90.1044 179.146 108.598 179.146 126.975 179.146C127.092 179.025 127.443 179.267 128.262 179.508Z" fill="#403737"/>
<path d="M94.2011 330.267C98.766 330.267 102.512 330.267 106.257 330.267C124.868 330.267 143.361 330.388 161.972 330.146C164.898 330.146 166.771 331.113 168.527 333.529C187.84 360.708 214.176 374.721 246.598 377.379C259.591 378.466 272.115 376.775 284.522 373.272C287.097 372.547 289.204 372.305 290.374 375.084C291.662 378.104 290.374 380.278 287.799 381.849C276.094 388.976 263.921 394.895 250.929 398.761C235.01 403.472 218.741 404.68 202.471 403.23C180.349 401.418 159.631 394.049 140.669 381.607C121.239 369.044 106.023 352.011 94.2011 330.267Z" fill="#403737"/>
</svg>
