<svg width="500" height="500" viewBox="0 0 500 500" fill="none" xmlns="http://www.w3.org/2000/svg">
<path d="M477.719 235.312C477.306 236.487 476.958 237.711 476.497 238.851C470.902 252.765 461.91 268.407 441.663 278.646C441.915 280.113 442.142 281.606 442.35 283.113C443.103 288.498 443.551 294.106 443.551 299.826C443.551 301.432 443.412 303.082 443.342 304.706C443.272 306.33 443.277 307.932 443.133 309.586L442.646 314.427L441.824 315.189C441.824 315.189 440.349 316.53 438.457 318.245C436.834 319.721 434.933 321.454 433.28 322.964C432.567 323.608 431.892 324.227 431.34 324.732C429.7 332.76 427.703 340.335 425.554 347.357C417.506 373.674 407.282 392.041 405.203 395.646L404.859 396.242L402.91 399.494L402.127 399.873L399.491 401.14C394.366 403.582 385.452 405.807 372.288 409.107L366.611 410.565L360.934 412.019L356.218 413.321L300.102 381.771L301.481 379.263C301.481 379.254 303.861 374.896 305.105 371.906C305.992 369.729 306.623 368.58 306.993 366.686C307.197 365.598 307.324 364.239 307.354 362.315L307.363 362.089V362.085C307.359 361.541 307.25 361.005 307.189 360.461C307.024 358.894 306.702 357.344 305.967 355.899C305.432 355.268 304.932 354.71 304.449 354.192C301.569 351.123 299.35 349.686 296.109 346.874C294.63 345.572 293.286 344.375 292.063 343.278L292.059 343.282C290.088 346.578 287.522 349.851 284.228 352.79L283.741 353.247L273.435 362.106L270.033 357.47L265.395 351.166C265.038 350.691 201.378 265.903 58.841 254.445L43.436 253.2L28.035 251.955H28.031L51.806 232.195C55.286 229.343 126.764 170.558 221.755 146.801C231.583 144.346 241.658 142.26 251.938 140.654C252.464 140.571 253.33 140.415 254.453 140.197C255.506 138.508 256.689 136.91 257.846 135.291C258.455 134.438 258.995 133.532 259.638 132.701C284.818 99.941 323.467 87.042 358.858 87.042C369.695 87.051 380.206 88.3 390.02 90.529C396.359 91.97 402.41 93.803 408.018 96.054C412.595 97.896 416.897 99.981 420.843 102.306H420.852L420.843 102.31C424.893 104.7 428.652 107.269 432.272 109.911C453.694 125.575 467.654 145.34 475.315 165.666C480.309 178.927 482.685 192.409 482.68 205.113C482.68 215.94 480.914 226.162 477.721 235.313L477.719 235.312ZM483.322 166.762C476.335 146.27 460.369 117.359 424.465 96.166C406.515 85.565 383.04 79.906 358.9 79.901C352.605 79.901 346.258 80.284 339.967 81.085C304.62 85.526 274.019 102.273 253.99 128.342C252.659 130.079 251.401 131.89 250.192 133.727C138.882 151.285 51.147 223.518 47.258 226.713L10.001 257.662L58.265 261.541C130.243 267.349 181.099 292.529 211.082 312.586C243.923 334.558 259.676 355.407 259.707 355.442L265.841 363.805L272.232 372.534L288.385 358.664C290.121 357.175 291.739 355.534 293.244 353.779L294.571 354.88C296.542 356.469 297.969 357.653 299.805 359.691C300.07 360.405 300.218 361.176 300.227 362.09C300.166 365.638 299.983 365.629 299.018 368.015L298.535 369.138C298 370.444 297.16 372.124 296.473 373.474L295.599 375.159L295.334 375.651H295.343L290.471 384.541L355.292 420.993L356.454 420.666C356.506 420.662 361.557 419.255 362.688 418.925C363.71 418.681 374.021 416.026 374.069 416.013C387.999 412.535 396.874 410.284 402.573 407.593L407.907 404.994L410.974 399.913C411.809 398.502 429.076 369.334 437.825 328.477C440.962 325.63 448.666 318.612 448.666 318.612L449.488 317.859L449.853 313.989L450.214 310.249C450.532 306.788 450.684 303.301 450.684 299.827C450.684 294.198 450.258 288.377 449.457 282.487C469.095 270.929 477.865 254.529 483.108 241.529C487.615 230.419 489.834 218.016 489.834 205.182C489.834 192.518 487.667 179.431 483.326 166.763L483.322 166.762Z" fill="#F5F3EE"/>
<path d="M457.642 247.488C451.817 257.183 444.321 264.493 436.616 268.772C434.471 269.961 432.326 270.91 430.182 271.632C429.295 271.941 428.411 272.185 427.528 272.398V272.402C428.046 274.561 428.498 276.795 428.929 279.063C429.142 280.173 429.342 281.296 429.525 282.428C429.525 282.554 429.547 282.654 429.573 282.781C430.034 285.746 430.4 288.802 430.643 291.906C430.682 292.489 430.747 293.073 430.774 293.665C430.818 294.318 430.835 295.006 430.865 295.672C430.904 296.46 430.935 297.244 430.952 298.032L430.965 299.826V299.878C430.965 300.788 430.956 301.711 430.913 302.616C430.904 303.086 430.896 303.569 430.878 304.048V304.083C430.817 305.52 430.726 306.956 430.587 308.393L419.824 318.188L419.82 318.192C415.204 343.281 406.634 364.374 400.648 377.034C398.669 381.226 396.954 384.535 395.78 386.703C394.692 388.719 394.049 389.79 394.049 389.79C388.132 392.624 366.689 397.308 357.532 399.894L316.447 377.382C316.46 377.36 318.861 372.645 319.671 366.185C319.854 364.748 319.949 363.225 319.928 361.644C319.876 357.7 319.045 353.42 316.765 349.315C315.334 346.729 307.251 339.946 300.447 333.904C300.208 333.678 299.973 333.482 299.738 333.286C299.19 332.798 297.789 331.466 296.175 329.864C293.482 327.204 290.184 323.808 289.18 322.385C285.395 316.939 281.602 309.307 279.544 298.924C279.544 298.924 279.4 299.433 279.226 300.361C278.473 304.379 277.181 316.273 284.829 328.798C283.289 333.582 280.566 339.394 275.532 343.717C275.51 343.673 269.694 334.017 256.577 320.195C231.479 293.756 179.661 252.12 90.586 233.613C90.664 233.539 153.458 174.837 250.464 153.853C249.494 156.078 248.576 158.341 247.754 160.627C245.644 163.879 242.677 169.125 240.184 176.104C234.698 191.45 231.492 215.168 244.678 244.388C267.94 295.929 331.617 297.958 353.025 265.711C353.678 264.718 354.282 263.73 354.861 262.738C355.561 261.541 356.218 260.344 356.814 259.151C358.045 257.074 359.133 254.824 360.068 252.438C360.86 250.388 361.504 248.372 362.008 246.387C369.56 216.609 345.633 194.411 325.691 196.1C352.163 209.622 344.95 234.876 334.183 243.131C322.702 251.934 304.213 250.928 292.858 235.242C269.392 202.9 289.265 163.336 322.11 150.144C336.749 144.276 353.955 143.64 371.052 151.224C376.751 153.753 382.433 157.197 388.01 161.664C390.172 163.392 392.121 165.234 393.953 167.132C409.893 183.684 413.647 205.952 409.449 220.915C409.332 221.342 409.179 221.747 409.044 222.156C408.909 222.57 408.792 222.992 408.639 223.392L408.548 223.679C407.982 225.177 407.304 226.539 406.569 227.837C406.077 228.695 405.577 229.544 405.012 230.31C404.529 230.972 404.042 231.616 403.511 232.182L403.224 232.478L403.089 232.63L402.972 232.743L402.868 232.852H402.864C402.425 233.309 401.998 233.74 401.52 234.175C401.52 234.175 403.291 236.077 405.535 238.764C407.001 240.523 408.663 242.604 410.177 244.737C415.946 252.834 416.803 255.847 419.313 257.014C419.709 257.179 420.14 257.314 420.596 257.393H420.609C421.057 257.48 421.536 257.524 422.049 257.524C422.715 257.524 423.432 257.454 424.194 257.298L424.229 257.285C425.756 256.972 427.461 256.34 429.271 255.326C430.158 254.83 431.068 254.251 431.999 253.572C435.475 251.043 440.217 245.562 443.458 240.607C444.424 239.131 445.276 237.695 445.894 236.402C447.9 232.223 453.868 218.888 454.177 199.058L454.186 197.452V197.439C454.186 192.271 453.777 186.668 452.842 180.704C452.607 179.211 452.368 177.713 452.059 176.172C450.649 169.093 448.231 162.415 445.137 156.159C437.167 140.073 424.455 126.956 410.995 117.996C405.757 114.518 400.423 111.623 395.216 109.472C368.1 98.262 341.023 99.838 336.355 100.208L335.816 100.256L335.651 100.265C335.908 100.221 364.111 95.35 394.821 104.797L395.735 105.063L395.874 105.111C407.237 108.72 418.879 114.362 429.559 122.908C441.658 132.59 452.508 146.003 460.221 164.658C474.295 198.663 469.383 227.945 457.646 247.492L457.642 247.488ZM417.901 107.319L417.897 107.306C402.788 98.368 381.467 92.839 358.857 92.857C329.048 92.857 297.172 102.348 273.732 125.478C270.387 128.782 267.206 132.365 264.235 136.24C262.873 138.016 261.599 139.88 260.372 141.773C259.824 142.618 259.267 143.449 258.749 144.311L258.088 145.395L257.462 145.526L256.831 145.652L255.387 145.931C254.343 146.136 253.434 146.301 252.842 146.397C210.134 153.036 170.841 168.151 138.717 184.155C89.818 208.513 57.582 234.934 55.528 236.662L42.699 247.315L59.292 248.652C154.201 256.301 214.828 295.922 245.612 322.687L245.756 322.809C247.487 324.315 249.088 325.761 250.633 327.176C263.436 338.943 269.788 347.337 270.066 347.724L274.395 353.619L279.955 348.852C283.927 345.43 286.681 341.381 288.656 337.372L289.504 335.648L290.352 333.915L293.219 336.51C295.133 338.264 297.317 340.189 299.94 342.5C303.294 345.456 306.357 347.328 310.62 352.391L310.811 352.626L310.95 352.874C311.359 353.636 311.707 354.411 311.99 355.19C312.838 357.519 313.16 359.887 313.16 362.086V362.09C313.217 367.497 312.081 370.41 310.946 373.03L310.459 374.14C309.719 375.925 308.71 377.941 307.914 379.512L356.978 407.078L359.432 406.403L370.869 403.469C382.328 400.635 390.655 398.458 395.24 396.643C395.893 396.386 396.471 396.134 396.971 395.885L398.82 395.014L399.882 393.26C400.052 392.977 401.392 390.691 403.388 386.817C405.585 382.568 408.578 376.36 411.78 368.593C416.779 356.499 422.243 340.678 425.836 322.664L426.019 321.732L426.724 321.092L428.877 319.12C431.618 316.612 435.429 313.151 437.099 311.641L437.343 309.042C437.617 305.942 437.761 302.869 437.761 299.826L437.731 298.698C437.653 291.402 436.839 284.244 435.551 277.549L435.142 275.337L437.169 274.379C449.563 268.489 457.446 260.74 462.997 252.416L463.175 252.163L463.736 251.271C466.786 246.491 469.117 241.55 471.11 236.669C474.582 228.114 476.513 218.128 476.77 207.496C476.787 206.691 476.87 205.92 476.87 205.11V205.106C476.857 171.562 459.764 132.046 417.9 107.318L417.901 107.319Z" fill="#F5F3EE"/>
<path d="M411.388 310.205C408.408 332.739 400.12 355.072 393.838 369.63C391.267 375.599 389.018 380.296 387.63 383.108C385.298 384.253 377.176 384.627 377.176 384.627L377.18 384.623H377.171C377.171 384.623 383.436 377.614 382.857 369.943C382.766 368.698 382.509 367.444 382.004 366.195C381.447 364.828 380.242 363.64 378.702 363.117C378.115 362.917 377.493 362.795 376.814 362.821C375.156 362.873 373.79 363.378 372.555 364.732C370.158 367.357 370.184 370.823 372.076 375.206C372.663 374.801 373.207 374.231 373.699 373.647C374.182 373.064 374.613 372.472 374.978 372.014C375.243 373.651 375.578 375.275 374.8 377.382C373.543 380.786 371.315 383.703 368.531 385.998C365.547 388.458 361.914 390.195 358.099 390.965H358.095C358.134 391.126 353.523 388.671 352.648 388.096L352.47 387.97L352.466 387.966C352.766 387.23 353.123 386.412 353.506 385.532C354.65 382.885 356.055 379.698 357.091 376.564C361.724 362.568 359.505 352.742 355.194 346.791C351.866 348.188 345.588 351.597 341.107 354.175C339.854 354.898 338.719 355.568 337.853 356.099C339.376 358.746 341.068 361.28 342.382 364.14C344.279 368.267 345.297 373.143 343.939 379.947C343.73 381.001 343.547 382.032 343.217 383.186C343.295 383.338 341.298 382.285 338.771 380.913C334.56 378.632 328.865 375.449 328.848 375.436C329.962 371.705 330.958 366.903 330.697 360.765C330.601 358.623 330.362 356.324 329.91 353.843C329.771 353.033 329.231 351.383 328.566 349.712C327.892 348.036 327.091 346.342 326.421 345.424V345.42C329.706 341.78 334.004 338.398 338.302 335.433C343.988 331.506 349.678 328.328 353.046 326.421C355.078 326.909 357.814 327.923 360.903 329.399C366.197 331.92 372.566 335.82 378.492 340.875C383.839 345.433 388.811 350.905 392.27 357.161C395.498 350.082 397.608 343.295 399.035 337.022C401.684 325.368 401.889 315.542 401.819 309.364L404.042 307.3L408.327 303.312C408.814 297.165 408.449 291.196 407.57 285.502C403.428 258.741 387.214 238.454 387.214 238.454L387.227 238.463L387.218 238.454C387.218 238.454 415.861 261.297 418.654 296.329C418.837 298.667 418.906 301.057 418.85 303.499L411.389 310.203L411.388 310.205ZM349.177 375.485C349.142 369.865 349.486 361.78 346.288 358.881C346.636 357.222 351.408 356.883 351.408 356.883H351.412C354.792 368.881 349.533 376.583 349.228 377.723C349.198 377.04 349.18 376.291 349.176 375.485H349.177ZM394.909 305.699L395.074 305.538C395.074 305.538 395.196 306.753 394.691 308.168C394.621 308.368 394.543 308.564 394.452 308.764C392.895 309.395 390.263 308.816 389.236 306.365C389.949 306.787 390.624 306.988 391.246 307.044C392.173 307.131 392.973 306.896 393.604 306.591C394.23 306.282 394.683 305.903 394.909 305.699V305.699ZM387.161 292.099C387.605 290.349 387.783 288.49 387.853 286.949C387.936 285.051 387.853 283.64 387.853 283.64V283.649V283.636C389.645 285.926 391.016 288.233 392.051 290.497C393.091 292.77 393.791 295.003 394.248 297.136H394.244V297.14L393.866 297.11L393.84 297.106C392.417 297.106 391.112 297.515 389.968 298.181C387.688 299.518 386.148 301.96 386.148 304.798C386.148 307.641 387.688 310.087 389.968 311.424C391.112 312.09 392.417 312.504 393.84 312.504L393.87 312.5H393.874C393.378 314.32 392.93 315.382 392.93 315.382H392.926V315.386C386.109 315.386 380.575 309.857 380.575 303.035C380.575 298.285 383.255 294.171 387.162 292.099H387.161ZM429.556 122.905C441.655 132.587 452.505 146 460.218 164.655C474.292 198.66 469.38 227.942 457.643 247.489C451.818 257.184 444.322 264.494 436.617 268.773C434.472 269.962 432.327 270.911 430.183 271.633C429.296 271.942 428.412 272.186 427.529 272.399V272.403C428.047 274.562 428.499 276.796 428.93 279.064C429.143 280.174 429.343 281.297 429.526 282.429C429.526 282.555 429.548 282.655 429.574 282.782C430.035 285.747 430.401 288.803 430.644 291.907C430.683 292.49 430.748 293.074 430.775 293.666C430.819 294.319 430.836 295.007 430.866 295.673C430.905 296.461 430.936 297.245 430.953 298.033L430.966 299.827V299.879C430.966 300.789 430.957 301.712 430.914 302.617C430.905 303.087 430.897 303.57 430.879 304.049V304.084C430.818 305.521 430.727 306.957 430.588 308.394L419.825 318.189L419.821 318.193C415.205 343.282 406.635 364.375 400.649 377.035C398.67 381.227 396.955 384.536 395.781 386.704C394.693 388.72 394.05 389.791 394.05 389.791C388.133 392.625 366.69 397.309 357.533 399.895L316.448 377.383C316.461 377.361 318.862 372.646 319.672 366.186C319.855 364.749 319.95 363.226 319.929 361.645C319.877 357.701 319.046 353.421 316.766 349.316C315.335 346.73 307.252 339.947 300.448 333.905L300.426 333.7C300.426 333.7 300.174 333.569 299.739 333.286C299.191 332.798 297.79 331.466 296.176 329.864C293.483 327.204 290.185 323.808 289.181 322.385C285.396 316.939 281.603 309.307 279.545 298.924C279.545 298.924 279.401 299.433 279.227 300.361C278.474 304.379 277.182 316.273 284.83 328.798C283.29 333.582 280.567 339.394 275.533 343.717C275.511 343.673 269.695 334.017 256.578 320.195C231.48 293.756 179.662 252.12 90.587 233.613C90.665 233.539 153.459 174.837 250.465 153.853C249.495 156.078 248.577 158.341 247.755 160.627C245.645 163.879 242.678 169.125 240.185 176.104C234.699 191.45 231.493 215.168 244.679 244.388C267.941 295.929 331.618 297.958 353.026 265.711C353.679 264.718 354.283 263.73 354.862 262.738C355.562 261.541 356.219 260.344 356.815 259.151C358.046 257.074 359.134 254.824 360.069 252.438C360.861 250.388 361.505 248.372 362.009 246.387C369.561 216.609 345.634 194.411 325.692 196.1C352.164 209.622 344.951 234.876 334.184 243.131C322.703 251.934 304.214 250.928 292.859 235.242C269.393 202.9 289.266 163.336 322.111 150.144C336.75 144.276 353.956 143.64 371.053 151.224C376.752 153.753 382.434 157.197 388.011 161.664C390.173 163.392 392.122 165.234 393.954 167.132C409.894 183.684 413.648 205.952 409.45 220.915C409.333 221.342 409.18 221.747 409.045 222.156C408.91 222.57 408.793 222.992 408.64 223.392L408.549 223.679C407.983 225.177 407.305 226.539 406.57 227.837C406.078 228.695 405.578 229.544 405.013 230.31C404.53 230.972 404.043 231.616 403.512 232.182L403.225 232.478L403.09 232.63L402.973 232.743L402.869 232.852H402.865C402.426 233.309 401.999 233.74 401.521 234.175C401.521 234.175 403.292 236.077 405.536 238.764C407.002 240.523 408.664 242.604 410.178 244.737C415.947 252.834 416.804 255.847 419.314 257.014C419.71 257.179 420.141 257.314 420.597 257.393H420.61C421.058 257.48 421.537 257.524 422.05 257.524C422.716 257.524 423.433 257.454 424.195 257.298L424.23 257.285C425.757 256.972 427.462 256.34 429.272 255.326C430.159 254.83 431.069 254.251 432 253.572C435.476 251.043 440.218 245.562 443.459 240.607C444.425 239.131 445.277 237.695 445.895 236.402C447.901 232.223 453.869 218.888 454.178 199.058L454.187 197.452V197.439C454.187 192.271 453.778 186.668 452.843 180.704C452.608 179.211 452.369 177.713 452.06 176.172C450.65 169.093 448.232 162.415 445.138 156.159C437.168 140.073 424.456 126.956 410.996 117.996C405.758 114.518 400.424 111.623 395.217 109.472C368.101 98.262 341.024 99.838 336.356 100.208L335.817 100.256L335.652 100.265C335.909 100.221 364.112 95.35 394.822 104.797L395.736 105.063L395.875 105.111C407.238 108.72 418.88 114.362 429.56 122.908L429.556 122.905ZM299.735 333.287C300.17 333.57 300.418 333.701 300.418 333.701L300.444 333.906C300.205 333.68 299.97 333.484 299.735 333.288V333.287Z" fill="#403737"/>
<path d="M476.87 205.112C476.87 205.922 476.787 206.692 476.77 207.498C476.513 218.129 474.582 228.116 471.11 236.671C469.118 241.551 466.786 246.492 463.736 251.273L463.175 252.165L462.997 252.418C457.446 260.742 449.563 268.491 437.169 274.381L435.142 275.339L435.551 277.551C436.839 284.247 437.652 291.404 437.731 298.7L437.761 299.828C437.761 302.871 437.617 305.945 437.343 309.044L437.099 311.643C435.428 313.154 431.617 316.615 428.877 319.122L426.724 321.094L426.019 321.734L425.836 322.666C422.243 340.681 416.778 356.501 411.78 368.595C408.578 376.362 405.585 382.57 403.388 386.819C401.391 390.694 400.051 392.979 399.882 393.262L398.82 395.016L396.971 395.887C396.471 396.135 395.892 396.388 395.24 396.645C390.655 398.46 382.328 400.637 370.869 403.471L359.432 406.405L356.978 407.08L307.914 379.514C308.71 377.942 309.719 375.927 310.459 374.142L310.946 373.032C312.081 370.411 313.217 367.499 313.16 362.092V362.088C313.16 359.889 312.838 357.521 311.99 355.192C311.707 354.413 311.359 353.638 310.95 352.876L310.811 352.628L310.62 352.393C306.357 347.33 303.294 345.458 299.94 342.502C297.317 340.19 295.133 338.266 293.219 336.512L290.352 333.917L289.504 335.65L288.656 337.374C286.681 341.384 283.927 345.432 279.955 348.854L274.395 353.621L270.066 347.726C269.788 347.339 263.436 338.945 250.633 327.178C249.089 325.763 247.488 324.318 245.756 322.811L245.612 322.689C214.828 295.924 154.201 256.303 59.292 248.654L42.699 247.317L55.528 236.664C57.581 234.936 89.818 208.514 138.717 184.157C170.841 168.154 210.134 153.038 252.842 146.399C253.434 146.303 254.343 146.138 255.387 145.933L256.831 145.654L257.462 145.528L258.088 145.397L258.749 144.313C259.267 143.451 259.824 142.619 260.372 141.775C261.599 139.881 262.873 138.018 264.235 136.242C267.206 132.367 270.387 128.784 273.732 125.48C297.172 102.35 329.048 92.859 358.857 92.859C381.466 92.842 402.788 98.371 417.897 107.308L417.901 107.321C459.765 132.049 476.858 171.565 476.871 205.109V205.113L476.87 205.112ZM432.269 109.91C428.649 107.267 424.891 104.699 420.84 102.309L420.849 102.305H420.84C416.894 99.98 412.592 97.895 408.015 96.053C402.407 93.802 396.356 91.969 390.017 90.528C380.202 88.299 369.692 87.05 358.855 87.041C323.464 87.041 284.815 99.94 259.635 132.7C258.991 133.532 258.452 134.437 257.843 135.29C256.686 136.909 255.502 138.507 254.45 140.196C253.328 140.414 252.462 140.57 251.935 140.653C241.655 142.259 231.579 144.345 221.752 146.8C126.76 170.557 55.283 229.342 51.803 232.194L28.028 251.954H28.032L43.433 253.199L58.838 254.444C201.375 265.902 265.035 350.691 265.392 351.165L270.03 357.469L273.432 362.105L283.738 353.246L284.225 352.789C287.518 349.85 290.085 346.577 292.056 343.281L292.06 343.277C293.282 344.374 294.627 345.571 296.106 346.873C299.347 349.685 301.566 351.122 304.446 354.191C304.929 354.709 305.429 355.266 305.964 355.898C306.699 357.343 307.021 358.893 307.186 360.46C307.247 361.004 307.356 361.54 307.36 362.084V362.088L307.351 362.314C307.321 364.238 307.194 365.597 306.99 366.685C306.62 368.579 305.989 369.728 305.102 371.905C303.858 374.896 301.478 379.254 301.478 379.262L300.099 381.77L356.215 413.32L360.931 412.018L366.608 410.564L372.285 409.106C385.449 405.806 394.363 403.581 399.488 401.139L402.124 399.872L402.903 399.493L404.856 396.241L405.2 395.645C407.28 392.04 417.503 373.673 425.551 347.356C427.7 340.334 429.697 332.759 431.337 324.731C431.89 324.226 432.564 323.608 433.277 322.963C434.93 321.452 436.831 319.72 438.454 318.244C440.346 316.529 441.821 315.188 441.821 315.188L442.643 314.426L443.13 309.585C443.274 307.931 443.269 306.329 443.339 304.705C443.409 303.081 443.548 301.431 443.548 299.825C443.548 294.105 443.1 288.497 442.347 283.112C442.138 281.606 441.912 280.112 441.66 278.645C461.907 268.406 470.899 252.764 476.494 238.85C476.955 237.709 477.303 236.486 477.716 235.311C480.909 226.16 482.675 215.938 482.675 205.111C482.679 192.408 480.304 178.925 475.31 165.664C467.649 145.338 453.688 125.573 432.267 109.909L432.269 109.91Z" fill="#403737"/>
<path d="M391.245 307.044C392.172 307.131 392.972 306.896 393.603 306.591C394.229 306.282 394.682 305.903 394.908 305.699L395.073 305.538C395.073 305.538 395.195 306.753 394.69 308.168C394.62 308.368 394.542 308.564 394.451 308.764C392.894 309.395 390.262 308.816 389.235 306.365C389.948 306.787 390.623 306.988 391.245 307.044V307.044ZM351.412 356.883C354.792 368.881 349.533 376.583 349.228 377.723C349.198 377.04 349.18 376.291 349.176 375.485C349.141 369.865 349.485 361.78 346.287 358.881C346.635 357.222 351.407 356.883 351.407 356.883H351.411H351.412ZM387.216 238.455C387.216 238.455 415.859 261.298 418.652 296.33C418.835 298.668 418.904 301.058 418.848 303.5L411.387 310.204C408.407 332.738 400.119 355.071 393.837 369.629C391.266 375.598 389.017 380.295 387.629 383.107C385.297 384.252 377.175 384.626 377.175 384.626L377.179 384.622H377.17C377.17 384.622 383.435 377.613 382.856 369.942C382.765 368.697 382.508 367.443 382.003 366.194C381.446 364.827 380.241 363.639 378.701 363.116C378.114 362.916 377.492 362.794 376.813 362.82C375.155 362.872 373.789 363.377 372.554 364.731C370.157 367.356 370.183 370.822 372.075 375.205C372.662 374.8 373.206 374.23 373.698 373.646C374.181 373.063 374.612 372.471 374.977 372.013C375.242 373.65 375.577 375.274 374.799 377.381C373.542 380.785 371.314 383.702 368.53 385.997C365.546 388.457 361.913 390.194 358.098 390.964H358.094C358.133 391.125 353.522 388.67 352.647 388.095L352.469 387.969L352.465 387.965C352.765 387.229 353.122 386.411 353.505 385.531C354.649 382.884 356.054 379.697 357.09 376.563C361.723 362.567 359.504 352.741 355.193 346.79C351.865 348.187 345.587 351.596 341.106 354.174C339.853 354.897 338.718 355.567 337.852 356.098C339.375 358.745 341.067 361.279 342.381 364.139C344.278 368.266 345.296 373.142 343.938 379.946C343.729 381 343.546 382.031 343.216 383.185C343.294 383.337 341.297 382.284 338.77 380.912C334.559 378.631 328.864 375.448 328.847 375.435C329.961 371.704 330.957 366.902 330.696 360.764C330.6 358.622 330.361 356.323 329.909 353.842C329.77 353.032 329.23 351.382 328.565 349.711C327.891 348.035 327.09 346.341 326.42 345.423V345.419C329.705 341.779 334.003 338.397 338.301 335.432C343.987 331.505 349.677 328.327 353.045 326.42C355.077 326.908 357.813 327.922 360.902 329.398C366.196 331.919 372.565 335.819 378.491 340.874C383.838 345.432 388.81 350.904 392.269 357.16C395.497 350.081 397.607 343.294 399.034 337.021C401.683 325.367 401.888 315.541 401.818 309.363L404.041 307.299L408.326 303.311C408.813 297.164 408.448 291.195 407.569 285.501C403.427 258.74 387.213 238.453 387.213 238.453L387.226 238.462L387.217 238.453L387.216 238.455ZM392.924 315.385C386.107 315.385 380.573 309.856 380.573 303.034C380.573 298.284 383.253 294.17 387.16 292.098C387.604 290.348 387.782 288.489 387.852 286.948C387.935 285.05 387.852 283.639 387.852 283.639V283.648V283.635C389.644 285.925 391.015 288.232 392.05 290.496C393.09 292.769 393.79 295.002 394.247 297.135H394.243V297.139L393.865 297.109L393.839 297.105C392.416 297.105 391.111 297.514 389.967 298.18C387.687 299.517 386.147 301.959 386.147 304.797C386.147 307.64 387.687 310.086 389.967 311.423C391.111 312.089 392.416 312.503 393.839 312.503L393.869 312.499H393.873C393.377 314.319 392.929 315.381 392.929 315.381H392.925V315.385H392.924Z" fill="#F5F3EE"/>
</svg>
