<svg width="500" height="500" viewBox="0 0 500 500" fill="none" xmlns="http://www.w3.org/2000/svg">
<path d="M250.005 54.101C199.879 99.557 134.429 98.195 67.21 89.736C52.713 254.497 109.114 417.109 248.937 446.562C390.099 418.247 445.844 255.942 432.231 91.111C369.664 97.42 304.818 99.982 250.005 54.101" fill="#F5F3EE"/>
<path d="M249.777 70.16C207.991 104.162 142.09 112.599 79.156 103.396C69.77 253.643 118.749 400.449 248.504 434.324C378.438 401.154 428.783 254.991 420.215 104.701C356.007 111.934 291.375 104.386 249.778 70.16" fill="#403737"/>
<path d="M357.556 181.02C391.68 209.181 352.765 242.517 331.129 224.226C323.541 218.009 311.884 209.138 309.359 204.633C305.679 201.52 309.626 197.544 314.299 202.295C316.715 205.517 320.421 208.849 326.832 213.876L324.211 208.097C324.211 208.097 339.535 186.687 345.767 179.305L349.17 179.168C349.084 178.885 349.025 178.574 348.997 178.232C348.73 175.036 351.181 170.355 354.375 170.084C357.569 169.817 360.379 172.194 360.646 175.391C360.846 177.789 359.561 179.968 357.557 181.021L357.556 181.02ZM145.058 178.932L148.449 178.962C154.908 186.138 170.897 207.071 170.897 207.071L168.451 212.925C174.704 207.693 178.301 204.252 180.612 200.955C185.145 196.064 189.211 199.913 185.627 203.14C183.251 207.72 171.869 216.949 164.487 223.403C143.428 242.365 103.625 212.122 136.853 182.912C134.816 181.922 133.46 179.784 133.585 177.382C133.756 174.177 136.486 171.712 139.694 171.883C142.893 172.049 145.356 174.786 145.186 177.986C145.169 178.31 145.126 178.626 145.06 178.932H145.058ZM299.728 329.135L301.793 330.527C309.932 338.215 341.57 353.982 346.615 355.532C318.285 362.441 307.153 355.147 297.067 347.375C296.389 343.92 294.441 340.396 294.441 340.396C295.833 338.334 298.209 333.754 299.727 329.135H299.728ZM195.38 333.478C195.38 333.478 200.11 340.987 201.773 341.937C201.773 341.937 203.812 343.75 203.051 350.12C191.665 358.645 163.839 362.099 149.726 356.552C149.726 356.552 183.771 343.124 193.187 334.643L195.379 333.478H195.38ZM283.585 330.785L283.563 331.21C283.611 330.785 284.364 330.956 284.246 330.391C284.719 330.886 285.318 331.219 285.182 331.928C284.801 333.946 283.742 335.693 282.276 337.002C281.76 337.462 280.836 337.593 280.403 338.241C279.607 339.445 278.377 338.828 277.742 338.259C276.998 337.589 277.615 336.079 278.49 335.523C279.343 334.976 280.048 334.42 280.84 333.82C281.168 333.57 281.383 333.146 281.636 332.905C282.354 332.239 282.923 331.495 283.583 330.786L283.585 330.785ZM211.378 332.834C212.188 335.093 214.087 336.061 214.656 336.967C215.553 338.412 215.969 339.936 216.844 341.31C215.361 342.155 214.223 344.55 212.766 343.823C212.031 343.464 211.808 341.892 211.37 340.789C210.254 337.991 211.812 335.679 211.379 332.834H211.378ZM290.932 308.696C290.245 311.94 289.834 315.303 288.718 318.412C287.677 321.275 287.178 323.241 283.603 326.258C282.863 320.028 281.1 316.941 281.437 314.603C279.039 315.544 279.363 319.121 279.105 322.392C278.698 327.602 280.111 331.429 279.783 329.905C279.941 330.627 277.967 332.068 277.258 333.193C275.031 336.726 272.563 340.019 269.535 342.874C269.08 343.303 268.971 344.166 268.494 344.371C266.827 345.089 266.389 346.175 265.409 347.313C264.613 348.246 262.49 348.981 261.392 349.581C260.701 349.966 258.605 350.527 258.036 350.649C256.767 350.903 255.612 350.864 253.699 350.758C251.848 350.666 249.323 348.385 247.332 347.903C241.53 346.484 240.177 351.734 231.159 349.79C227.444 348.993 226.696 346.502 224.368 343.875C223.917 343.363 221.699 340.666 221.353 340.294C222.294 341.301 215.17 334.598 213.805 329.431C212.287 323.652 213.065 323.187 213.752 318.314C214.006 316.484 213.66 311.891 211.967 311.593C210.387 313.217 211.529 314.329 211.057 316.672C210.606 318.957 212.711 319.049 211.092 324.155C210.633 325.617 209.836 325.258 209.381 324.278C207.692 320.648 208.563 312.78 204.747 309.711C203.867 309.01 203.815 306.883 204.554 306.327C205.722 305.447 206.878 306.839 208.392 306.489C208.659 306.428 208.497 304.589 208.291 304.352C207.039 302.881 204.265 303.481 204.291 303.279C204.659 300.315 204.602 297.644 203.591 296.19C202.199 294.198 200.16 293.856 199.333 291.908C197.574 287.784 198.178 285.432 198.02 284.355C197.806 282.901 197.456 280.541 197.876 279.009C197.452 279.105 197.613 275.59 197.635 275.357C197.898 272.787 198.353 272.931 198.746 270.501C198.825 269.012 202.501 268.137 202.536 271.561C201.635 276.075 202.978 279.626 203.096 284.184C203.109 284.731 204.006 285.257 204.614 285.432C214.539 288.282 221.973 287.188 231.841 286.991C234.484 286.938 236.073 283.637 236.637 281.045C237.573 276.78 237.578 275.327 237.613 270.625C238.107 269.373 239.263 269.714 240.169 270.761C241.862 272.709 240.55 273.436 240.965 275.932C241.293 277.876 238.79 280.731 238.79 280.731L238.23 287.329C238.742 287.36 237.849 293.227 237.714 293.069C237.333 296.261 239.53 295.087 239.197 297.425C239.14 298.493 238.593 299.973 238.624 300.166C238.943 302.325 234.134 301.86 234.904 301.9C233.836 301.843 233.009 301.375 233.053 300.521C233.114 299.304 232.782 298.393 232.795 297.303C230.45 297.176 231.421 299.067 231.29 301.493C231.237 302.561 231.938 303.459 233.736 303.761C235.644 304.076 235.845 304.3 236.733 303.708C237.192 303.393 238.707 303.06 238.943 302.324C239.827 305.796 240.868 306.273 243.433 306.194C244.531 306.163 247.043 306.597 248.032 304.084C248.277 303.449 249.984 303.545 250.229 302.919C254.666 303.795 251.949 305.607 257.335 303.873C258.958 303.356 260.284 301.018 258.88 299.166C258.714 298.943 257.843 298.96 257.825 299.078C257.234 303.715 255.418 302.344 253.681 302.244C247.966 301.911 251.047 299.543 246.203 302.279C245.63 302.603 243.928 304.937 241.674 303.107C238.611 300.379 241.919 298.422 242.291 295.445C242.624 292.744 242.497 284.245 242.37 281.771C242.068 275.948 243.556 279.49 244.545 276.977C243.709 277.178 244.156 269.845 244.081 269.468C243.578 266.876 240.528 267.879 239.731 266.894C239.731 266.894 239.377 264.849 239.845 264.757C243.298 264.087 247.669 262.183 250.811 260.633C258.079 257.06 262.166 254.836 265.685 252.656C266.726 252.008 267.155 250.629 267.715 250.62C274.336 250.541 280.725 249.206 286.615 252.476C290.733 254.757 291.726 257.016 292.803 260.917C292.33 260.991 293.197 265.081 293.21 265.431C293.289 267.997 293.153 272.682 293.184 273.973C293.385 282.441 293.867 285.339 292.716 291.044C292.707 291.097 291.823 293.137 291.539 293.119C290.843 294.152 289.64 295.685 288.218 296.88C287.772 297.257 287.964 298.509 288.279 298.294C289.163 297.694 290.891 297.361 292.2 296.788C292.161 300.413 291.789 304.673 290.935 308.693L290.932 308.696ZM177.723 215.332L186.387 225.188L185.713 229.86C182.072 230.101 179.28 234.435 177.622 237.557C176.581 237.071 168.485 224.461 168.485 224.461L177.723 215.332V215.332ZM318.483 216.895C319.726 217.604 327.27 224.413 329.134 225.573C328.036 230.218 320.658 244.575 319.034 247.058C318.841 238.498 317.642 228.822 312.947 228.792L312.063 225.32L318.482 216.896L318.483 216.895ZM206.788 261.996C203.506 261.773 203.3 263.454 202.241 264.921C201.659 265.722 198.78 265.81 199.296 264.124C199.471 263.542 201.453 257.009 200.154 259.895C202.149 255.464 201.546 255.206 204.416 252.001C205.138 251.195 207.698 250.766 207.698 250.766C213.772 248.953 244.526 248.765 259.605 250.416C260.786 250.543 254.284 254.462 253.382 255C247.864 258.288 247.208 258.739 241.97 260.814C240.57 261.37 237.743 262.85 236.133 262.215C232.991 260.976 218.463 261.072 212.293 261.046C212.376 261.046 206.661 261.987 206.788 261.996ZM285.082 358.565C285.296 358.421 285.533 362.562 285.581 362.405C284.776 365.076 281.546 367.366 280.387 366.748C275.342 364.038 280.68 361.498 285.082 358.565ZM270.007 372.37C269.228 373.005 266.41 374.437 266.799 374.226C264.935 375.268 262.769 375.85 260.625 375.5C258.704 375.137 259.496 373.49 259.912 373.433C265.316 372.719 266.353 369.659 269.797 368.31C270.799 368.555 271 370.074 270.86 370.517C270.764 370.845 270.532 371.725 270.007 372.369V372.37Z" fill="#F5F3EE"/>
<path d="M238.513 172.964L235.739 241.249L260.809 241.166L257.002 172.965C284.872 173.534 294.105 181.174 300.227 196.871L299.374 197.44C292.198 187.659 299.116 205.689 299.116 205.689C300.376 214.306 303.514 219.599 304.503 241.447C306.59 258.654 301.934 305.003 301.934 305.003C304.826 306.859 308.192 279.39 308.192 279.39C309.47 265.454 306.048 216.889 300.797 202.274L302.219 200.566C302.219 200.566 307.951 215.536 309.894 231.017C313.023 232.151 313.596 234.717 315.871 245.247C315.398 254.196 313.596 241.543 313.596 241.543C313.596 241.543 314.668 245.663 314.165 243.815C310.419 233.793 311.036 240.689 311.036 240.689C313.482 259.201 312.743 279.958 312.743 279.958C310.739 293.019 314.445 279.389 314.445 279.389C316.195 270.505 316.436 267.436 316.436 267.436C315.653 249.87 318.431 268.29 318.431 268.29C316.029 299.564 296.193 322.301 295.969 322.634C296.507 328.645 292.674 336.566 290.32 340.721C296.534 352.582 292.74 359.649 292.74 359.649C291.974 365.822 285.397 368.935 281.853 371.313C272.887 379.382 258.227 382.036 246.767 380.578C245.354 383.069 241.433 384.571 241.433 384.571C239.258 385.311 238.221 380.556 238.221 380.556C242.124 379.479 244.339 378.476 244.339 378.476C236.668 369.951 256.154 364.991 261.444 361.851C266.686 359.561 269.828 356.737 271.264 353.821C275.119 345.476 283.096 339.911 285.298 338.746C287.989 336.32 289.109 331.25 289.109 331.25C296.749 307.721 298.937 278.338 295.651 263.64C294.124 252.016 290.807 249.844 284.055 248.211C267.553 245.203 223.567 246.184 205.14 247.357C187.65 263.574 195.04 307.38 204.357 326.369C206.755 329.486 207.162 329.937 207.004 332.919C208.868 354.386 212.119 357.552 212.119 357.552C218.889 366.882 217.186 358.673 217.186 358.673C223.238 365.403 234.961 369.864 234.961 369.864C234.09 370.245 226.13 375.381 226.13 375.381C209.243 363.384 205.611 351.226 205.366 339.671C204.084 327.758 202.158 335.66 202.158 335.66C197.2 332.403 198.771 326.93 198.771 326.93C199.265 317.556 196.552 320.406 196.552 320.406L193.568 320.24C188.93 311.024 178.589 263.895 178.589 263.895C175.692 237.669 185.337 233.041 190.106 231.587C189.528 226.434 198.512 193.561 198.512 193.561C203.816 177.234 221.446 172.965 238.512 172.965L238.513 172.964ZM288.145 353.019C288.521 350.427 286.259 348.006 284.666 350.05C283.795 351.162 283.721 353.216 282.675 354.271C279.844 357.13 278.067 357.669 276.417 359.433C274.627 361.329 274.076 362.568 275.769 365.107C275.909 365.322 276.18 367.914 278.044 369.31C280.319 371.018 283.571 369.222 287.006 364.923C287.772 363.964 287.632 362.602 287.807 361.517C288.253 358.737 287.733 355.856 288.144 353.019H288.145ZM273.512 369.171L273.42 369.027C273.923 367.035 273.28 366.361 272.23 365.529C271.189 364.71 269.005 364.539 267.876 365.617C265.902 367.495 264.734 367.767 263.041 369.269C261.824 370.346 260.726 369.917 259.462 370.403C258.342 370.832 256.81 371.686 256.364 373.012C255.913 374.374 258.11 376.34 258.806 376.734C262.954 379.094 273.29 376.257 273.513 369.173L273.512 369.171Z" fill="#F5F3EE"/>
<path d="M279.398 268.127C279.551 268.131 277.14 266.297 275.066 265.119C274.116 264.58 270.152 267.273 269.185 267.374C265.102 267.803 262.757 268.009 258.451 268.118C257.392 268.144 255.869 268.162 255.235 267.177C254.841 266.573 254.907 265.399 255.362 264.817C256.662 263.149 259.213 265.995 260.784 261.765C260.775 261.783 265.65 261.564 267.142 261.494C272.24 261.262 279.753 261.301 279.079 261.91C279.696 261.354 280.681 264.117 281.705 264.826C283.622 266.153 283.075 264.397 283.937 267.081L283.88 268.145C283.862 268.43 283.517 269.695 283.364 269.831C283.211 269.967 281.329 269.292 281.045 269.284C281.189 269.284 279.251 268.119 279.4 268.128L279.398 268.127ZM254.867 271.538C254.819 272.387 254.753 273.67 254.618 274.021C254.526 274.253 253.476 273.925 253.555 274.406C252.636 269.283 257.843 269.804 254.868 271.538H254.867ZM251.905 283.136C252.881 280.833 253.703 277.457 253.703 289.638C253.703 292.865 251.239 292.199 251.581 289.314C251.966 286.127 252.583 286.591 251.905 283.136ZM285.81 300.579C285.779 301.288 285.876 302.05 285.631 302.685C285.508 303.009 285.167 303.447 284.804 303.451C284.467 303.46 283.964 303.232 283.85 302.996C283.636 302.536 284.108 301.932 284.528 301.652C285.084 301.289 285.526 301.249 285.81 300.579V300.579ZM255.174 296.135C254.763 296.117 254.443 295.758 254.461 295.347C254.483 294.927 254.837 294.603 255.257 294.629C255.673 294.655 255.992 295.006 255.97 295.426C255.948 295.838 255.589 296.157 255.174 296.135ZM282.095 275.863C280.997 276.415 280.034 276.292 278.984 276.883C280.625 275.968 270.114 275.386 274.083 275.753C271.256 275.49 268.95 274.882 266.009 274.899L265.462 275.188C264 275.534 263.235 274.404 262.141 273.695C261.38 273.205 260.697 273.717 259.992 273.621C260.141 273.345 259.738 273.161 259.848 272.991C260.027 272.702 260.526 272.549 260.714 272.523C261.979 272.361 263.453 272.47 264.661 272.055C268.919 270.575 272.24 272.602 276.603 272.462C277.973 272.423 279.863 272.147 281.15 273.053C281.413 273.241 281.408 273.688 281.601 273.832C282.17 274.261 283.198 273.998 283.531 274.353C284.214 275.08 282.857 275.483 282.096 275.864L282.095 275.863ZM277.916 282.041C276.415 282.142 274.967 281.708 273.439 281.765C273.006 281.783 272.586 281.494 272.166 281.397C270.599 281.029 268.91 280.736 267.571 281.633C266.425 282.408 264.998 282.482 264.118 281.996C263.545 281.676 264.131 280.652 264.814 280.415C265.746 280.082 266.875 280.524 267.952 280.38C268.77 280.275 269.527 279.662 270.311 279.999C272.6 280.98 274.818 281.619 277.299 281.619C277.535 281.619 277.64 281.978 277.916 282.039V282.041ZM262.115 278.004L262.089 278.433C260.588 277.535 259.048 279.322 257.639 278.704C256.939 278.398 257.236 277.277 257.28 276.467C257.831 276.756 258.173 277.347 258.733 277.566C259.726 277.978 260.68 277.045 261.722 277.347C261.529 277.754 262.168 277.662 262.116 278.004H262.115ZM137.187 190.122C140.841 185.612 144.123 188.139 141.213 190.761C139.012 192.744 143.147 197.21 145.838 196.133C147.978 195.279 150.533 198.699 149.912 199.982C148.254 203.375 151.43 206.922 153.881 205.744C155.233 205.1 158.064 207.342 157.106 209.334C155.653 212.355 158.642 215.766 161.985 214.08C165.56 212.267 163.534 217.154 163.534 217.154C145.427 232.443 118.979 203.275 137.187 190.122V190.122ZM141.02 174.084C144.547 175.98 141.501 181.159 139.182 180.612C136.679 180.021 138.596 179.509 138.596 179.509C140.928 179.851 143.046 176.111 140.123 174.89C139.012 174.426 141.02 174.084 141.02 174.084V174.084ZM358.074 187.727C376.68 200.297 350.46 232.662 331.889 217.946C331.889 217.946 329.456 213.835 333.337 214.829C336.339 215.595 339.573 212.894 338.063 209.934C337.162 208.165 339.861 205.529 341.179 206.247C343.564 207.547 346.483 202.775 344.964 200.358C344.054 198.913 346.491 194.85 348.911 196.387C350.745 197.552 354.412 191.952 353.449 189.001C352.591 186.365 355.037 184.57 358.074 187.727V187.727ZM353.116 172.324C353.116 172.324 355.138 172.604 354.039 173.108C350.083 174.907 352.451 178.253 355.706 177.679C355.706 177.679 357.64 178.121 355.159 178.791C351.833 179.689 348.569 174.951 353.115 172.324H353.116ZM229.444 308.241C232.192 304.751 233.894 306.463 234.008 306.77C233.64 305.763 233.26 308.867 231.431 311.122C231.904 310.535 225.62 315.623 226.285 315.553C233.155 314.844 239.268 316.862 244.782 316.849C248.169 316.845 251.748 315.238 254.987 316.324C257.227 317.086 259.319 317.208 261.415 316.963C262.316 316.862 262.977 316.28 264.041 316.468C263.761 317.015 267.362 316.547 266.955 316.665C268.609 316.188 266.272 318.084 262.439 318.521C260.474 318.744 259.288 317.264 253.088 317.606C247.916 317.886 243.947 318.828 239.65 317.948C237.208 317.453 234.845 316.656 232.43 316.691C228.426 316.744 224.628 318.394 222.545 317.707C222.571 317.133 222.554 316.358 222.698 316.161C223.538 314.979 225.245 314.322 226.186 313.407C229.464 310.228 228.09 309.961 229.446 308.241H229.444ZM236.844 325.934C241.566 325.54 250.414 327.935 254.549 326.442C254.523 326.867 258.023 325.347 257.932 327.046C257.809 329.388 252.099 328.929 250.594 328.587C246.476 327.654 245.01 328.955 236.486 328.696C236.123 328.687 232.184 329.326 231.064 326.275C230.762 325.469 233.248 325.321 236.845 325.933L236.844 325.934ZM264.824 311.179C264.96 310.842 265.599 310.912 265.494 310.356C266.479 310.706 266.566 311.945 266.102 312.396C265.507 312.978 264.382 312.278 264.824 311.179V311.179ZM262.973 308.92C262.54 308.644 262.089 308.233 261.708 308.141C260.242 307.791 259.061 306.976 257.551 306.74C257.183 306.679 257.013 306.026 257.63 305.729C258.571 305.269 259.586 305.747 260.549 306.062C261.809 306.482 262.002 308.006 263.03 308.632C263.336 308.816 264.15 308.925 263.927 309.354C263.699 309.792 262.851 309.604 262.759 308.912L262.973 308.921V308.92Z" fill="#403737"/>
<path d="M361.113 140.389C364.439 142.657 367.143 143.962 369.751 143.962C371.536 143.962 372.503 143.283 372.503 142.176C372.503 140.582 370.766 140.39 367.917 139.759C362.023 138.507 359.034 135.267 359.034 130.24C359.034 122.998 364.683 117.683 373.47 117.683C377.426 117.683 381.145 118.699 385.106 120.827L381.334 129.855C378.923 128.069 376.411 127.149 374.241 127.149C372.504 127.149 371.537 127.779 371.537 128.795C371.537 130.485 373.856 130.726 377.961 131.645C382.547 132.656 385.636 136.089 385.636 140.918C385.636 148.309 379.746 153.913 370.719 153.913C366.181 153.913 361.595 152.608 357.149 150.047L361.114 140.388L361.113 140.389ZM115.445 118.458H131.036C140.26 118.458 144.991 122.709 144.991 130.1C144.991 135.026 142.335 138.454 138.326 138.94L147.55 152.994H133.643L127.609 141.593V152.994H115.444V118.458H115.445ZM127.61 134.106H129.544C131.907 134.106 133.211 132.902 133.211 130.778C133.211 128.65 131.955 127.345 129.544 127.345H127.61V134.105V134.106ZM168.914 118.173H182.72L194.789 152.709H181.464L180.353 148.361H170.989L169.926 152.709H156.601L168.915 118.173H168.914ZM178.23 140.152L177.167 136.238C176.686 134.403 175.959 131.987 175.767 128.655H175.526C175.329 131.987 174.607 134.404 174.126 136.238L173.063 140.152H178.231H178.23ZM205.886 152.994V118.458H218.489V152.994H205.886ZM233.03 118.458H243.073C249.055 118.458 253.545 119.036 256.735 120.63C262.669 123.629 266.003 129.181 266.003 135.748C266.003 141.449 263.443 146.427 258.857 149.566C254.367 152.657 249.055 152.994 242.154 152.994H233.03V118.458V118.458ZM251.733 135.748C251.733 131.208 249.221 129.084 244.202 129.084H243.673V142.464C249.174 142.368 251.733 140.437 251.733 135.748ZM277.757 118.458H300.831V127.832H289.922V131.16H299.82V140H289.922V143.625H301.124V152.995H277.757V118.459V118.458ZM315.088 118.458H330.679C339.903 118.458 344.634 122.709 344.634 130.1C344.634 135.026 341.978 138.454 337.969 138.94L347.193 152.994H333.291L327.252 141.593V152.994H315.087V118.458H315.088ZM327.253 134.106H329.187C331.554 134.106 332.854 132.902 332.854 130.778C332.854 128.65 331.598 127.345 329.187 127.345H327.253V134.105V134.106Z" fill="#F5F3EE"/>
</svg>
