<svg width="200" height="200" viewBox="0 0 200 200" fill="none" xmlns="http://www.w3.org/2000/svg">
<path d="M104.1 119.5C103.7 119.5 103.4 119.5 103 119.5C102.9 119.6 102.8 119.7 102.7 119.8C102.8 121.7 102.8 123.6 102.7 125.5C102.8 125.6 102.9 125.7 103 125.8C103.4 125.8 103.7 125.8 104.1 125.8C104.2 125.7 104.3 125.6 104.4 125.5C104.6 123.6 104.6 121.7 104.4 119.8C104.3 119.7 104.2 119.6 104.1 119.5Z" fill="#403737"/>
<path d="M97.4 119.5C97 119.5 96.7 119.5 96.3 119.5C96.2 119.6 96.1 119.7 96 119.8C95.8 121.7 95.8 123.6 96 125.5C96.1 125.6 96.2 125.7 96.3 125.8C96.7 125.8 97 125.8 97.4 125.8C97.5 125.7 97.6 125.6 97.7 125.5C97.6 123.6 97.6 121.7 97.7 119.8C97.5 119.7 97.4 119.6 97.4 119.5Z" fill="#403737"/>
<path d="M100.7 119.5C100.3 119.5 100 119.5 99.6 119.5C99.5 119.6 99.4 119.7 99.3 119.8C99.3 121.7 99.3 123.6 99.3 125.5C99.4 125.6 99.5 125.7 99.6 125.8C100 125.8 100.3 125.8 100.7 125.8C100.8 125.7 100.9 125.6 101 125.5C101 123.6 101 121.7 101 119.8C100.9 119.7 100.8 119.6 100.7 119.5Z" fill="#403737"/>
<path d="M115.9 80C116.2 80 116.5 79.9 116.8 79.7C117 79.5 117.2 79.2 117.4 78.8L118.6 76.5C118.8 76.2 118.9 75.9 118.9 75.7C118.9 75.3 118.7 75.1 118.2 75.1C117.9 75.1 117.6 75.2 117.4 75.4C117.2 75.6 117 75.9 116.7 76.3L115.5 78.6C115.3 78.9 115.2 79.2 115.2 79.4C115.2 79.8 115.5 80 115.9 80Z" fill="#403737"/>
<path d="M167.7 98H155.6C155.9 97.4 156.1 96.9 156.1 96.2C156.1 95.3 155.1 94.7 153.3 94.7C151.1 94.7 150 95.6 150 96.6C150 97.5 151 97.8 156.2 99C161.4 100.2 163.3 101.4 163.3 104.2C163.3 106.5 162.3 108.9 160.3 110.9C157.8 113.4 154 115 144.8 115C133.8 115 130.6 113.2 130.6 109.4C130.6 108.3 130.8 107.1 131.5 105.9H143.8C143.4 106.6 143.3 107.2 143.3 107.9C143.3 108.9 144.2 109.5 146.1 109.5C148.2 109.5 149.4 108.7 149.4 107.4C149.4 106.2 148.3 105.9 142.8 104.5C137.6 103.2 136.1 102.2 136.1 99.4C136.1 97.5 137.1 95.2 139 93.3C141.7 90.6 145.5 89.2 154.5 89.2C164.5 89.2 168.2 90.8 168.2 94.6C168.4 95.8 168.2 96.8 167.7 98ZM118 113.6C116.8 112.7 115.4 111.9 113.8 111C110.8 109.4 107.8 108.6 105.3 108.2L111.8 95.9H103.5L106.8 89.6H138.2L134.9 95.9H127.4L118 113.6ZM106.2 125.5C106.3 125.6 106.4 125.7 106.4 125.8C106.8 125.8 107.1 125.8 107.5 125.8C107.6 125.7 107.7 125.6 107.9 125.5C108 124.9 108.1 124.3 108.2 123.8C109.3 123.8 110.4 123.8 111.5 123.7C115.1 123.6 118.6 123.5 122.2 123.2L122.8 123.9C122 126.6 118.6 129.9 113.3 132.7C108.5 135.2 103 135.9 100.3 135.9C100.3 135.9 100.3 135.9 100.2 135.9C97.5 135.9 92 135.2 87.2 132.7C81.9 129.9 78.5 126.7 77.7 123.9L78.3 123.2C81.9 123.4 85.4 123.6 89 123.7C90.2 123.7 91.5 123.8 92.7 123.8C92.7 124.4 92.8 124.9 93 125.5C93.1 125.6 93.2 125.7 93.4 125.8C93.8 125.8 94.1 125.8 94.5 125.8C94.6 125.7 94.7 125.6 94.7 125.5C94.4 123.6 94.4 121.8 94.7 119.9C94.6 119.8 94.5 119.7 94.5 119.6C94.1 119.6 93.8 119.6 93.4 119.6C93.3 119.7 93.2 119.8 93 119.9C92.9 120.5 92.8 121 92.7 121.6C91.5 121.6 90.2 121.6 89 121.7C85.4 121.8 81.9 121.9 78.3 122.2L77.7 121.4C77.7 121.3 77.7 121.3 77.7 121.2C78.5 118.5 81.9 115.2 87.2 112.4C92 109.8 97.5 109.2 100.2 109.2C100.2 109.2 100.2 109.2 100.3 109.2C103.1 109.2 108.5 109.9 113.3 112.4C118.6 115.2 122 118.5 122.8 121.2C122.8 121.3 122.8 121.4 122.8 121.5L122.2 122.3C118.6 122.1 115.1 121.9 111.5 121.8C110.4 121.8 109.3 121.7 108.2 121.7C108.2 121.1 108.1 120.5 107.9 120C107.8 119.9 107.7 119.8 107.5 119.7C107.1 119.7 106.8 119.7 106.4 119.7C106.3 119.8 106.2 119.9 106.2 120C106.5 121.7 106.5 123.6 106.2 125.5ZM75.1 89.7H104.3L101 95.9H86L84.3 98.9H99.4L96.2 104.9H81.2L79.5 108H95L94.9 108.1C92.4 108.5 89.2 109.4 86.2 111C84.3 112 82.6 113.1 81.2 114.2H62L75.1 89.7ZM45.7 114.9C35.7 114.9 31.6 112.5 31.6 108C31.6 105.7 32.2 104.1 33.5 101.6L35.1 98.6H48L44.8 104.7C44.4 105.5 44.1 106.3 44.1 106.9C44.1 107.8 44.5 108.4 45.7 108.4C47.4 108.4 48.2 107.3 49.3 105.2L57.5 89.5H72.6L65.7 102.6C63.7 106.3 62.5 108.3 60.6 110.3C57.7 113.4 52.9 114.9 45.7 114.9ZM50.3 73H55.3L56.2 76.9L58.2 73H62.6L57.8 82H53L52.1 77.8L49.9 82H45.5L50.3 73ZM75.4 73L74.2 75.3H68.7L68 76.4H73.1L72 78.6H66.9L66.3 79.7H72L70.8 82H59.8L64.6 73H75.4V73ZM81.6 73L80.5 77.2L83.6 73H88.7L87.5 77.2L90.8 73H95.7L87.6 82H82.2L83 78.5L80 82H74.6L76.3 73H81.6ZM99.4 73H104.9L104.8 75.8L107.6 73H112.7L105.5 79.2L104 82H98.3L99.9 79L99.4 73ZM123 73.5C123.9 73.9 124.3 74.6 124.3 75.4C124.3 76 124.1 76.8 123.7 77.7C123.1 79 122.4 80 121.8 80.6C120.6 81.8 118.6 82.3 115.7 82.3C113.6 82.3 112.1 82.1 111.2 81.6C110.3 81.2 109.9 80.5 109.9 79.7C109.9 79.1 110.1 78.3 110.5 77.4C111.1 76.1 111.8 75.1 112.4 74.5C113.6 73.3 115.6 72.8 118.5 72.8C120.5 72.8 122 73 123 73.5ZM135.8 73C136.9 73 137.7 73.2 138.1 73.6C138.4 73.9 138.6 74.4 138.6 74.9C138.6 75.8 138.3 76.5 137.7 77.2C137.4 77.5 137 77.8 136.7 77.9C136.4 78 135.9 78.2 135.3 78.3C136.2 78.6 136.6 79 136.6 79.5C136.6 79.8 136.5 80.2 136.3 80.6L135.6 82H130L130.9 80.2C131 80 131.1 79.8 131.1 79.6C131.1 79.2 130.9 79 130.4 79H129.6L128 81.9H122.6L127.4 72.9H135.8V73ZM147.5 73L145.3 77.1L149.8 73H154.9L149.9 77.4L150.5 82H145.1L144.8 78L142.7 82H137.1L141.9 73H147.5ZM189.5 95.3C186.3 84.6 172.3 71.9 152.1 61.2C134.2 51.8 113.1 48.5 100.4 48.5C100.3 48.5 100.2 48.5 100.2 48.5H100C99.9 48.5 99.9 48.5 99.8 48.5C87 48.5 65.8 51.8 48 61.2C27.7 71.8 13.8 84.5 10.5 95.3C10.2 96.8 10.1 98.4 10.1 100C10.1 101.6 10.2 103.2 10.5 104.7C13.7 115.4 27.7 128.1 47.9 138.8C65.9 148.3 87.1 151.6 99.9 151.5H100.1C100.2 151.5 100.2 151.5 100.3 151.5C113 151.5 134.2 148.2 152 138.8C172.2 128.2 186.2 115.5 189.4 104.7C189.7 103.2 189.8 101.6 189.8 100V100C189.9 98.4 189.7 96.8 189.5 95.3Z" fill="#403737"/>
<path d="M132.6 76.7L132.8 76.3C132.9 76.1 132.9 75.9 132.9 75.8C132.9 75.5 132.7 75.4 132.3 75.4H131.5L130.3 77.5H131.3C131.9 77.4 132.3 77.2 132.6 76.7Z" fill="#403737"/>
<path d="M86.2 111.1C89.3 109.5 92.4 108.6 94.9 108.2L95 108H79.5L81.2 104.9H96.3L99.5 98.9H84.4L86.1 95.9H101.1L104.4 89.7H75.1L62 114.3H81.1C82.6 113.2 84.3 112.1 86.2 111.1ZM72.6 89.7H57.5L49.3 105.4C48.2 107.5 47.3 108.6 45.7 108.6C44.6 108.6 44.1 108 44.1 107.1C44.1 106.5 44.4 105.6 44.8 104.9L48 98.8H35.1L33.5 101.8C32.1 104.3 31.6 105.9 31.6 108.2C31.6 112.7 35.7 115.1 45.7 115.1C52.9 115.1 57.7 113.6 60.6 110.7C62.6 108.7 63.8 106.7 65.7 103L72.6 89.7ZM154.7 89.1C145.6 89.1 141.9 90.5 139.2 93.2C137.3 95.1 136.3 97.4 136.3 99.3C136.3 102.1 137.8 103.1 143 104.4C148.5 105.8 149.6 106.1 149.6 107.3C149.6 108.6 148.4 109.4 146.3 109.4C144.4 109.4 143.5 108.8 143.5 107.8C143.5 107.1 143.7 106.5 144 105.8H131.7C131.1 107.1 130.8 108.2 130.8 109.3C130.8 113.1 134 114.9 145 114.9C154.3 114.9 158 113.3 160.5 110.8C162.5 108.8 163.5 106.5 163.5 104.1C163.5 101.3 161.6 100.1 156.4 98.9C151.2 97.7 150.2 97.3 150.2 96.5C150.2 95.5 151.3 94.6 153.5 94.6C155.3 94.6 156.3 95.2 156.3 96.1C156.3 96.8 156.1 97.3 155.8 97.9H167.9C168.4 96.7 168.6 95.7 168.6 94.4C168.4 90.7 164.8 89.1 154.7 89.1ZM104.4 125.5C104.3 125.6 104.2 125.7 104.1 125.8C103.7 125.8 103.4 125.8 103 125.8C102.9 125.7 102.8 125.6 102.7 125.5C102.8 123.6 102.8 121.7 102.7 119.8C102.8 119.7 102.9 119.6 103 119.5C103.4 119.5 103.7 119.5 104.1 119.5C104.2 119.6 104.3 119.7 104.4 119.8C104.6 121.7 104.6 123.6 104.4 125.5ZM101 125.5C100.9 125.6 100.8 125.7 100.7 125.8C100.3 125.8 100 125.8 99.6 125.8C99.5 125.7 99.4 125.6 99.3 125.5C99.3 123.6 99.3 121.7 99.3 119.8C99.4 119.7 99.5 119.6 99.6 119.5C100 119.5 100.3 119.5 100.7 119.5C100.8 119.6 100.9 119.7 101 119.8C101.1 121.7 101.1 123.6 101 125.5ZM97.6 125.5C97.5 125.6 97.4 125.7 97.3 125.8C96.9 125.8 96.6 125.8 96.2 125.8C96.1 125.7 96 125.6 95.9 125.5C95.7 123.6 95.7 121.7 95.9 119.8C96 119.7 96.1 119.6 96.2 119.5C96.6 119.5 96.9 119.5 97.3 119.5C97.4 119.6 97.5 119.7 97.6 119.8C97.5 121.7 97.5 123.6 97.6 125.5ZM107.5 119.6C107.6 119.7 107.7 119.8 107.9 119.9C108 120.5 108.1 121.1 108.2 121.6C109.3 121.6 110.4 121.6 111.5 121.7C115.1 121.8 118.6 121.9 122.2 122.2L122.8 121.4C122.8 121.3 122.8 121.2 122.8 121.1C122 118.4 118.6 115.1 113.3 112.3C108.5 109.8 103 109.1 100.3 109.1C100.3 109.1 100.3 109.1 100.2 109.1C97.5 109.1 92 109.8 87.2 112.3C81.9 115.1 78.5 118.4 77.7 121.1C77.7 121.2 77.7 121.2 77.7 121.3L78.3 122.1C81.9 121.9 85.4 121.7 89 121.6C90.2 121.6 91.5 121.5 92.7 121.5C92.7 120.9 92.8 120.4 93 119.8C93.1 119.7 93.2 119.6 93.4 119.5C93.8 119.5 94.1 119.5 94.5 119.5C94.6 119.6 94.7 119.7 94.7 119.8C94.4 121.7 94.4 123.5 94.7 125.4C94.6 125.5 94.5 125.6 94.5 125.7C94.1 125.7 93.8 125.7 93.4 125.7C93.3 125.6 93.2 125.5 93 125.4C92.9 124.8 92.8 124.3 92.7 123.7C91.5 123.7 90.2 123.7 89 123.6C85.4 123.5 81.9 123.4 78.3 123.1L77.7 123.8C78.5 126.5 81.9 129.8 87.2 132.6C92 135.2 97.5 135.8 100.2 135.8C100.2 135.8 100.2 135.8 100.3 135.8C103.1 135.8 108.5 135.1 113.3 132.6C118.6 129.8 122 126.5 122.8 123.8L122.2 123.1C118.6 123.3 115.1 123.5 111.5 123.6C110.4 123.6 109.3 123.7 108.2 123.7C108.2 124.3 108.1 124.9 107.9 125.4C107.8 125.5 107.7 125.6 107.5 125.7C107.1 125.7 106.8 125.7 106.4 125.7C106.3 125.6 106.2 125.5 106.2 125.4C106.5 123.5 106.5 121.7 106.2 119.8C106.3 119.7 106.4 119.6 106.4 119.5C106.7 119.6 107.1 119.6 107.5 119.6ZM189.9 100C189.9 101.6 189.8 103.2 189.5 104.7C186.3 115.4 172.3 128.1 152.1 138.8C134.2 148.2 113.1 151.5 100.4 151.5C100.3 151.5 100.3 151.5 100.2 151.5H100C87.3 151.5 66 148.2 48 138.8C27.8 128.2 13.8 115.5 10.6 104.7C10.3 103.2 10.2 101.6 10.2 100C10.2 98.4 10.3 96.8 10.6 95.3C13.8 84.5 27.7 71.8 48 61.2C65.9 51.8 87 48.5 99.7 48.5C99.8 48.5 99.8 48.5 99.9 48.5H100.1C100.2 48.5 100.3 48.5 100.3 48.5C113 48.5 134.1 51.8 152 61.2C172.2 71.8 186.2 84.5 189.4 95.3C189.7 96.8 189.9 98.4 189.9 100ZM194.5 94.2L194.4 93.9C190.8 81.7 176.2 68.1 154.4 56.6C135.7 46.8 113.6 43.3 100.3 43.3C100.2 43.3 100.1 43.3 100.1 43.3H99.9C99.8 43.3 99.8 43.3 99.7 43.3C86.4 43.3 64.3 46.8 45.6 56.6C23.7 68.1 9.2 81.7 5.6 93.9L5.5 94.2C5.2 96.1 5 98 5 100C5 102 5.2 103.9 5.5 105.8L5.6 106.1C9.2 118.3 23.8 131.9 45.6 143.4C64.3 153.2 86.4 156.7 99.7 156.7C99.8 156.7 99.9 156.7 99.9 156.7H100.1C100.2 156.7 100.2 156.7 100.3 156.7C113.6 156.7 135.7 153.2 154.4 143.4C176.2 131.9 190.8 118.3 194.4 106.1L194.5 105.8C194.9 103.9 195 101.9 195 100C195 98 194.8 96.1 194.5 94.2ZM52.1 77.9L53 82.1H57.7L62.5 73.1H58.1L56.1 77L55.3 73H50.3L45.5 82H49.9L52.1 77.9ZM138.3 89.7H106.9L103.6 96H111.9L105.4 108.3C107.9 108.8 110.9 109.6 113.9 111.1C115.4 111.9 116.8 112.8 118.1 113.7L127.5 96.1H135L138.3 89.7ZM142.7 82.1L144.8 78.1L145.1 82.1H150.5L149.9 77.5L154.9 73.1H149.8L145.3 77.2L147.5 73.1H142L137.2 82.1H142.7ZM70.7 82.1L71.9 79.8H66.2L66.8 78.7H72L73.2 76.5H68L68.6 75.4H74.1L75.3 73.1H64.6L59.8 82.1H70.7V82.1ZM103.9 82.1L105.4 79.3L112.6 73.1H107.5L104.7 75.9L104.8 73.1H99.3L99.7 79.2L98.1 82.2H103.9V82.1ZM115.5 78.5L116.7 76.2C116.9 75.8 117.1 75.5 117.4 75.3C117.6 75.1 117.9 75 118.2 75C118.7 75 118.9 75.2 118.9 75.6C118.9 75.8 118.8 76.1 118.6 76.4L117.4 78.7C117.2 79.1 117 79.4 116.8 79.6C116.6 79.8 116.3 79.9 115.9 79.9C115.4 79.9 115.2 79.7 115.2 79.3C115.2 79.2 115.3 78.9 115.5 78.5ZM110.5 77.4C110.1 78.3 109.9 79 109.9 79.7C109.9 80.6 110.3 81.2 111.2 81.6C112.1 82 113.6 82.3 115.7 82.3C118.6 82.3 120.6 81.7 121.8 80.6C122.4 80 123.1 79 123.7 77.7C124.1 76.8 124.3 76.1 124.3 75.4C124.3 74.5 123.9 73.9 123 73.5C122.1 73.1 120.6 72.8 118.5 72.8C115.6 72.8 113.6 73.4 112.4 74.5C111.8 75.2 111.1 76.1 110.5 77.4ZM80.1 82.1L83.1 78.6L82.3 82.1H87.7L95.8 73.1H90.9L87.6 77.3L88.8 73.1H83.7L80.6 77.3L81.7 73.1H76.5L74.8 82.1H80.1ZM131.6 75.3H132.4C132.8 75.3 133 75.4 133 75.7C133 75.8 133 76 132.9 76.2L132.7 76.6C132.4 77.1 132.1 77.4 131.6 77.4H130.6L131.6 75.3ZM128 82.1L129.6 79.2H130.4C130.9 79.2 131.1 79.4 131.1 79.8C131.1 80 131 80.2 130.9 80.4L130 82.2H135.5L136.2 80.8C136.4 80.4 136.5 80 136.5 79.7C136.5 79.1 136.1 78.7 135.2 78.5C135.8 78.4 136.2 78.3 136.6 78.1C137 77.9 137.3 77.7 137.6 77.4C138.2 76.8 138.5 76 138.5 75.1C138.5 74.5 138.3 74.1 138 73.8C137.6 73.4 136.8 73.2 135.7 73.2H127.3L122.5 82.2H128V82.1Z" fill="#F5F3EE"/>
</svg>
