<svg width="500" height="500" viewBox="0 0 500 500" fill="none" xmlns="http://www.w3.org/2000/svg">
<path d="M366.436 339.102C356.686 353.863 347.413 367.472 339.866 378.39C348.599 385.615 348.077 394.718 348.077 396.445C347.909 406.124 342.76 413.349 338.044 417.572C332.178 422.575 324.162 425.001 315.703 425.063C315.455 425.063 309.403 424.877 307.324 424.399C306.43 425.709 304.705 427.303 301.9 428.446C301.591 429.331 301.166 430.217 300.608 431.058C298.299 434.529 294.468 436.459 290.566 436.459C290.566 436.459 286.611 436.344 283.877 434.459C280.373 432.147 278.444 428.304 278.444 424.39V424.284C278.453 422.416 278.904 420.521 279.807 418.803C279.4 417.838 277.976 412.073 277.976 412.073L281.701 408.788C282.002 408.611 282.922 407.221 283.957 403.67C285.054 400.208 286.364 395.063 289.106 389.069C292.601 381.454 297.449 373.573 300.989 368.119C300.644 366.375 298.812 365.569 297.494 365.25C296.016 364.852 294.194 363.993 292.744 362.301C291.221 360.53 290.054 358.033 290.708 354.81C291.354 351.631 293.345 349.338 295.672 348.266V348.257C298.309 346.885 301.565 347.54 301.565 347.54C309.324 348.257 315.058 355.465 315.058 355.465C322.782 344.68 340.752 317.93 341.132 317.346C317.579 321.853 293.248 322.464 273.04 319.108C236.295 313.007 208.027 293.429 189.765 284.504C171.503 275.587 136.714 266.449 100.828 275.587C64.95 284.725 41.256 317.806 41.256 317.806C51.971 242.258 98.731 229.525 103.217 228.25C110.03 221.866 118.966 202.386 97.802 189.245C90.573 184.756 84.504 179.071 84.504 179.071C88.937 179.593 99.333 178.221 105.102 175.936C112.03 173.2 118.4 172.288 118.4 172.288C112.932 167.073 104.58 164.46 104.58 164.46C112.923 163.938 125.965 161.069 134.043 157.412C142.121 153.764 146.554 147.238 145.244 144.369C143.943 141.491 136.644 143.067 136.644 143.067C139.254 139.153 145.509 137.586 145.509 137.586C127.522 136.541 114.418 146.343 114.418 146.343C116.418 142.048 122.991 134.327 122.991 134.327C120.496 135.15 113.586 137.311 113.152 137.444C141.314 115.679 172.75 96.544 216.794 96.261C260.829 95.969 303.732 115.724 332.319 124.879C360.924 134.035 376.098 138.657 406.985 134.088C421.77 131.892 434.715 125.827 444.199 120.142C444.199 120.142 450.835 103.256 451.34 79.012C451.34 79.012 459.293 93.286 459.329 115.511C459.409 191.785 422.478 247.49 410.675 267.768C399.394 287.717 384.565 311.607 366.436 339.1V339.102ZM447.649 59.002C447.649 59.002 448.65 77.34 445.189 94.128C441.845 110.35 440.004 116.53 440.004 116.53C432.926 120.683 421.468 125.792 404.719 128.581C373.46 133.796 345.094 125.393 314.127 113.227C283.151 101.061 241.708 87.956 203.256 92.374C165.972 96.66 139.296 111.775 125.113 121.63C110.93 131.476 108.32 134.08 96.163 137.56C96.163 137.56 105.719 141.323 110.638 141.323C110.638 141.323 108.32 150.895 109.187 154.074C109.187 154.074 129.448 144.803 131.766 149.151C134.084 153.499 124.529 156.403 117.875 158.13C111.222 159.874 93.845 159.573 93.845 159.573C93.845 159.573 101.994 165.886 104.869 170.269C104.869 170.269 89.509 176.963 72.424 174.643C72.424 174.643 71.858 180.974 85.899 191.343C82.908 192.414 79.122 194.15 76.777 196.656C76.777 196.656 91.491 193.619 100.737 203.926C103.17 206.981 103.966 209.717 103.692 213.17C103.188 219.43 100.79 221.821 94.897 225.717C91.526 227.089 87.943 228.807 84.483 230.924C68.212 240.93 56.312 256.16 47.96 273.559C44.341 281.094 41.448 289.852 39.404 297.794C37.36 305.781 36.608 312.874 36.13 317.301C35.652 321.719 34.997 335.648 34.997 335.648C34.997 335.648 42.296 325.412 45.72 320.507C49.126 315.619 70.715 288.453 102.16 280.581C112.22 278.022 122.236 276.951 131.809 276.951C154.822 276.933 175.375 283.185 187.541 289.144C205.201 297.698 234.213 317.886 272.249 324.2C281.204 325.679 290.856 326.414 300.863 326.414C310.463 326.414 320.399 325.714 330.326 324.36C324.717 332.737 319.337 340.564 314.223 347.816C309.038 342.875 302.004 342.362 302.004 342.362C293.475 341.556 289.202 346.754 289.202 346.754C287.476 348.622 286.184 351.049 285.68 353.909C285.078 356.557 285.795 359.639 286.291 361.205C287.918 366.376 292.333 368.731 294.05 369.484C281.584 386.104 277.965 405.24 277.965 405.248L272.276 410.269L274.329 418.592C271.162 428.801 276.134 436.461 282.584 439.631C289.131 442.854 295.245 440.986 295.245 440.986C299.094 439.906 302.58 437.48 304.951 433.92C305.315 433.38 305.632 432.831 305.915 432.282C307.242 431.565 308.384 430.759 309.357 429.891C311.153 430.095 315.754 430.236 315.754 430.236C325.186 430.156 334.405 427.482 341.439 421.505C346.978 416.546 353.074 408.09 353.286 396.535C353.286 394.366 353.684 385.617 346.464 377.993C392.022 311.052 421.599 267.956 440.48 224.108C490.505 107.882 447.832 59.42 447.647 59.004L447.649 59.002Z" fill="#F5F3EE"/>
<path d="M297.486 399.154L297.459 399.216L297.45 399.243L297.477 399.19L297.486 399.155V399.154ZM388.476 294.368C368.427 303.719 322.163 319.223 276.092 310.616C260.06 307.623 238.958 302.611 211.052 285.681C192.746 274.586 172.98 263.978 126.901 264.182C88.732 264.368 64.215 281.679 56.411 288.116C77.124 220.484 138.35 230.375 138.35 230.375C127.175 225.009 113.762 227.063 113.762 227.063C132.944 196.86 102.039 182.719 102.039 182.719C104.64 182.719 116.372 179.328 122.362 177.238C128.361 175.157 139.367 173.714 139.367 173.714C135.527 170.181 123.662 167.33 123.662 167.33C134.872 167.33 145.02 161.893 152.081 154.535C154.541 151.976 161.274 139.163 153.638 134.196C146.613 129.627 132.678 134.701 132.669 134.71C132.687 134.692 174.386 89.728 260.439 108.943C301.262 118.063 347.28 141.989 389.766 142.245C404.046 142.334 435.553 137.694 454.354 118.754C453.363 154.739 446.665 205.14 388.474 294.369L388.476 294.368ZM334.31 373.546L334.133 373.413C333.045 372.421 331.639 371.226 330.081 369.924C332.62 366.302 361.712 323.012 370.241 309.588C373.224 308.534 376.125 307.383 378.991 306.179C373.223 315.308 341.751 362.769 334.31 373.545V373.546ZM332.788 411.444C328.842 414.888 322.135 417.084 315.128 416.952C308.881 416.828 304.493 415.819 300.52 413.658L300.485 413.791C300.174 414.057 299.546 415.5 294.955 416.182C291.875 416.687 290.089 416.067 289.902 416.005C295.317 421.486 300.218 418.033 300.218 418.033C300.449 418.989 300.784 419.671 300.784 419.671C300.784 419.671 299.157 422.063 294.201 421.238C293.599 421.141 293.086 420.972 292.582 420.786L292.865 420.937C294.767 422.186 295.28 424.745 294.034 426.639C292.768 428.543 290.22 429.056 288.318 427.808C286.424 426.551 285.902 423.992 287.158 422.097C288.184 420.539 290.06 419.928 291.75 420.432C288.034 418.643 287.078 414.907 287.078 414.907C291.829 410.692 291.679 403.059 296.527 392.452C296.748 391.965 296.996 391.469 297.235 390.973L297.217 391.026C296.164 393.665 295.155 398.198 295.571 401.501C295.659 402.218 295.802 402.873 295.969 403.511V403.52C296.04 403.812 297.668 410.409 302.118 409.338L301.419 410.905C303.366 412.118 307.825 414.234 315.416 414.332C326.078 414.474 331.908 407.453 333.51 402.228C334.767 398.164 332.82 393.648 328.803 389.69C329.98 388.326 330.696 386.424 329.909 383.802C330.272 385.015 327.998 387.176 325.6 386.963C325.379 386.945 325.166 386.91 324.945 386.848C321.326 385.839 317.203 381.429 313.708 378.817C310.231 376.205 309.213 372.158 309.284 369.289C309.337 366.42 308.364 363.02 305.63 360.443C302.896 357.867 300.446 357.618 299.667 357.415C298.88 357.203 298.658 356.715 298.738 356.193C298.898 355.334 300.004 355.493 300.004 355.493C306.64 356.821 311.487 363.401 312.558 365.331C313.549 367.102 324.025 375.293 328.077 378.879C329.97 380.26 338.172 386.556 339.641 393.011C341.384 400.715 336.722 408.011 332.784 411.446L332.788 411.444ZM320.967 393.929C322.268 394.575 324.134 395.842 325.01 397.675C325.24 398.162 325.346 398.631 325.346 399.154C325.48 401.297 322.975 404.431 320.754 405.255C319.144 405.919 317.011 406.247 314.95 406.238C314.295 406.238 313.649 406.211 313.021 406.149C313.605 405.166 314.313 403.971 315.1 402.687C316.87 399.792 319.065 396.418 320.966 393.93L320.967 393.929ZM302.493 381.187C304.246 378.212 306.085 375.29 307.952 372.385L308.217 371.987C308.137 372.598 307.925 375.918 309.04 379.212C309.686 380.788 310.712 382.382 312.331 383.87C313.782 385.207 314.994 386.278 316.003 387.12C311.102 393.46 304.156 405.316 304.156 405.316C301.183 405.493 299.697 404.51 298.017 400.924C297.777 400.41 297.591 399.844 297.45 399.25V399.241C296.565 395.549 297.37 390.794 297.389 390.661C297.512 390.413 300.812 384.038 302.493 381.187V381.187ZM351.465 315.122C355.535 314.13 359.561 313.05 363.516 311.81L363.861 311.695C359.818 317.831 327.983 363.415 325.789 366.373C325.612 366.231 320.144 361.547 319.95 361.379C328.062 350.098 351.005 315.822 351.465 315.122ZM451.339 79.012C450.834 103.256 444.198 120.142 444.198 120.142C434.714 125.827 421.769 131.892 406.984 134.088C376.097 138.657 360.923 134.035 332.318 124.879C303.731 115.723 260.828 95.968 216.793 96.261C172.749 96.544 141.313 115.679 113.151 137.444C113.585 137.311 120.495 135.151 122.99 134.327C122.99 134.327 116.416 142.048 114.417 146.343C114.417 146.343 127.52 136.541 145.508 137.586C145.508 137.586 139.253 139.153 136.643 143.067C136.643 143.067 143.942 141.491 145.243 144.369C146.552 147.238 142.12 153.764 134.042 157.412C125.964 161.069 112.922 163.938 104.579 164.46C104.579 164.46 112.931 167.072 118.399 172.288C118.399 172.288 112.029 173.2 105.101 175.936C99.332 178.221 88.936 179.593 84.503 179.071C84.503 179.071 90.573 184.756 97.801 189.245C118.965 202.385 110.029 221.866 103.216 228.25C98.73 229.525 51.97 242.258 41.255 317.806C41.255 317.806 64.949 284.725 100.827 275.587C136.713 266.449 171.503 275.587 189.764 284.504C208.026 293.43 236.294 313.007 273.039 319.108C293.247 322.464 317.579 321.853 341.131 317.346C340.751 317.93 322.781 344.68 315.057 355.465C315.057 355.465 309.324 348.257 301.564 347.54C301.564 347.54 298.308 346.885 295.671 348.257V348.266C293.344 349.337 291.353 351.631 290.707 354.81C290.053 358.033 291.22 360.53 292.743 362.301C294.193 363.992 296.016 364.851 297.493 365.25C298.811 365.569 300.643 366.375 300.988 368.119C297.449 373.573 292.6 381.454 289.105 389.069C286.362 395.064 285.053 400.208 283.956 403.67C282.921 407.221 282.001 408.611 281.7 408.788L277.975 412.073C277.975 412.073 279.399 417.837 279.806 418.803C278.904 420.521 278.452 422.416 278.443 424.284V424.39C278.443 428.304 280.372 432.147 283.876 434.459C286.61 436.344 290.565 436.459 290.565 436.459C294.467 436.459 298.298 434.529 300.607 431.058C301.164 430.217 301.59 429.331 301.899 428.446C304.704 427.304 306.429 425.71 307.323 424.399C309.402 424.877 315.454 425.063 315.702 425.063C324.16 425.001 332.176 422.575 338.043 417.572C342.759 413.348 347.908 406.124 348.076 396.445C348.076 394.718 348.598 385.616 339.865 378.39C347.412 367.472 356.685 353.863 366.435 339.102C384.564 311.608 399.393 287.718 410.674 267.77C422.477 247.492 459.407 191.787 459.328 115.513C459.293 93.288 451.339 79.014 451.339 79.014V79.012ZM297.458 399.215L297.449 399.242L297.476 399.189L297.485 399.154L297.458 399.216V399.215Z" fill="#403737"/>
<path d="M358.182 245.313C337.584 259.897 305.334 264.351 305.334 264.351C304.971 265.75 302.839 267.22 302.839 267.22C302.839 267.22 306.139 268.442 314.244 274.543C322.34 280.644 320.145 280.343 322.729 282.087C325.313 283.823 326.781 283.336 326.781 283.336C327.56 284.903 327.658 287.232 327.658 287.232C328.737 288.25 334.019 293.297 329.108 298.522C324.189 303.746 318.508 298.894 318.508 298.894C316.5 299.319 314.544 298.655 314.544 298.655C314.544 298.655 304.033 305.278 293.593 298.062C285.098 292.2 285.611 285.249 286.108 282.85C283.24 284.497 280.161 285.781 277.004 286.773C268.483 289.447 257.609 290.554 246.806 286.959C239.71 284.568 233.835 280.424 229.199 275.829C224.554 271.225 221.121 266.142 218.883 261.564C218.547 260.864 218.228 260.174 217.945 259.501C217.202 261.272 213.645 267.994 202.63 267.514C189.951 266.965 185.554 255.339 185.554 255.339C185.554 255.339 183.599 254.684 182.254 253.143C182.254 253.143 174.804 253.586 174.026 246.449C173.256 239.312 180.52 238.48 181.998 238.32C181.998 238.32 183.467 236.514 185.033 235.734C185.033 235.734 185.918 237.018 189.023 237.186C192.129 237.354 190.2 236.265 200.339 236.292C210.479 236.31 213.841 237.337 213.841 237.337C213.841 237.337 213.027 234.875 213.584 233.538C213.584 233.538 190.553 210.516 182.918 186.449C175.282 162.382 177.618 153.456 186.891 128.079C186.891 128.079 193.766 171.316 214.868 198.483C226.91 213.988 240.456 226.074 249.878 233.601L250.524 233.61C248.516 231.37 246.985 228.74 246.224 225.729C244.339 218.291 241.252 211.376 239.836 205.868C238.42 200.352 241.57 189.327 241.57 189.327C237.341 182.544 239.402 171.379 239.402 171.379C239.402 171.379 241.694 170.29 243.437 168.174C245.171 166.049 244.57 159.78 245.985 150.553C247.401 141.326 253.399 131.781 266.689 126.353C279.908 120.952 299.762 128.035 299.939 128.097C300.116 128.15 320.227 134.481 327.517 146.772C334.843 159.124 333.87 170.37 329.437 178.578C325.005 186.795 320.74 191.426 320.855 194.171C320.961 196.907 322.138 199.156 322.138 199.156C322.138 199.156 317.059 209.312 309.583 212.181C309.583 212.181 305.451 222.869 300.992 226.41C296.55 229.952 289.915 233.6 283.925 238.399C281.563 240.294 278.846 241.463 275.953 242.056L276.528 242.481C288.57 242.162 306.584 240.701 325.438 235.627C358.644 226.684 390.186 196.348 390.186 196.348C382.295 222.186 378.772 230.722 358.185 245.314L358.182 245.313ZM389.768 142.245C347.281 141.988 301.264 118.063 260.441 108.943C174.388 89.728 132.689 134.692 132.671 134.71C132.68 134.701 146.615 129.627 153.64 134.196C161.276 139.163 154.542 151.976 152.083 154.535C145.023 161.893 134.874 167.33 123.664 167.33C123.664 167.33 135.529 170.181 139.369 173.714C139.369 173.714 128.362 175.157 122.364 177.238C116.374 179.328 104.642 182.719 102.041 182.719C102.041 182.719 132.946 196.86 113.764 227.063C113.764 227.063 127.177 225.009 138.352 230.375C138.352 230.375 77.126 220.484 56.413 288.116C64.217 281.679 88.734 264.368 126.903 264.182C172.982 263.978 192.748 274.586 211.054 285.681C238.96 302.611 260.062 307.623 276.094 310.616C322.165 319.223 368.429 303.718 388.478 294.368C446.67 205.139 453.367 154.739 454.358 118.753C435.557 137.693 404.05 142.333 389.77 142.244L389.768 142.245Z" fill="#F5F3EE"/>
<path d="M363.861 311.7C359.818 317.836 327.982 363.414 325.788 366.371C325.61 366.229 320.142 361.545 319.948 361.377C328.062 350.096 351.004 315.826 351.464 315.126C355.535 314.134 359.561 313.054 363.516 311.814L363.861 311.699V311.7ZM297.22 391.025C296.166 393.664 295.158 398.196 295.573 401.501C295.661 402.217 295.804 402.873 295.972 403.51V403.52C293.485 414.951 288.672 415.137 287.398 414.969L287.079 414.906C291.829 410.692 291.679 403.059 296.528 392.451C296.749 391.964 296.998 391.468 297.237 390.972L297.219 391.025H297.22ZM309.041 379.212C309.032 379.22 302.899 387.245 297.45 399.251L297.457 399.219L297.448 399.242C296.566 395.55 297.37 390.795 297.388 390.662C297.511 390.414 300.811 384.039 302.493 381.186C304.245 378.212 306.085 375.29 307.953 372.385L308.218 371.987C308.144 372.599 307.924 375.918 309.041 379.212V379.212ZM245.195 201.06C246.581 199.899 249.7 200.44 249.7 200.44C249.7 200.44 251.1 201.913 251.43 203.014C251.751 204.123 251.419 210.163 253.804 214.32V214.222C253.804 214.222 253.922 213.783 254.428 213.028C254.939 212.273 255.93 211.203 256.525 211.625C257.12 212.046 257.04 213.234 257.026 214.506C257.016 215.778 256.587 217.137 256.266 217.522C256.266 217.522 256.761 218.536 258.106 219.178C258.106 219.178 258.049 218.694 258.148 218.003C258.36 216.784 258.973 215.778 259.365 214.669C259.484 214.281 259.863 213.882 260.428 214.185C260.439 214.185 261.552 214.766 262.538 215.259C262.652 215.342 263.338 215.866 262.972 216.85L262.941 216.934L262.892 217.062C262.522 217.991 262.208 218.84 261.735 219.82C261.735 219.82 261.493 220.725 261.068 220.763C261.068 220.763 261.897 221.308 262.27 221.465C262.841 221.707 263.551 222.013 263.902 222.1C263.902 222.1 263.523 221.514 263.619 220.676C263.846 219.482 264.199 217.84 264.5 216.465C264.604 216.142 264.894 215.595 265.557 215.804C266.304 216.112 267.064 216.404 267.825 216.682C268.464 216.95 268.458 217.582 268.433 217.794C268.084 219.313 267.693 221.132 267.278 222.585C267.183 222.806 267.051 223.117 266.94 223.231C266.94 223.231 267.624 223.712 268.084 223.833C268.54 223.953 269.408 224.129 269.408 224.129C269.408 224.129 269.242 223.541 269.452 222.915L269.456 222.877L270.48 219.953C270.562 219.702 270.805 219.149 270.943 218.789C271.017 218.607 271.313 218.051 271.99 218.194C272.883 218.462 273.78 218.709 274.681 218.934C275.348 219.131 274.966 220.155 274.966 220.155C274.966 220.155 273.999 222.533 273.373 224.065L273.366 224.062C273.366 224.062 273.155 224.601 272.809 224.885C272.809 224.885 273.43 225.16 273.896 225.253C274.878 225.447 275.462 225.428 275.708 225.445C275.708 225.445 275.405 224.712 275.761 223.835L275.806 223.714C276.105 223.021 276.416 222.327 276.703 221.631L276.939 221.038C277.04 220.737 277.517 220.245 278.302 220.385L278.37 220.387C278.996 220.505 279.623 220.61 280.25 220.707L280.256 220.714C280.256 220.714 281.378 220.944 280.968 221.996C280.401 223.256 279.8 224.52 279.126 225.792C279.826 225.847 280.533 225.887 281.24 225.906C281.24 225.906 281.152 225.843 281.442 225.057C281.732 224.272 282.582 222.597 282.667 222.348C282.752 222.103 283.077 221.13 283.485 221.082C283.896 221.039 285.498 222.323 285.081 224.799C289.483 222.917 292.844 217.912 293.769 217.23C294.578 216.633 296.193 216.31 296.599 216.236C297.279 216.627 299.252 217.865 299.587 219.324C299.587 219.324 296.271 222.378 292.188 224.178C288.099 225.979 281.916 229.88 279.479 231.506C278.556 232.121 277.302 232.651 275.716 232.943C274.727 231.177 271.287 228.998 266.878 227.516C262.269 225.966 258.037 225.667 256.311 226.627C255.053 225.337 254.285 224.049 253.891 222.912C252.932 220.146 250.345 213.298 248.174 209.397C246 205.494 245.195 201.056 245.195 201.056V201.06ZM282.707 247.968C291.081 247.598 299.68 246.766 308.119 245.249C342.937 238.987 364.321 224.414 374.573 216.311C375.51 215.569 376.335 214.897 377.089 214.275C378.848 212.849 379.942 211.945 379.974 211.88C379.809 212.266 373.249 227.346 345.964 239.191C344.751 239.718 343.513 240.242 342.216 240.754C336.669 242.842 324.99 246.792 309.545 249.583C303.301 250.711 296.984 251.481 290.664 252.012C290.158 252.054 286.494 252.323 286.494 252.323C285.345 250.849 284.085 249.396 282.706 247.968H282.707ZM273.458 258.01C273.477 258.833 273.466 259.661 273.429 260.493L273.393 261.213C272.767 260.895 272.133 260.578 271.488 260.265C271.25 261.707 270.899 263.131 270.418 264.528C269.466 263.975 268.493 263.443 267.513 262.933C267.944 261.595 268.282 260.241 268.539 258.878C267.491 258.402 266.419 257.934 265.326 257.477C265.038 258.771 264.692 260.063 264.287 261.351C263.284 260.887 262.27 260.442 261.25 260.024C261.648 258.772 262.009 257.521 262.337 256.276C261.267 255.863 260.18 255.462 259.075 255.074C258.698 256.283 258.308 257.504 257.904 258.732C256.864 258.358 255.824 258.007 254.771 257.68C255.188 256.456 255.612 255.248 256.04 254.057C254.925 253.702 253.816 253.368 252.712 253.054C252.224 254.243 251.758 255.455 251.323 256.692C250.26 256.408 249.182 256.151 248.104 255.914C248.553 254.65 249.055 253.419 249.6 252.217C248.451 251.926 247.311 251.655 246.186 251.406C245.576 252.64 245.035 253.915 244.577 255.233C243.489 255.044 242.392 254.885 241.295 254.749C241.748 253.361 242.321 252.027 242.991 250.747C242.283 250.612 241.582 250.484 240.889 250.364L241.347 249.687C241.826 248.994 242.323 248.322 242.84 247.673L243.02 247.445C243.621 247.516 244.229 247.596 244.843 247.683C245.386 246.895 245.965 246.13 246.576 245.39C247.6 245.522 248.599 245.672 249.578 245.837C249.021 246.6 248.49 247.387 247.985 248.193C249.07 248.39 250.169 248.615 251.28 248.866C251.733 248.036 252.205 247.223 252.691 246.43C253.624 246.631 254.544 246.847 255.447 247.078C255.032 247.899 254.626 248.739 254.229 249.593C255.263 249.869 256.304 250.17 257.35 250.497C257.679 249.62 258.01 248.754 258.34 247.903C259.218 248.176 260.088 248.467 260.953 248.779C260.703 249.656 260.445 250.546 260.179 251.444C261.211 251.811 262.221 252.198 263.214 252.597C263.41 251.681 263.592 250.77 263.755 249.87C264.62 250.229 265.479 250.61 266.347 251.017C266.258 251.934 266.144 252.859 266.008 253.785C267.043 254.248 268.054 254.725 269.037 255.214C269.116 254.282 269.164 253.349 269.18 252.421C270.063 252.88 270.95 253.365 271.846 253.877C271.888 254.813 271.89 255.748 271.851 256.68C272.392 256.976 272.922 257.273 273.444 257.573L273.455 258.012L273.458 258.01ZM196.638 189.336C182.972 164.285 185.791 146.663 185.791 146.663C187.696 154.685 193.356 184.554 222.985 216.676C228.847 223.031 235.258 228.925 241.764 234.31C239.8 234.629 237.902 235.039 236.094 235.533C231.424 231.414 220.466 220.597 220.438 220.571C211.623 211.69 205.042 203.157 200.091 195.223C199.059 193.534 198.258 192.142 197.618 191.1L196.638 189.336V189.336ZM319.191 170.607C317.51 172.945 315.997 174.547 315.218 175.725C314.289 174.06 313.572 172.289 313.298 170.518C313.298 170.518 313.811 179.249 318.235 183.446C318.235 183.446 315.855 188.768 315.359 192C314.872 195.241 316.129 198.65 316.129 198.65C316.129 198.65 315.81 199.164 315.35 199.872C312.838 202.838 308.44 205.406 306.078 204.972C303.397 204.476 296.938 202.28 293.196 203.051C290.126 203.689 288.277 205.424 287.259 207.177L287.277 207.168C287.003 207.496 286.746 207.859 286.569 208.284C286.569 208.284 285.773 209.674 285.552 211.534C285.004 211.295 284.535 211.109 284.535 211.109C284.544 211.206 284.544 211.339 284.517 211.481C284.482 211.755 284.358 212.198 284.341 212.26L284.306 212.455L284.11 213.199C283.863 214.102 283.642 214.837 283.358 215.723L283.323 215.785C283.04 216.626 282.19 216.352 282.19 216.352L282.094 216.317C281.474 216.007 280.792 215.679 280.085 215.343C280.085 215.343 279.289 214.927 279.413 214.103L279.422 214.041L279.441 213.952L279.511 213.731C279.732 212.934 280.201 211.225 280.263 210.827C280.343 210.358 280.652 209.499 280.847 209.162C280.714 209.029 280.378 208.666 280.086 208.524C279.838 208.4 279.573 208.347 279.21 208.373C279.077 208.488 278.856 208.833 278.847 209.019C278.838 209.125 278.556 210.011 278.245 210.985C277.927 211.968 277.564 213.048 277.404 213.535C277.228 214.066 276.847 214.181 276.537 214.181C276.28 214.181 276.077 214.101 276.077 214.101C275.459 213.853 274.617 213.552 273.954 213.304L273.83 213.26C273.034 212.959 273.087 212.277 273.14 212.003C273.485 210.976 273.927 209.674 274.264 208.656L274.494 207.93L274.512 207.895C274.539 207.789 274.839 207.027 275.299 206.797C274.998 206.567 274.397 206.328 273.946 206.168C273.405 205.991 272.441 205.823 272.388 205.814C272.547 206.159 272.584 206.761 272.503 207.063C272.388 207.461 271.326 211.172 271.282 211.313C271.229 211.455 271.043 211.897 270.751 212.004C270.468 212.11 269.672 211.853 269.672 211.853L269.539 211.826C268.867 211.622 267.911 211.472 267.275 211.295C267.275 211.295 266.23 210.994 266.557 210.038C266.557 210.038 267.238 207.541 267.574 206.354L267.592 206.248C267.619 206.159 267.769 205.664 267.822 204.911C267.875 204.158 267.371 203.981 266.999 203.981C266.646 203.981 266.256 204.619 266.168 204.99C266.07 205.388 265.849 206.053 265.849 206.053L265.822 206.115V206.124L265.751 206.292C265.388 207.257 265.105 208.054 264.778 209.019C264.434 209.931 263.415 209.745 263.415 209.745C262.654 209.586 261.92 209.435 261.238 209.311L261.141 209.276C261.141 209.276 260.292 208.984 260.575 208.143L260.593 208.063C260.895 207.186 261.15 206.478 261.504 205.601C261.601 205.371 261.955 204.53 262.159 204.202C262.371 203.874 262.654 203.697 262.654 203.697C262.664 203.502 262.371 203.139 261.84 202.953L261.628 202.9C261.938 202.13 262.327 201.067 262.513 200.173C263.097 198.004 263.026 194.949 260.513 192.071C257.991 189.193 251.506 187.05 249.082 185.828C246.649 184.606 244.463 178.735 244.755 174.68C244.755 174.68 247.807 172.714 249.365 169.836C250.94 166.967 252.232 161.291 252.232 161.291C258.116 160.627 263.619 154.358 263.956 153.968C262.495 155.376 260.584 156.43 258.602 157.244C258.708 155.898 258.487 153.631 258.549 150.275C258.637 145.679 263.495 126.766 288.684 131.06C293.329 132.025 297.054 133.15 298.027 133.46L298.31 133.557C298.788 133.708 299.443 133.92 300.231 134.212L300.947 134.486C301.274 134.61 301.619 134.743 301.982 134.893C302.46 135.088 302.964 135.3 303.495 135.531C304.017 135.77 304.566 136.018 305.133 136.293C306.362 136.886 307.671 137.586 308.99 138.383L309.379 138.613L309.494 138.684C319.749 144.927 322.562 152.55 322.562 158.855C322.562 164.398 320.385 168.932 319.191 170.605V170.607ZM193.793 245.839C194.252 244.906 195.124 243.814 196.471 242.938C197.633 242.175 199.293 241.655 200.739 241.375C201.436 241.389 202.133 241.41 202.829 241.445C203.928 241.498 205.026 241.577 206.122 241.675C208.329 241.872 210.897 242.166 213.086 242.513C211.772 242.95 209.961 243.81 208.741 245.741L208.693 245.791C206.578 245.425 198.209 245.316 193.793 245.838V245.839ZM191.931 245.959C186.608 245.959 185.656 241.926 185.637 241.853C186.077 242.041 186.524 242.17 186.984 242.257L186.957 242.255L186.984 242.257C187.468 242.349 187.969 242.387 188.489 242.389C190.124 242.404 191.821 242.095 193.589 241.849C195.584 241.57 197.598 241.372 199.613 241.362C199.924 241.36 200.543 241.373 200.496 241.378C198.873 241.467 196.306 242.063 194.671 243.046L194.644 243.065C193.709 243.61 192.711 244.527 192.202 245.489C192.168 245.552 191.983 245.903 191.932 245.959H191.931ZM300.441 271.848L300.88 272.09C301.6 272.496 302.323 272.897 303.038 273.308C304.546 274.178 306.034 275.082 307.498 276.023C308.544 276.695 309.581 277.385 310.59 278.11L310.975 278.395C311.962 279.494 312.968 280.906 313.434 282.218C313.983 283.729 314.021 285.127 313.825 286.15C310.618 283.061 303.874 278.101 301.976 277.117C302.161 274.848 301.224 272.985 300.441 271.848ZM314.815 283.385C314.166 281.683 311.209 278.562 311.144 278.508C311.144 278.508 312.926 279.938 313.075 280.05C313.753 280.564 315.206 281.909 315.874 282.566C316.425 283.111 316.976 283.655 317.521 284.206C317.922 284.612 319.58 286.178 320.142 286.597C320.568 286.914 320.999 287.194 321.447 287.413C321.857 287.614 322.281 287.773 322.731 287.881L322.689 287.911C321.766 288.603 320.681 289.058 319.514 289.058C319.113 289.058 318.679 288.999 318.29 288.905C317.746 288.772 317.225 288.574 316.727 288.317C316.413 288.153 316.105 287.978 315.809 287.78C315.628 287.659 315.444 287.527 315.258 287.386L315.244 287.363C315.296 287.123 315.338 286.867 315.355 286.58C315.418 285.54 315.203 284.347 314.814 283.384L314.815 283.385Z" fill="#F5F3EE"/>
<path d="M378.992 306.183C373.223 315.312 341.75 362.767 334.307 373.544L334.131 373.411C333.042 372.419 331.636 371.223 330.079 369.922C332.617 366.3 361.711 323.007 370.241 309.592C373.224 308.537 376.126 307.387 378.992 306.183V306.183ZM325.346 399.152C325.48 401.296 322.975 404.43 320.753 405.255C319.143 405.919 317.01 406.247 314.948 406.237C314.293 406.237 313.649 406.211 313.02 406.149C313.604 405.165 314.313 403.971 315.098 402.687C316.868 399.791 319.064 396.417 320.965 393.929C322.266 394.575 324.132 395.842 325.008 397.675C325.238 398.162 325.345 398.631 325.345 399.153L325.346 399.152ZM312.332 383.869C313.784 385.206 314.995 386.277 316.005 387.12C311.103 393.46 304.157 405.316 304.157 405.316C301.185 405.494 299.697 404.511 298.017 400.924C297.777 400.41 297.592 399.844 297.451 399.25C302.899 387.244 309.033 379.219 309.042 379.211C309.688 380.787 310.714 382.381 312.333 383.869H312.332ZM339.646 393.008C341.39 400.712 336.727 408.008 332.789 411.444C328.843 414.888 322.135 417.084 315.128 416.952C308.881 416.827 304.493 415.819 300.521 413.658L300.485 413.791C300.175 414.056 299.546 415.499 294.955 416.182C291.875 416.687 290.089 416.067 289.902 416.005C295.318 421.487 300.218 418.033 300.218 418.033C300.45 418.99 300.784 419.671 300.784 419.671C300.784 419.671 299.157 422.063 294.202 421.239C293.599 421.141 293.086 420.973 292.583 420.787L292.865 420.938C294.768 422.187 295.28 424.746 294.034 426.64C292.768 428.545 290.221 429.058 288.318 427.81C286.424 426.553 285.902 423.994 287.158 422.099C288.184 420.541 290.059 419.929 291.75 420.434C288.034 418.645 287.078 414.907 287.078 414.907L287.397 414.97C288.671 415.138 293.484 414.952 295.971 403.521C296.042 403.813 297.67 410.409 302.12 409.338L301.421 410.906C303.367 412.119 307.827 414.235 315.418 414.333C326.08 414.475 331.911 407.453 333.513 402.229C334.769 398.164 332.823 393.648 328.805 389.69C329.982 388.326 330.699 386.423 329.911 383.801C330.274 385.015 328 387.176 325.601 386.963C325.38 386.944 325.169 386.909 324.948 386.848C321.328 385.838 317.204 381.428 313.71 378.816C310.233 376.204 309.215 372.157 309.286 369.288C309.337 366.418 308.365 363.018 305.631 360.441C302.897 357.864 300.447 357.616 299.668 357.413C298.88 357.2 298.658 356.713 298.738 356.191C298.899 355.332 300.005 355.491 300.005 355.491C306.641 356.819 311.489 363.398 312.559 365.329C313.551 367.101 324.027 375.291 328.079 378.878C329.973 380.259 338.175 386.556 339.643 393.011L339.646 393.008ZM264.021 235.598C260.564 234.434 257.761 233.024 254.858 229.894C252.298 227.135 251.029 221.89 250.297 219.195C250.192 218.81 250.099 218.476 250.012 218.209C249.335 216.08 246.584 208.271 246 206.446C245.413 204.618 244.929 203.094 245.288 199.956C245.623 197.008 247.086 190.943 247.269 190.195L247.286 190.119C247.286 190.119 249.688 191.285 250.437 191.723L250.425 191.801C250.335 192.474 249.701 197.27 249.669 199.577C249.665 199.931 249.672 200.227 249.702 200.439C249.702 200.439 246.582 199.898 245.197 201.059C245.197 201.059 246.002 205.497 248.176 209.4C250.346 213.3 252.933 220.149 253.893 222.915C254.287 224.051 255.055 225.339 256.313 226.63C258.039 225.67 262.271 225.969 266.88 227.519C271.289 229.001 274.729 231.18 275.718 232.946C277.304 232.654 278.558 232.123 279.481 231.509C281.918 229.883 288.101 225.982 292.19 224.181C296.273 222.381 299.589 219.327 299.589 219.327C299.254 217.869 297.281 216.631 296.601 216.239L296.696 216.224C297.83 215.076 300.944 209.579 301.329 208.898L301.369 208.827C302.233 208.932 304.844 209.448 304.844 209.448C304.844 209.448 302.124 215.778 300.513 218.504C298.907 221.219 297.599 222.143 296.033 223.25C294.47 224.353 287.566 228.919 285.738 230.208C283.916 231.498 279.068 235.851 274.834 236.603C272.734 236.975 270.913 237.02 269.185 236.826C267.457 236.631 265.818 236.198 264.09 235.619L264.059 235.607L264.024 235.599L264.021 235.598ZM273.415 166.075C270.168 162.683 264.221 159.141 264.221 159.026C268.628 157.928 275.786 164.604 279.997 168.121C283.581 171.291 285.148 171.592 285.467 171.681C285.793 171.805 287.218 172.512 291.97 172.141C297.456 171.885 307.189 170.876 310.047 174.418C310.047 174.515 303.128 173.736 298.464 174.489C293.828 175.472 287.246 176.101 284.325 175.082C281.388 174.134 276.512 169.654 273.416 166.077L273.415 166.075ZM255.25 182.925C251.498 180.401 251.728 177.187 252.055 173.743C252.374 170.307 255.992 163.674 255.992 163.674L256.046 163.709L256.064 163.718L256.312 163.975C256.976 164.976 255.825 167.465 255.825 167.465C255.533 168.191 255.302 168.935 255.107 169.688C254.443 172.265 254.196 175.461 255.257 178.029C255.301 178.118 255.975 179.286 255.939 179.322L255.743 179.473L255.532 179.615C253.691 180.695 255.134 182.767 255.249 182.927L255.25 182.925ZM267.177 185.051C270.379 185.405 274.629 180.694 275.627 179.383C276.619 178.082 278.14 175.753 278.14 175.753C279.104 177.852 286.705 180.402 288.785 179.33C288.775 179.374 288.582 182.11 288.589 183.74C288.598 185.379 289.156 191.71 291.926 193.367H291.935C291.935 193.367 291.243 194.19 292.128 196.767C291.916 196.696 288.447 195.412 287.201 192.604C285.909 189.716 287.166 181.96 282.529 180.339C277.856 178.826 274.185 185.777 271.405 187.3C268.637 188.822 264.956 187.644 264.956 187.644C267.239 186.122 267.177 185.05 267.177 185.05V185.051ZM286.847 212.138C286.634 212.023 285.555 211.545 285.555 211.536C285.776 209.677 286.572 208.286 286.572 208.286C286.572 208.286 288.138 207.179 290.942 207.313L290.925 207.339L290.942 207.33C290.863 207.543 290.227 209.287 290.057 210.819C289.961 211.766 289.5 214.158 289.5 214.176C288.677 217.045 285.917 218.629 285.668 218.471C285.376 218.285 284.996 217.586 286.234 213.618C286.234 213.424 286.872 213.194 287.013 213.203L287.782 213.079C287.782 213.079 287.711 212.928 287.446 212.548C287.331 212.361 287.031 212.246 286.845 212.14L286.847 212.138ZM306.083 204.975C308.445 205.409 312.835 202.84 315.347 199.875L315.285 199.972C314.241 201.832 312.835 203.825 311.117 205.117C309.117 206.622 308.136 207.782 302.589 206.471C300.412 205.949 298.208 205.48 295.989 205.206C293.148 204.843 289.388 204.746 287.317 207.135L287.282 207.171L287.247 207.198C288.273 205.436 290.123 203.692 293.202 203.054C296.945 202.283 303.403 204.479 306.085 204.975H306.083ZM224.247 236.004C221.672 233.723 219.163 231.369 216.732 228.936C211.068 223.266 205.844 217.142 201.265 210.562C197.546 205.22 194.207 199.594 191.507 193.667C188.868 187.877 186.716 181.877 185.37 175.65C184.103 169.788 183.541 163.76 183.858 157.767C184.045 154.225 184.476 150.542 185.62 147.168L185.791 146.662C185.791 146.662 182.972 164.285 196.638 189.335L196.56 189.194C196.56 189.194 206.498 213.795 232.624 236.604C230.757 237.255 229.002 237.963 227.395 238.73C227.138 238.852 224.562 236.284 224.246 236.004H224.247ZM193.793 245.839C198.21 245.317 206.578 245.426 208.693 245.792L208.741 245.742C208.413 246.263 208.117 246.841 207.9 247.529C207.551 248.61 207.289 249.499 207.086 250.224C201.995 248.826 193.897 248.394 193.897 248.394C193.665 248.053 193.427 247.594 193.413 247.085C193.406 246.752 193.563 246.31 193.793 245.838V245.839ZM219.029 233.761C219.513 233.633 219.698 234.253 219.698 234.253C220.61 238.032 218.357 242.145 217.61 243.172C216.86 244.196 214.863 252.984 214.074 255.243C214.074 255.243 213.144 257.56 212.774 258.308C211.958 259.941 208.457 264.276 199.371 261.387C191.048 258.744 188.822 250.25 188.51 248.828C185.673 247 185.752 243.567 185.752 243.567C184.356 247.371 186.651 249.113 187.19 249.462C187.128 249.421 186.651 249.92 186.595 249.985L186.471 250.145C186.471 250.145 185.655 249.991 184.905 248.93C184.593 248.487 184.288 247.905 184.065 247.085C183.984 246.789 183.931 246.503 183.901 246.229L183.892 246.322C183.698 247.608 182.496 248.49 181.213 248.297C179.931 248.103 179.043 246.899 179.236 245.613C179.429 244.326 180.632 243.442 181.914 243.639C182.926 243.79 183.691 244.571 183.874 245.528C183.946 243.211 185.635 241.853 185.635 241.853C185.654 241.926 186.606 245.959 191.929 245.959C191.744 246.358 191.623 246.731 191.63 247.021C191.648 247.541 191.92 248.02 192.173 248.35H192.145C191.955 248.35 189.89 248.339 189.888 248.487C191.014 255.433 196.443 259.547 200.731 260.38C204.92 261.195 207.222 260.03 208.751 257.205C209.721 257.648 210.913 257.726 212.175 256.679C210.327 256.758 209.525 255.637 209.385 254.827C209.018 252.699 210.342 249.476 210.857 247.029C211.379 244.581 213.237 243.082 214.746 242.42C216.26 241.758 217.794 240.432 218.479 238.376C219.161 236.329 218.693 234.994 218.617 234.537C218.537 234.078 218.737 233.843 219.027 233.762L219.029 233.761ZM318.291 288.906C318.679 289 319.114 289.059 319.515 289.059C320.682 289.059 321.767 288.605 322.69 287.912L322.722 287.891C322.732 287.895 322.81 288.457 322.815 288.581C322.853 289.308 322.773 290.464 322.091 291.592C322.794 291.055 323.776 290.941 324.608 291.396C325.739 292.007 326.16 293.425 325.545 294.553C324.935 295.684 323.52 296.107 322.389 295.492C321.297 294.899 320.893 293.567 321.417 292.46C321.236 292.647 321.062 292.837 320.835 293.015C319.495 294.044 318.45 294.203 317.798 294.163C317.335 294.134 317.067 294.005 317.067 294.005C317.067 294.005 317.094 293.711 316.963 293.222L316.911 293.023C317.07 293.037 317.366 293.042 317.734 292.99C318.867 292.829 320.72 292.11 321.608 289.19C321.608 289.19 321.39 289.473 321.017 289.84C320.201 290.646 318.521 291.852 316.209 291.68C315.099 292.632 308.231 298.095 300.002 295.18C291.015 291.995 290.946 286.443 291.171 284.63C291.318 283.445 291.95 281.495 291.981 281.4C292.712 279.126 296.419 270.916 296.438 269.645C296.459 268.373 297.14 263.732 300.149 261.269C300.149 261.269 300.666 260.886 300.974 261.277C301.155 261.518 301.177 261.83 300.834 262.146C300.499 262.464 299.325 263.248 298.631 265.289C297.935 267.343 298.366 269.329 299.168 270.768C299.913 272.104 300.23 273.715 299.973 275.228C299.885 275.765 299.721 276.304 299.492 276.797C298.923 278.014 298.477 279.285 297.962 280.526C297.398 281.878 296.773 283.137 295.968 283.903C295.074 284.752 293.632 284.49 292.748 283.775L292.633 283.695C293.005 285.293 294.006 285.933 295.043 286.163C294.557 289.352 295.688 291.672 299.524 293.556C303.449 295.48 310.257 295.474 315.341 290.617C314.832 290.044 314.223 289.624 313.63 289.149L313.604 289.13C313.999 289.016 314.509 288.799 314.834 288.394C315.015 288.168 315.144 287.796 315.237 287.369L315.258 287.385C315.445 287.526 315.628 287.658 315.809 287.779C316.105 287.977 316.412 288.153 316.727 288.316C317.225 288.573 317.746 288.771 318.29 288.904L318.291 288.906ZM301.556 278.981C301.798 278.29 301.975 277.118 301.975 277.118C303.873 278.102 310.617 283.062 313.824 286.151C313.723 286.665 313.582 287.112 313.378 287.373C313.059 287.772 312.597 287.992 312.199 288.126C309.378 286.193 305.092 283.658 300.574 281.622C300.853 280.923 301.174 280.056 301.555 278.982L301.556 278.981ZM288.683 131.062C263.493 126.767 258.636 145.681 258.548 150.277C258.486 153.633 258.707 155.9 258.601 157.246C254.938 158.778 251.018 159.336 251.018 159.336C251.23 157.211 251.221 152.518 252.133 148.817C252.991 145.337 258.795 130.142 279.198 130.054C281.313 130.054 283.578 130.205 286.011 130.55C286.887 130.701 287.736 130.869 288.559 131.037L288.683 131.064V131.062ZM325.206 173.316C326.719 169.482 332.532 149.426 306.157 136.728L305.132 136.294C306.361 136.887 307.67 137.587 308.989 138.384L309.378 138.614L309.493 138.685C319.748 144.928 322.561 152.551 322.561 158.856C322.561 164.399 320.384 168.933 319.19 170.606C317.509 172.944 315.996 174.546 315.217 175.724C316.634 178.283 318.517 180.568 319.916 182.099C321.11 180.16 323.835 176.76 325.206 173.315V173.316ZM313.293 183.112L313.648 183.059L313.727 183.067C313.727 183.067 312.621 190.541 310.798 193.472C308.974 196.413 307.233 199.122 302.701 198.874C302.701 198.874 305.329 198.112 304.489 196.048C304.427 195.898 304.383 195.748 304.347 195.588C305.559 194.906 306.647 194.393 307.638 193.357C308.956 191.984 309.999 190.292 310.752 188.557C311.08 187.786 311.355 186.999 311.577 186.193C311.577 186.193 312.161 183.509 313.293 183.112V183.112ZM250.842 189.089C245.631 186.796 245.551 185.273 244.852 182.864C244.772 182.562 244.702 182.208 244.649 181.818C244.552 181.049 244.525 180.127 244.525 179.215C244.525 176.939 244.755 174.681 244.755 174.681C244.463 178.736 246.648 184.608 249.082 185.83C251.506 187.051 257.992 189.194 260.515 192.073C263.028 194.951 263.099 198.007 262.515 200.176C262.328 201.069 261.939 202.133 261.63 202.903C261.46 202.859 261.284 202.832 261.108 202.814C260.595 202.752 259.78 202.698 259.611 203.336L259.594 203.38C259.674 203.654 259.736 203.991 259.7 204.177C259.655 204.381 259.585 204.567 259.55 204.656C258.161 208.561 257.427 208.897 257.081 208.87C256.789 208.853 255.541 205.913 256.612 203.131L256.629 203.079C257.178 201.838 257.7 200.935 258.187 200.121C259.045 198.704 259.594 196.784 259.594 196.784L259.611 196.819V196.792C260.329 197.28 260.938 197.873 261.505 198.519L261.531 198.555C261.788 198.98 262.186 199.307 262.416 199.759C262.479 199.891 262.523 200.016 262.523 200.112C262.717 199.368 262.691 198.466 262.407 197.74L262.381 197.66C261.329 194.781 258.603 193.09 256.072 191.656C254.382 190.7 252.621 189.866 250.843 189.088L250.842 189.089ZM283.404 193.517C283.447 194.499 283.669 195.021 283.907 195.694C284.148 196.324 284.44 197.324 284.068 198.35L283.598 199.749C282.971 201.636 280.705 202.566 278.547 201.848V201.838C278.547 201.838 279.996 201.467 280.467 200.077L280.484 200.024C281.378 199.89 282.157 199.36 282.438 198.51L282.934 197.049C283.429 195.553 282.324 194.879 282.262 192.461C282.174 191.212 282.086 189.999 282.572 188.556C282.962 187.386 282.309 186.091 281.089 185.553C283.089 186.354 284.201 188.364 283.598 190.167C283.218 191.318 283.306 192.239 283.394 193.461L283.405 193.496V193.515L283.404 193.517ZM271.68 194.897C271.396 195.739 271.697 196.625 272.317 197.271L272.298 197.333C271.83 198.732 272.767 199.9 272.767 199.9C270.618 199.175 269.378 197.067 270.006 195.189L270.477 193.79C270.803 192.744 271.625 192.116 272.211 191.762C272.812 191.372 273.299 191.089 273.927 190.336L273.953 190.3V190.291C274.778 189.38 275.414 188.689 275.793 187.538C276.405 185.749 278.501 184.802 280.608 185.395C279.306 185.066 277.988 185.714 277.599 186.883C277.112 188.335 276.29 189.238 275.476 190.177C273.963 192.072 272.67 191.939 272.176 193.436L271.681 194.896L271.68 194.897ZM345.964 239.19C373.249 227.344 379.808 212.265 379.974 211.879L379.812 212.362C377.78 218.226 374.016 223.682 369.895 228.263C366.9 231.594 363.635 234.628 360.151 237.442C354.808 241.757 348.732 245.256 342.537 248.184C336.383 251.092 329.931 253.401 323.376 255.221C313.123 258.066 302.275 259.558 291.555 260.16C290.737 258.571 289.762 256.947 288.66 255.309C323.113 252.84 345.791 239.33 345.791 239.33L345.964 239.192V239.19Z" fill="#F5F3EE"/>
<path d="M325.436 235.626C358.642 226.683 390.184 196.347 390.184 196.347C382.293 222.185 378.77 230.721 358.183 245.313C337.585 259.897 305.335 264.351 305.335 264.351C304.972 265.75 302.84 267.22 302.84 267.22C302.84 267.22 306.14 268.442 314.245 274.543C322.341 280.644 320.146 280.343 322.73 282.087C325.314 283.823 326.782 283.336 326.782 283.336C327.561 284.903 327.659 287.232 327.659 287.232C328.738 288.25 334.02 293.297 329.109 298.522C324.19 303.746 318.509 298.894 318.509 298.894C316.501 299.319 314.545 298.655 314.545 298.655C314.545 298.655 304.034 305.278 293.594 298.062C285.099 292.2 285.612 285.249 286.109 282.85C283.241 284.497 280.162 285.781 277.005 286.773C268.484 289.447 257.61 290.554 246.807 286.959C239.711 284.568 233.836 280.424 229.2 275.829C224.555 271.225 221.122 266.142 218.884 261.564C218.548 260.864 218.229 260.174 217.946 259.501C217.203 261.272 213.646 267.994 202.631 267.514C189.952 266.965 185.555 255.339 185.555 255.339C185.555 255.339 183.6 254.684 182.255 253.143C182.255 253.143 174.805 253.586 174.027 246.449C173.257 239.312 180.521 238.48 181.999 238.32C181.999 238.32 183.468 236.514 185.034 235.734C185.034 235.734 185.919 237.018 189.024 237.186C192.13 237.354 190.201 236.265 200.34 236.292C210.48 236.31 213.842 237.337 213.842 237.337C213.842 237.337 213.028 234.875 213.585 233.538C213.585 233.538 190.554 210.516 182.919 186.449C175.283 162.382 177.619 153.456 186.892 128.079C186.892 128.079 193.767 171.316 214.869 198.483C226.911 213.988 240.457 226.074 249.879 233.601L250.525 233.61C248.517 231.37 246.986 228.74 246.225 225.729C244.34 218.291 241.253 211.376 239.837 205.868C238.421 200.352 241.571 189.327 241.571 189.327C237.342 182.544 239.403 171.379 239.403 171.379C239.403 171.379 241.695 170.29 243.438 168.174C245.172 166.049 244.571 159.78 245.986 150.553C247.402 141.326 253.4 131.781 266.69 126.353C279.909 120.952 299.763 128.035 299.94 128.097C300.117 128.15 320.228 134.481 327.518 146.772C334.844 159.124 333.871 170.37 329.438 178.578C325.006 186.795 320.741 191.426 320.856 194.171C320.962 196.907 322.139 199.156 322.139 199.156C322.139 199.156 317.06 209.312 309.584 212.181C309.584 212.181 305.452 222.869 300.993 226.41C296.551 229.952 289.916 233.6 283.926 238.399C281.564 240.294 278.847 241.463 275.954 242.056L276.529 242.481C288.571 242.162 306.585 240.701 325.439 235.627L325.436 235.626ZM244.647 181.816C244.7 182.206 244.771 182.56 244.85 182.861C245.549 185.269 245.629 186.792 250.84 189.086C252.618 189.865 254.379 190.698 256.069 191.654C258.599 193.088 261.325 194.78 262.377 197.657L262.404 197.737C262.686 198.463 262.713 199.366 262.518 200.11C262.518 200.013 262.474 199.889 262.412 199.756C262.183 199.304 261.784 198.977 261.527 198.552L261.5 198.517C260.934 197.871 260.323 197.277 259.607 196.79V196.817L259.589 196.782C259.589 196.782 259.04 198.703 258.182 200.12C257.695 200.935 257.173 201.838 256.625 203.077L256.607 203.13C255.536 205.91 256.784 208.85 257.076 208.868C257.421 208.895 258.155 208.558 259.545 204.653C259.58 204.564 259.651 204.379 259.695 204.175C259.73 203.989 259.668 203.653 259.589 203.378L259.607 203.334C259.775 202.696 260.589 202.75 261.102 202.812C261.279 202.83 261.456 202.856 261.624 202.901L261.836 202.954C262.367 203.14 262.66 203.503 262.65 203.698C262.65 203.698 262.367 203.875 262.155 204.203C261.952 204.531 261.598 205.372 261.5 205.602C261.146 206.479 260.89 207.187 260.589 208.064L260.571 208.144C260.288 208.985 261.137 209.277 261.137 209.277L261.234 209.312C261.915 209.436 262.65 209.586 263.411 209.746C263.411 209.746 264.429 209.932 264.774 209.02C265.101 208.055 265.384 207.258 265.747 206.293L265.818 206.125V206.116L265.845 206.054C265.845 206.054 266.066 205.39 266.164 204.991C266.252 204.619 266.642 203.982 266.995 203.982C267.367 203.982 267.871 204.159 267.818 204.912C267.765 205.665 267.615 206.161 267.588 206.249L267.57 206.355C267.234 207.542 266.553 210.039 266.553 210.039C266.226 210.995 267.271 211.296 267.271 211.296C267.907 211.473 268.863 211.624 269.535 211.827L269.668 211.854C269.668 211.854 270.464 212.111 270.747 212.005C271.039 211.899 271.225 211.456 271.278 211.314C271.322 211.172 272.384 207.462 272.499 207.064C272.58 206.763 272.543 206.161 272.384 205.815C272.437 205.824 273.401 205.992 273.942 206.169C274.392 206.328 274.994 206.567 275.295 206.798C274.835 207.028 274.534 207.79 274.508 207.896L274.49 207.931L274.26 208.657C273.924 209.675 273.481 210.977 273.136 212.004C273.083 212.278 273.03 212.96 273.826 213.261L273.95 213.305C274.614 213.553 275.455 213.854 276.073 214.102C276.073 214.102 276.276 214.182 276.533 214.182C276.843 214.182 277.224 214.067 277.4 213.536C277.559 213.049 277.923 211.969 278.241 210.986C278.552 210.012 278.834 209.127 278.843 209.02C278.852 208.834 279.073 208.489 279.206 208.374C279.569 208.347 279.834 208.401 280.082 208.525C280.374 208.667 280.71 209.03 280.843 209.163C280.648 209.499 280.339 210.358 280.259 210.828C280.197 211.226 279.728 212.935 279.507 213.732L279.437 213.953L279.418 214.042L279.409 214.104C279.285 214.927 280.081 215.344 280.081 215.344C280.789 215.68 281.47 216.008 282.09 216.318L282.186 216.353C282.186 216.353 283.035 216.627 283.319 215.786L283.354 215.724C283.638 214.839 283.859 214.104 284.106 213.2L284.302 212.456L284.337 212.261C284.354 212.199 284.478 211.756 284.513 211.482C284.54 211.34 284.54 211.208 284.531 211.11C284.531 211.11 285.001 211.296 285.548 211.535C285.548 211.544 286.627 212.022 286.84 212.137C287.026 212.243 287.327 212.358 287.442 212.553C287.707 212.925 287.778 213.075 287.778 213.075L287.008 213.199C286.866 213.19 286.229 213.42 286.229 213.615C284.99 217.582 285.371 218.281 285.664 218.467C285.911 218.626 288.671 217.05 289.494 214.181C289.494 214.154 289.954 211.764 290.052 210.816C290.219 209.284 290.856 207.54 290.937 207.327L290.918 207.336L290.937 207.309C288.131 207.176 286.565 208.283 286.565 208.283C286.742 207.858 286.999 207.495 287.273 207.167L287.308 207.132C289.378 204.741 293.139 204.839 295.979 205.202C298.2 205.476 300.403 205.946 302.579 206.468C308.135 207.778 309.11 206.619 311.108 205.113C312.834 203.82 314.24 201.828 315.284 199.968L315.346 199.871C315.806 199.163 316.125 198.649 316.125 198.649C316.125 198.649 314.869 195.24 315.355 191.999C315.85 188.767 318.231 183.445 318.231 183.445C313.807 179.248 313.294 170.517 313.294 170.517C313.568 172.288 314.285 174.059 315.214 175.724C316.631 178.283 318.514 180.568 319.913 182.099C321.107 180.16 323.832 176.76 325.203 173.315C326.716 169.481 332.529 149.425 306.154 136.727L305.129 136.293C304.562 136.019 304.013 135.771 303.491 135.531C302.96 135.292 302.456 135.079 301.978 134.893C301.615 134.742 301.27 134.61 300.943 134.486L300.227 134.212C299.439 133.92 298.784 133.707 298.306 133.557L298.023 133.46C297.05 133.15 293.325 132.026 288.68 131.06L288.556 131.033C287.733 130.865 286.884 130.697 286.008 130.546C283.575 130.201 281.31 130.05 279.195 130.05C258.792 130.139 252.988 145.333 252.13 148.813C251.219 152.514 251.228 157.207 251.015 159.332C251.015 159.332 254.935 158.774 258.598 157.242C260.58 156.427 262.491 155.374 263.952 153.966C263.615 154.356 258.112 160.625 252.228 161.289C252.228 161.289 250.936 166.965 249.361 169.834C247.804 172.712 244.751 174.678 244.751 174.678C244.751 174.678 244.521 176.936 244.521 179.212C244.521 180.124 244.548 181.045 244.645 181.815L244.647 181.816ZM250.301 219.192C251.027 221.893 252.301 227.135 254.858 229.897C257.761 233.023 260.565 234.431 264.024 235.599L264.051 235.608L264.086 235.617C265.811 236.201 267.448 236.626 269.182 236.821C270.907 237.016 272.73 236.972 274.828 236.6C279.065 235.847 283.914 231.5 285.736 230.207C287.559 228.914 294.469 224.354 296.027 223.247C297.592 222.14 298.903 221.219 300.512 218.501C302.122 215.774 304.839 209.443 304.839 209.443C304.839 209.443 302.229 208.929 301.362 208.823L301.327 208.894C300.938 209.576 297.823 215.075 296.692 216.226L296.603 216.244C296.196 216.315 294.577 216.634 293.772 217.236C292.843 217.918 289.481 222.921 285.084 224.807C285.5 222.328 283.899 221.044 283.483 221.088C283.076 221.132 282.758 222.106 282.669 222.354C282.581 222.602 281.731 224.275 281.448 225.064C281.156 225.852 281.245 225.914 281.245 225.914C280.536 225.887 279.828 225.852 279.13 225.799C279.802 224.524 280.404 223.258 280.97 222C281.377 220.946 280.262 220.716 280.262 220.716L280.253 220.707C279.625 220.61 278.998 220.512 278.369 220.388H278.306C277.519 220.246 277.042 220.742 276.943 221.043L276.704 221.636C276.412 222.327 276.102 223.026 275.802 223.717L275.758 223.841C275.404 224.718 275.705 225.453 275.705 225.453C275.466 225.435 274.882 225.453 273.891 225.258C273.431 225.161 272.812 224.886 272.812 224.886C273.157 224.603 273.369 224.063 273.369 224.063C273.997 222.531 274.962 220.158 274.962 220.158C274.962 220.158 275.342 219.131 274.679 218.936C273.777 218.715 272.883 218.467 271.989 218.201C271.308 218.05 271.016 218.608 270.945 218.794C270.803 219.148 270.565 219.706 270.476 219.954C270.131 220.937 269.795 221.911 269.459 222.876L269.45 222.92C269.238 223.54 269.406 224.133 269.406 224.133C269.406 224.133 268.539 223.956 268.088 223.832C267.628 223.717 266.938 223.23 266.938 223.23C267.054 223.124 267.186 222.805 267.283 222.584C267.69 221.132 268.088 219.317 268.433 217.794C268.46 217.581 268.468 216.953 267.823 216.687C267.062 216.404 266.301 216.111 265.558 215.802C264.894 215.598 264.602 216.147 264.496 216.466C264.195 217.838 263.85 219.485 263.62 220.681C263.523 221.513 263.903 222.098 263.903 222.098C263.55 222.018 262.841 221.708 262.275 221.469C261.895 221.31 261.072 220.761 261.072 220.761C261.497 220.726 261.736 219.822 261.736 219.822C262.205 218.839 262.523 217.989 262.895 217.059L262.939 216.935L262.974 216.846C263.337 215.863 262.655 215.341 262.54 215.261C261.549 214.765 260.434 214.181 260.425 214.181C259.859 213.88 259.487 214.278 259.363 214.668C258.974 215.775 258.363 216.784 258.151 218.006C258.054 218.697 258.107 219.175 258.107 219.175C256.762 218.537 256.267 217.519 256.267 217.519C256.586 217.138 257.019 215.775 257.028 214.508C257.037 213.233 257.116 212.046 256.524 211.621C255.931 211.205 254.94 212.267 254.427 213.029C253.923 213.782 253.808 214.224 253.808 214.224V214.321C251.419 210.159 251.755 204.12 251.428 203.014C251.101 201.907 249.703 200.437 249.703 200.437C249.676 200.224 249.668 199.932 249.668 199.578C249.703 197.267 250.34 192.477 250.429 191.804L250.438 191.724C249.695 191.281 247.288 190.121 247.288 190.121L247.27 190.192C247.084 190.945 245.624 197.01 245.288 199.959C245.244 200.349 245.217 200.712 245.2 201.057C245.058 203.474 245.483 204.847 246.005 206.449C246.589 208.273 249.341 216.083 250.013 218.208C250.101 218.474 250.199 218.81 250.305 219.191L250.301 219.192ZM282.438 198.511C282.157 199.361 281.377 199.891 280.484 200.025C280.067 200.078 279.625 200.078 279.182 199.936C277.812 199.476 277.042 198.076 277.466 196.828C277.537 196.615 277.412 196.385 277.191 196.305C276.97 196.235 276.741 196.349 276.67 196.554C276.255 197.811 274.794 198.458 273.414 197.997C272.972 197.846 272.618 197.581 272.317 197.271C271.697 196.625 271.396 195.739 271.68 194.897L272.175 193.437C272.67 191.94 273.962 192.072 275.475 190.178C276.289 189.239 277.112 188.336 277.598 186.884C277.987 185.715 279.306 185.068 280.607 185.396L280.837 185.458L281.087 185.555C282.307 186.092 282.96 187.388 282.57 188.558C282.084 190 282.172 191.214 282.26 192.463C282.322 194.88 283.428 195.554 282.932 197.051L282.436 198.512L282.438 198.511ZM288.588 183.74C288.58 182.111 288.774 179.375 288.784 179.33L288.837 179.401C288.97 179.596 289.588 180.456 290.536 181.367V181.376C290.704 181.535 290.88 181.695 291.067 181.855L291.102 181.89C291.793 182.466 292.607 182.997 293.546 183.308C296.402 184.273 300.57 183.59 305.038 182.776C305.428 182.715 305.808 182.662 306.189 182.617C310.197 182.157 313.719 183.043 313.719 183.043L313.727 183.069L313.648 183.061L313.293 183.114C312.161 183.512 311.577 186.195 311.577 186.195C311.356 187.001 311.081 187.788 310.752 188.559C310 190.294 308.957 191.986 307.638 193.359C306.647 194.395 305.559 194.909 304.347 195.59L304.337 195.581C304.32 195.581 303.638 195.794 303.276 195.837C300.531 196.174 294.764 195.289 291.995 193.393L291.933 193.367H291.924C289.154 191.71 288.595 185.379 288.587 183.74H288.588ZM256.311 163.975L256.063 163.718L256.045 163.709L256.018 163.674C256.221 163.754 259.432 165.162 262.264 167.862C262.548 168.129 262.822 168.403 263.089 168.685C266.166 172.033 269.079 175.097 271.937 176.053C272.866 176.363 273.847 176.434 274.742 176.39L274.787 176.38C275.034 176.371 275.273 176.353 275.502 176.327V176.319C276.971 176.141 278.14 175.751 278.14 175.751C278.14 175.751 276.619 178.081 275.627 179.381C274.628 180.691 270.379 185.403 267.177 185.049L267.097 185.031C263.743 184.863 258.603 182.09 256.62 180.169C256.355 179.903 255.948 179.328 255.94 179.328L255.744 179.47L255.94 179.319C255.975 179.284 255.302 178.115 255.258 178.026C254.196 175.458 254.444 172.262 255.108 169.685C255.303 168.932 255.534 168.189 255.826 167.462C255.826 167.462 256.976 164.973 256.313 163.972L256.311 163.975ZM379.815 212.365L379.965 211.905L379.974 211.878C379.939 211.949 378.85 212.852 377.09 214.278C376.338 214.898 375.506 215.571 374.568 216.315C364.322 224.417 342.937 238.983 308.121 245.252C299.68 246.766 291.08 247.598 282.701 247.97C284.082 249.396 285.346 250.848 286.497 252.326C286.497 252.326 290.16 252.052 290.664 252.007C296.981 251.476 303.299 250.714 309.545 249.581C324.993 246.792 336.672 242.843 342.211 240.753C343.512 240.239 344.75 239.717 345.962 239.186L345.795 239.328C345.795 239.328 323.109 252.84 288.664 255.311C289.761 256.949 290.734 258.57 291.557 260.163C302.272 259.561 313.119 258.064 323.373 255.222C329.929 253.398 336.379 251.096 342.537 248.183C348.73 245.261 354.809 241.755 360.153 237.442C363.63 234.626 366.895 231.598 369.894 228.26C374.017 223.682 377.777 218.228 379.812 212.366L379.815 212.365ZM303.034 273.312C302.317 272.896 301.601 272.497 300.875 272.09L300.441 271.851C301.22 272.984 302.157 274.854 301.972 277.12C301.972 277.12 301.795 278.289 301.557 278.979C301.176 280.05 300.848 280.918 300.574 281.618C305.096 283.655 309.377 286.196 312.2 288.126C312.598 287.993 313.059 287.772 313.377 287.373C313.58 287.107 313.723 286.665 313.819 286.151C314.022 285.124 313.979 283.725 313.43 282.22C312.97 280.91 311.961 279.493 310.97 278.396L310.59 278.112C309.581 277.386 308.546 276.695 307.493 276.022C306.033 275.083 304.547 274.18 303.034 273.312V273.312ZM313.076 280.05L311.191 278.554C311.571 278.944 314.208 281.786 314.81 283.389C315.199 284.345 315.42 285.541 315.359 286.577C315.341 286.869 315.297 287.126 315.244 287.365L315.262 287.383L315.235 287.374C315.147 287.799 315.014 288.171 314.837 288.401C314.51 288.8 313.996 289.022 313.607 289.136L313.634 289.154C314.227 289.623 314.837 290.048 315.342 290.624C310.255 295.476 303.451 295.485 299.522 293.555C295.691 291.679 294.558 289.358 295.045 286.161C294.01 285.94 293.01 285.293 292.63 283.699L292.746 283.779C293.631 284.496 295.072 284.753 295.966 283.903C296.771 283.141 297.399 281.884 297.966 280.529C298.479 279.289 298.922 278.014 299.497 276.801C299.727 276.305 299.886 275.765 299.975 275.234C300.232 273.72 299.913 272.108 299.17 270.771C298.365 269.328 297.94 267.344 298.63 265.29C299.329 263.245 300.497 262.465 300.833 262.147C301.178 261.837 301.16 261.518 300.975 261.279C300.665 260.889 300.152 261.27 300.152 261.27C297.144 263.732 296.462 268.371 296.436 269.647C296.418 270.922 292.712 279.13 291.986 281.406C291.951 281.495 291.322 283.451 291.172 284.629C290.951 286.444 291.022 291.996 300.002 295.184C308.231 298.098 315.105 292.634 316.211 291.686C318.52 291.854 320.201 290.65 321.015 289.844C321.351 289.516 321.555 289.26 321.599 289.198C320.723 292.111 318.865 292.828 317.733 292.988C317.37 293.041 317.069 293.041 316.91 293.023L316.963 293.228C317.096 293.714 317.069 294.006 317.069 294.006C317.069 294.006 317.334 294.139 317.795 294.165C318.45 294.2 319.494 294.041 320.84 293.014C321.061 292.837 321.237 292.651 321.414 292.465C320.892 293.572 321.299 294.9 322.388 295.493C323.52 296.105 324.935 295.688 325.546 294.555C326.165 293.43 325.741 292.004 324.608 291.393C323.776 290.941 322.795 291.057 322.095 291.588C322.776 290.463 322.856 289.303 322.812 288.578C322.812 288.453 322.732 287.895 322.724 287.895L322.733 287.886C322.282 287.771 321.857 287.612 321.45 287.417C320.999 287.196 320.574 286.912 320.149 286.594C319.583 286.178 317.929 284.611 317.522 284.203C316.981 283.654 316.424 283.114 315.875 282.565C315.211 281.91 313.752 280.564 313.079 280.05H313.076ZM289.948 272.231C290.134 270.921 289.842 269.052 289.116 266.865C286.285 258.453 276.871 245.33 262.352 240.452C244.816 234.564 225.793 243.268 221.617 248.554C221.44 248.767 221.281 248.988 221.148 249.227L221.095 249.324C221.095 249.324 220.989 249.483 220.874 249.811C219.211 254.787 229.288 275.932 248.311 282.325C267.351 288.718 287.931 278.5 289.789 272.957C289.922 272.559 289.948 272.231 289.948 272.231ZM217.609 243.17C218.352 242.143 220.608 238.034 219.697 234.253C219.697 234.253 219.511 233.633 219.025 233.757C218.742 233.837 218.538 234.076 218.618 234.536C218.698 234.988 219.167 236.325 218.476 238.37C217.795 240.433 216.264 241.752 214.751 242.417C213.238 243.081 211.38 244.578 210.858 247.03C210.345 249.474 209.018 252.697 209.389 254.822C209.522 255.637 210.327 256.752 212.176 256.681C210.911 257.726 209.725 257.646 208.752 257.203C207.221 260.028 204.921 261.188 200.727 260.373C196.445 259.55 191.012 255.432 189.889 248.481C189.889 248.339 191.959 248.348 192.145 248.348H192.172C191.924 248.02 191.65 247.533 191.632 247.02C191.623 246.728 191.747 246.356 191.933 245.957L192.198 245.488C192.711 244.523 193.702 243.611 194.64 243.062L194.667 243.044C196.304 242.061 198.87 241.468 200.498 241.379C200.542 241.37 199.923 241.352 199.613 241.361C197.596 241.37 195.587 241.565 193.588 241.848C191.818 242.096 190.12 242.397 188.492 242.388C187.97 242.379 187.466 242.344 186.979 242.255C186.528 242.166 186.077 242.034 185.634 241.848C185.634 241.848 183.944 243.203 183.873 245.523C183.696 244.567 182.926 243.787 181.918 243.637C180.635 243.442 179.432 244.319 179.237 245.612C179.042 246.896 179.936 248.1 181.219 248.295C182.493 248.49 183.696 247.604 183.891 246.32L183.9 246.223C183.935 246.497 183.988 246.79 184.068 247.082C184.289 247.905 184.59 248.481 184.909 248.924C185.652 249.987 186.475 250.146 186.475 250.146L186.599 249.978C186.652 249.916 187.094 249.456 187.183 249.456C186.634 249.093 184.369 247.349 185.75 243.568C185.75 243.568 185.67 247.004 188.51 248.828C188.82 250.245 191.049 258.745 199.375 261.384C208.462 264.279 211.956 259.941 212.779 258.303C213.142 257.559 214.071 255.239 214.071 255.239C214.858 252.981 216.858 244.197 217.61 243.17H217.609ZM202.824 241.443C202.134 241.408 201.435 241.39 200.736 241.372C199.294 241.655 197.63 242.169 196.471 242.939C195.117 243.816 194.25 244.905 193.79 245.834C193.56 246.312 193.401 246.755 193.41 247.083C193.428 247.597 193.667 248.048 193.897 248.393C193.897 248.393 201.993 248.827 207.089 250.226C207.284 249.5 207.549 248.606 207.894 247.525C208.115 246.834 208.416 246.259 208.743 245.736C209.964 243.806 211.769 242.947 213.087 242.513C210.893 242.159 208.327 241.867 206.124 241.672C205.027 241.575 203.93 241.495 202.824 241.442V241.443ZM201.267 210.558C205.841 217.137 211.07 223.264 216.733 228.931C219.157 231.366 221.67 233.721 224.245 236.006C224.564 236.28 227.138 238.848 227.395 238.733C229.005 237.963 230.757 237.254 232.624 236.599C206.904 214.152 196.879 189.961 196.569 189.209L196.64 189.333C196.959 189.917 197.277 190.502 197.622 191.095C198.259 192.14 199.055 193.53 200.091 195.221C205.046 203.155 211.62 211.691 220.441 220.572C220.468 220.599 231.421 231.41 236.093 235.528C237.907 235.032 239.8 234.625 241.764 234.306C235.261 228.922 228.846 223.025 222.98 216.676C193.358 184.551 187.695 154.684 185.793 146.662L185.616 147.167C184.475 150.541 184.041 154.224 183.855 157.766C183.536 163.761 184.103 169.791 185.368 175.644C186.713 181.878 188.863 187.872 191.508 193.663C194.207 199.596 197.542 205.218 201.267 210.558V210.558ZM224.278 248.01C228.207 247.137 234.926 246.726 242.841 247.669C242.323 248.318 241.826 248.99 241.348 249.683C234.887 248.529 229.02 248.051 224.278 248.009V248.01ZM273.457 258.009C280.139 261.929 285.111 266.149 287.646 269.171C283.931 266.429 279.101 263.384 273.428 260.492C273.465 259.66 273.476 258.832 273.457 258.009Z" fill="#403737"/>
<path d="M287.84 274.079C280.792 278.525 265.062 282.638 249.912 277.553C235.043 272.556 225.164 259.837 222 252.092C221.629 251.288 221.533 249.118 223.705 248.112C223.705 248.112 222.333 248.308 221.097 249.322C221.097 249.322 220.988 249.482 220.877 249.814C219.213 254.782 229.289 275.932 248.313 282.323C267.348 288.717 287.935 278.499 289.793 272.96C289.92 272.557 289.946 272.233 289.946 272.233C289.514 270.877 288.688 270.033 288.688 270.033C289.746 272.031 288.661 273.497 287.84 274.079" fill="#F5F3EE"/>
<path d="M273.428 260.492L273.392 261.212C272.766 260.894 272.132 260.577 271.487 260.264C271.249 261.706 270.898 263.13 270.417 264.527C269.465 263.974 268.492 263.442 267.512 262.932C267.943 261.594 268.281 260.24 268.538 258.877C267.49 258.401 266.418 257.933 265.325 257.476C265.037 258.77 264.691 260.062 264.286 261.35C263.283 260.886 262.269 260.441 261.249 260.023C261.647 258.771 262.008 257.52 262.336 256.275C261.266 255.862 260.179 255.461 259.074 255.073C258.697 256.282 258.307 257.503 257.903 258.731C256.863 258.357 255.823 258.006 254.77 257.679C255.187 256.455 255.611 255.247 256.039 254.056C254.924 253.701 253.815 253.367 252.711 253.053C252.223 254.242 251.757 255.454 251.322 256.691C250.259 256.407 249.181 256.15 248.103 255.913C248.552 254.649 249.054 253.418 249.599 252.216C248.45 251.925 247.31 251.654 246.185 251.405C245.575 252.639 245.034 253.914 244.576 255.232C243.488 255.043 242.391 254.884 241.294 254.748C241.747 253.36 242.32 252.026 242.99 250.746C242.282 250.611 241.581 250.483 240.888 250.363L241.346 249.686C234.885 248.532 229.018 248.054 224.276 248.012C228.205 247.139 234.924 246.728 242.839 247.671L243.019 247.443C243.62 247.514 244.228 247.594 244.842 247.681C245.385 246.893 245.964 246.128 246.575 245.388C247.599 245.52 248.598 245.67 249.577 245.835C249.02 246.598 248.489 247.385 247.984 248.191C249.069 248.388 250.168 248.613 251.279 248.864C251.732 248.034 252.204 247.221 252.69 246.428C253.623 246.629 254.543 246.845 255.446 247.076C255.031 247.897 254.625 248.737 254.228 249.591C255.262 249.867 256.303 250.168 257.349 250.495C257.678 249.618 258.009 248.752 258.339 247.901C259.217 248.174 260.087 248.465 260.952 248.777C260.702 249.654 260.444 250.544 260.178 251.442C261.21 251.809 262.22 252.196 263.213 252.595C263.409 251.679 263.591 250.768 263.754 249.868C264.619 250.227 265.478 250.608 266.346 251.015C266.257 251.932 266.143 252.857 266.007 253.783C267.042 254.246 268.053 254.723 269.036 255.212C269.115 254.28 269.163 253.347 269.179 252.419C270.062 252.878 270.949 253.363 271.845 253.875C271.887 254.811 271.889 255.746 271.85 256.678C272.391 256.974 272.921 257.271 273.443 257.571L273.454 258.01C280.136 261.93 285.108 266.15 287.643 269.172C283.928 266.43 279.098 263.385 273.425 260.493L273.428 260.492ZM262.353 240.453C244.819 234.566 225.795 243.264 221.613 248.551C221.443 248.766 221.283 248.992 221.148 249.23L221.097 249.323C222.333 248.308 223.705 248.113 223.705 248.113C221.533 249.119 221.629 251.289 222 252.093C225.164 259.837 235.043 272.557 249.912 277.554C265.061 282.639 280.791 278.526 287.84 274.08C288.66 273.498 289.746 272.033 288.688 270.034C288.688 270.034 289.514 270.879 289.946 272.234C290.129 270.917 289.842 269.053 289.112 266.87C286.287 258.457 276.872 245.328 262.354 240.453H262.353Z" fill="#F5F3EE"/>
</svg>
