<svg width="500" height="500" viewBox="0 0 500 500" fill="none" xmlns="http://www.w3.org/2000/svg">
<path d="M166.461 373.536C164.932 374.053 161.764 373.2 161.764 373.2C162.821 381.538 163.979 384.4 163.979 384.4L162.141 386.645L164.356 388.346C161.969 404.858 168.985 416.222 172.221 427.29C169.666 428.138 166.739 428.002 164.556 426.809C165.409 436.172 164.629 454.213 157.049 462.042C155.601 461.108 154.562 460.849 153.999 460.001C152.86 462.641 152.011 463.662 149.71 470.385C148.435 474.894 147.327 481.195 146.728 487.999C140.497 484.801 133.703 481.444 127.571 471.115C126.209 468.684 125.256 466.706 121.921 463.458C121.154 464.987 121.018 465.449 119.484 466.892C117.864 468.421 113.643 470.294 113.611 470.126C112.758 465.971 111.737 462.129 109.268 457.447C106.903 452.257 98.793 445.362 92.154 428.51C89.431 422.046 88.074 416.289 86.944 409.621C86.436 409.875 86.091 410.047 85.75 410.134C83.281 410.81 81.511 410.642 80.658 408.773C78.566 414.407 75.979 417.537 73.764 419.066C72.743 422.3 72.911 423.153 70.701 425.793C68.659 428.855 67.973 429.622 66.562 435.405C64.261 441.279 60.821 444.174 60.313 445.702C59.46 443.829 59.119 444.173 58.271 442.812C49.925 453.871 48.904 456.766 30.001 460.68C34.771 451.317 38.007 435.662 37.662 432.428C35.279 410.472 33.069 405.873 31.862 388.852C31.159 380.342 29.153 359.411 31.027 331.495C33.069 297.795 42.6 268.69 50.774 246.734C61.335 216.096 85.511 166.737 103.156 136.579L103.224 109.212H110.036L117.184 92.872L120.42 95.258L132.683 62.574L141.365 87.256L156.21 77.884C162.142 72.445 204.372 11.518 293.797 11.645C380.444 11.518 469.67 79.254 469.67 187.508C469.67 285.882 389.299 361.788 296.525 361.797C224.637 361.788 178.322 325.198 153.765 291.666C155.331 308.518 152.063 342.046 166.463 373.532" fill="#F5F3EE"/>
<path d="M294.009 19.728C386.266 19.728 461.054 94.482 461.054 186.691C461.054 278.9 386.265 353.658 294.009 353.658C201.761 353.658 126.968 278.9 126.968 186.691C126.968 165.584 130.925 145.393 138.074 126.807H115.495V121.345L140.275 121.309C165.726 61.598 224.975 19.728 294.009 19.728V19.728ZM294.009 330.355C373.39 330.355 437.741 266.03 437.741 186.691C437.741 107.351 373.391 43.027 294.009 43.027C214.632 43.027 150.282 107.352 150.282 186.691C150.282 266.031 214.632 330.355 294.009 330.355Z" fill="#403737"/>
<path d="M203.531 173.086C203.531 173.086 204.044 172.401 203.699 171.553C203.018 171.213 202.342 172.574 202.342 172.574C201.997 173.168 201.316 173.935 200.209 174.956C200.468 169.853 201.058 166.618 203.699 161.683C201.657 162.704 194.504 172.062 194.504 172.062C191.1 176.149 188.718 178.703 188.718 178.703C187.356 179.724 184.121 185.68 184.121 185.68C184.629 181.257 185.483 178.531 185.483 178.531C179.184 183.131 172.372 197.933 172.372 197.933C171.523 192.317 172.88 187.382 173.393 182.278C181.054 148.75 196.548 129.344 196.548 129.344C202.684 121.855 213.24 109.942 225.499 100.92C231.798 96.665 243.212 89.176 248.318 84.072C253.083 80.665 259.387 75.39 263.644 73.176C269.43 69.601 274.709 68.581 278.457 67.392C278.457 67.392 285.482 66.104 289.013 65.346C299.914 62.284 315.917 62.792 321.027 64.666C324.09 65.011 324.09 65.011 328.347 65.519C342.992 66.54 355.764 76.578 360.361 83.732C360.869 86.794 364.105 89.688 364.105 89.688C369.556 96.157 372.619 97.685 374.661 100.239C376.708 102.453 378.923 106.195 380.965 109.602C382.499 112.836 385.562 119.133 389.647 123.22C393.909 127.643 394.757 134.112 392.375 137.682C389.307 140.753 391.181 143.811 395.266 145.684C402.078 151.3 402.591 155.383 405.827 163.552C408.55 171.214 411.278 175.296 412.639 182.105C413.152 190.275 409.571 191.981 407.102 193.341C404.297 194.697 398.842 194.189 398.842 194.189C397.907 193.849 396.632 193.509 396.632 193.509C401.061 199.297 400.467 205.925 400.376 207.299C400.294 208.574 399.695 208.828 399.695 208.828C398.588 209.427 396.886 209.25 396.886 209.25C394.585 209.849 395.951 211.382 395.951 211.382C398.502 212.911 396.632 215.977 396.632 215.977C393.991 218.613 392.207 223.122 392.207 223.122C391.013 225.168 393.056 231.804 393.056 231.804C395.098 239.121 392.035 242.355 392.035 242.355C389.307 244.909 387.097 246.61 385.05 247.29C383.207 247.907 377.221 246.95 377.221 246.95C374.661 247.122 368.367 248.991 368.367 248.991C362.404 250.016 358.074 251.804 350.313 250.692C346.737 250.184 347.431 255.441 347.417 256.14C347.249 264.822 345.715 269.077 345.715 269.077C344.526 275.378 342.992 284.564 342.992 284.564C341.63 304.392 343.16 309.668 343.16 309.668C343.16 310.435 342.484 310.099 342.484 310.099C328.179 310.099 307.742 301.249 307.742 301.249C298.547 295.456 279.636 286.824 271.811 284.565C251.279 278.636 237.927 280.823 217.668 284.565L216.474 283.544C230.094 271.119 240.991 259.715 242.357 238.44C242.525 231.803 242.525 221.084 236.906 214.103L235.544 212.57C235.372 222.613 228.732 229.082 228.732 229.082C229.926 222.105 227.538 222.445 227.538 222.445C224.475 231.291 216.473 240.998 216.473 240.998L215.107 240.313C213.913 243.72 212.198 246.668 211.531 249.331C210.682 252.738 206.766 257.673 206.766 257.673C206.253 253.418 205.4 251.032 205.4 251.032C203.698 256.652 199.273 263.629 199.273 263.629C196.377 267.036 194.676 272.652 194.676 272.652C186.67 252.397 197.231 216.996 197.231 216.996C195.951 215.549 192.293 223.977 192.293 223.977C191.78 201.504 203.53 173.084 203.53 173.084L203.531 173.086ZM304.661 235.22C304.221 233.519 301.461 233.669 299.505 233.873C296.505 234.191 293.782 234.699 290.882 236.232C292.802 233.347 295.144 233.165 299.605 231.46C300.626 231.07 300.381 229.283 299.728 228.235C298.975 227.037 298.008 226.978 297.627 226.901C293.951 226.189 292.762 227.037 290.828 227.536C284.066 229.273 277.435 234.359 273.75 239.24C272.679 240.664 273.028 242.161 273.255 242.474C273.931 243.404 275.002 245.971 275.293 245.663C278.03 242.701 281.352 239.974 284.928 240.823C283.394 241.34 278.03 244.057 276.328 247.999C276.224 248.244 277.009 249.677 278.03 250.444C279.392 252.739 279.904 253.674 280.667 254.1C281.162 254.059 282.156 253.061 282.428 252.635C286.204 247.631 289.948 244.574 300.337 243.209C303.319 242.701 305.021 241.848 305.275 239.122C305.275 239.122 305.87 237.761 304.676 235.039L304.662 235.22H304.661ZM292.248 251.034C292.416 253.592 292.044 254.745 292.77 256.405C293.464 257.988 294.908 259.354 295.457 260.973C295.884 262.216 297.354 263.804 297.354 264.652C298.039 265.337 298.13 265.94 298.135 265.945C299.034 267.12 301.707 268.558 300.772 269.256C299.656 270.1 296.338 269.505 294.337 269.174C291.773 268.752 293.261 271.084 293.815 271.32C296.42 272.395 301.898 272.763 303.695 273.751C304.775 274.35 306.191 275.257 306.659 276.328C307.004 277.122 307.621 277.816 308.143 278.514C309.872 280.823 310.485 281.835 312.268 283.3C313.162 284.026 314.201 285.273 313.879 286.389C313.502 287.695 312.681 287.972 311.428 287.8C311.02 287.746 309.785 287.374 308.596 286.866C306.209 286.099 305.696 285.228 304.003 286.099C303.064 286.58 304.421 288.149 305.464 288.707C309.753 290.989 314.895 291.034 319.043 293.443C322.606 295.512 324.77 298.016 324.566 303.314C324.566 303.409 325.846 304.126 325.923 304.004C327.157 302.099 330.221 304.467 331.709 303.999C331.841 303.958 331.9 303.16 331.682 302.824C330.969 301.753 329.445 301.699 328.8 300.665C328.115 299.576 329.109 298.383 328.764 297.431C328.41 296.456 326.763 298.143 326.145 297.504C323.413 294.669 321.629 291.307 317.958 289.674C319.492 285.419 320.177 280.651 319.832 278.438C318.811 277.59 318.384 278.951 318.13 279.123C317.286 279.921 317.617 281.672 316.632 283.011C316.473 283.233 315.157 282.966 314.776 282.634C312.266 280.497 309.938 277.966 308.767 274.931C308.722 274.818 308.218 274.192 308.109 274.042C306.262 271.465 306.38 267.864 308.517 265.269C308.748 264.997 309.084 263.4 308.857 263.219C308.498 262.933 307.636 263.537 307.291 263.89C306.125 265.079 305.135 267.456 303.157 267.247C300.938 267.011 300.089 264.77 298.718 263.296C298.291 261.844 297.479 260.914 297.692 260.742C295.822 258.016 295.65 255.802 293.93 252.404C293.54 251.633 292.995 251.261 292.246 251.034H292.248ZM250.531 89.007C250.531 89.007 247.123 88.662 239.121 94.791C230.267 100.239 218.517 108.069 210.003 118.452C203.785 124.662 195.017 134.111 191.781 140.748C191.781 140.748 186.503 149.086 183.094 162.704C183.094 162.704 184.288 167.127 187.696 161.343C193.65 151.227 216.302 117.178 248.656 92.323L250.19 92.241C234.169 106.018 213.406 124.576 193.228 156.148C192.479 157.327 191.499 159.41 191.408 159.573C190.505 161.256 192.819 161.519 191.649 161.233C193.483 161.682 194.168 159.128 195.348 158.62C196.079 158.307 196.374 160.489 197.54 159.926C201.656 157.935 204.724 153.68 206.426 151.13C206.512 151.856 207.447 154.024 207.447 154.024C209.321 154.532 215.108 146.53 218.176 141.086C219.025 142.107 217.963 144.602 219.097 143.531C222.601 140.229 225.714 136.686 227.579 133.456C229.753 129.682 232.136 127.981 232.989 121.344C234.351 122.192 234.323 122.564 234.695 122.873C235.544 121.852 235.603 120.786 236.964 119.258C238.439 117.598 238.734 116.305 240.527 115.121C241.162 114.704 242.578 112.045 242.86 110.653C243.128 109.333 246.064 105.055 246.268 103.64C248.655 99.217 252.74 96.831 255.635 93.429C258.358 91.047 256.316 86.792 250.529 89.006L250.531 89.007ZM220.559 221.934C221.753 223.295 222.774 221.508 222.774 221.508C224.73 218.528 225.157 217.761 226.523 213.769C227.372 211.129 228.393 210.19 229.242 199.126C231.629 202.701 231.97 209.51 231.97 209.51L232.651 209.338C232.651 209.338 234.866 203.042 238.61 201C238.61 201 238.95 196.745 242.695 192.49C242.187 189.936 241.846 187.895 241.333 183.808C239.804 176.999 238.95 165.595 240.484 157.77C243.552 174.105 245.336 176.491 245.336 176.491L246.021 176.745C247.296 174.79 247.637 171.383 247.973 168.321C249.507 161.852 252.235 162.537 252.235 161.172C251.382 155.896 250.02 147.559 250.873 140.409C252.575 148.234 253.424 147.726 254.617 150.62C256.151 154.195 256.319 149.767 256.319 149.767C255.979 145.176 259.215 140.576 256.151 129.857C254.957 122.535 251.549 106.876 252.915 103.302C253.768 98.875 252.234 100.408 252.234 100.408C252.234 100.408 247.805 101.433 241.165 120.154C231.462 151.3 223.116 184.492 214.093 211.383C216.812 197.252 231.289 147.385 235.546 129.344C235.546 129.344 234.947 128.069 234.012 129.512C232.905 130.791 231.797 132.406 231.203 133.513C231.289 133.44 230.695 133.599 230.009 133.939L227.885 137.173C227.885 137.173 223.623 143.129 211.96 155.214C210.004 158.276 209.16 159.691 207.022 164.577C206.255 166.36 207.449 166.618 208.724 165.593C211.874 162.536 212.046 162.536 216.385 159.215C216.58 159.065 220.084 157.809 220.084 157.75C219.539 158.449 218.809 158.911 218.518 159.183C217.324 160.317 214.374 163.642 213.567 165.044C211.593 168.464 209.423 172.715 206.582 177.868C203.019 184.314 200.296 191.808 200.296 191.808C198.422 197.084 198.934 197.592 198.934 197.592C201.489 198.617 200.096 199.91 200.096 199.91C198.934 202.019 198.421 203.72 200.382 202.958C201.657 202.699 202.343 202.042 202.869 201.388C203.872 200.15 204.725 199.297 205.411 198.439C206.559 197.015 206.346 196.588 207.567 195.173C209.155 193.34 210.172 191.807 211.792 191.04C208.983 194.869 208.81 197.59 208.81 197.59L209.491 198.447L210.004 198.783C210.004 198.783 207.108 202.358 205.747 210.459C205.098 214.301 205.234 214.782 204.635 216.91C204.925 216.633 206.596 216.91 208.102 215.39C207.448 217.758 207.317 218.956 207.317 218.956C207.022 220.911 207.022 220.571 207.022 222.785C207.022 224.831 207.022 223.978 207.703 226.355C210.766 224.994 211.447 225.166 214.334 221.769C215.709 220.485 216.748 217.373 217.152 217.591C217.919 217.936 217.279 219.664 216.939 220.435C216.476 221.506 216.059 222.299 215.882 223.071C215.791 223.461 215.405 224.042 216.027 224.577C216.299 224.808 216.109 224.777 216.985 224.754C217.493 224.745 217.97 223.956 217.97 223.956C217.97 223.956 218.26 223.888 218.519 223.294C218.732 222.795 219.114 222.527 219.454 222.273C219.454 222.273 219.962 221.76 220.561 221.933L220.559 221.934ZM301.002 89.787C300.48 89.225 298.647 89.515 298.32 88.739C298.098 88.217 297.839 87.596 297.517 87.337C296.95 86.888 296.165 87.505 295.384 87.623C294.317 87.791 293.215 87.564 292.162 87.219C290.324 89.319 285.45 87.931 283.149 88.09C282.868 88.104 284.597 89.088 284.905 89.356C286.525 90.73 289.176 90.608 291.145 90.676C291.463 90.685 292.112 90.349 292.361 90.318C294.476 90.028 296.582 90.744 298.806 91.135C299.505 91.262 301.692 90.532 301.003 89.788L301.002 89.787ZM346.413 91.71C345.047 90.834 344.888 89.138 344.148 87.872C343.581 86.897 342.841 86.121 341.951 85.663C337.948 83.59 333.283 79.984 330.301 80.265C329.362 80.347 328.98 81.354 329.516 81.875C330.542 82.878 332.357 83.213 332.516 84.837C336.505 86.824 343.499 88.153 343.177 92.508C343.145 92.93 345.732 91.614 346.413 91.71V91.71ZM334.091 92.749L329.031 89.855C328.736 89.356 328.341 88.757 327.856 88.308C326.721 87.269 326.122 86.035 324.815 85.21C323.072 84.108 321.638 82.665 319.741 81.967C319.537 81.894 319.292 81.976 319.069 81.926C318.933 81.89 318.851 81.767 318.897 81.604C318.725 81.604 318.493 81.663 318.416 81.572C318.148 81.282 317.744 81.109 317.499 81.032C316.514 80.71 315.38 81.291 314.513 80.528C314.005 80.079 313.428 79.825 312.884 79.476C311.368 78.501 309.653 79.095 308.019 79.349C307.701 79.399 307.229 79.825 306.88 80.125C306.263 80.647 305.264 79.694 304.447 79.966C303.739 80.202 302.958 81.027 303.63 81.712C304.356 82.447 305.336 82.946 306.326 83.195C309.262 83.934 312.33 83.213 315.103 84.433C315.893 84.782 316.868 85.181 317.191 86.198C316.914 86.262 316.619 86.516 316.37 86.334C315.694 85.849 314.945 85.853 314.291 85.803C309.626 85.422 304.978 85.041 300.335 85.685C300.33 86.869 300.812 88.121 301.887 88.271C303.326 88.462 304.887 88.012 306.276 88.112C307.796 88.23 309.398 89.21 310.919 90.067C311.137 90.194 311.486 90.176 311.731 90.076C312.412 89.786 313.002 88.806 313.755 89.164C314.213 89.382 314.699 89.586 315.198 89.668C316.255 89.854 317.022 89.659 318.039 89.809C320.186 90.131 322.01 91.569 324.152 91.256C325.74 91.02 326.471 91.56 327.261 92.277C326.812 91.873 330.197 94.291 330.501 93.697C330.619 93.461 334.041 93.271 334.091 92.749V92.749Z" fill="#403737"/>
<path d="M333.778 92.999C334.354 93.156 335.013 93.2 335.839 93.088C337.886 93.088 338.394 92.848 338.735 92.766C340.478 92.335 341.867 93.356 343.178 92.507C343.146 92.929 345.733 91.613 346.414 91.709L346.112 91.487C347.426 92.157 349.309 92.226 350.063 92.321C353.381 92.747 359.766 92.362 361.404 92.952C364.617 94.109 365.892 95.075 368.897 98.001C369.346 98.441 371.992 101.122 372.401 101.657C374.212 103.989 375.455 105.667 376.876 108.185C378.238 110.621 380.625 114.704 381.201 117.775C381.673 120.293 384.042 121.227 385.88 123.064C387.31 124.488 388.971 126.276 390.06 128.349C390.963 130.068 391.217 132.527 390.323 133.988C389.406 135.476 387.437 135.639 386.057 135.158C385.612 134.995 384.732 134.514 384.282 134.437C381.681 133.974 382.158 133.924 380.052 134.101C379.539 134.142 378.84 134.754 378.441 134.913C376.748 135.575 375.087 136.319 373.467 137.081C373.036 137.285 372.228 137.512 372.087 138.124C371.787 139.403 373.281 139.127 374.007 139.435C374.869 139.802 374.397 140.995 373.998 141.817C373.957 141.899 373.558 141.998 373.44 142.094C372.06 143.142 370.717 143.931 369.846 145.446L369.696 146.39C368.766 146.894 367.767 146.277 368.108 145.342C368.004 145.179 367.768 144.575 367.014 145.024C366.792 145.16 366.211 146.235 366.115 146.43C365.874 146.934 365.212 145.682 364.545 146.534C363.751 147.546 364.786 148.099 365.471 148.317C365.131 148.916 365.185 149.056 365.185 148.957C365.171 148.712 364.386 150.549 365.367 150.635C366.148 150.703 366.066 150.703 366.747 150.023C367.514 149.683 367.623 150.549 367.863 151.075C368.163 151.719 367.722 152.54 368.122 153.248C368.263 153.493 368.453 153.797 368.644 153.869C369.52 154.205 370.164 154.98 370.65 155.706C370.904 156.092 371.471 156.527 371.971 156.904C372.089 156.995 372.175 157.503 372.275 157.607C372.888 158.228 373.546 158.714 374.104 159.136C375.184 159.939 377.472 159.381 377.272 157.83C377.109 156.61 375.856 155.979 374.699 155.108C373.841 154.464 373.219 153.597 372.421 152.876C371.949 152.45 372.18 151.647 372.739 151.275C373.474 150.79 374.436 150.967 374.736 151.13C375.689 151.638 376.284 153.258 377.527 153.847C378.521 154.323 378.262 154.242 379.392 154.432C379.8 154.5 380.354 154.586 380.567 154.241C380.64 154.123 380.721 154.023 380.798 153.765C380.539 153.425 380.966 153.425 380.535 152.785C380.122 152.168 379.686 151.873 380.231 151.324C380.54 151.016 380.826 150.703 381.225 150.703C381.82 150.023 382.255 149.424 382.827 150.254C383.435 151.13 383.671 151.597 384.216 151.864C384.588 152.045 385.151 151.751 385.337 151.506C387.03 149.297 387.039 146.389 389.027 145.06C389.059 145.037 389.74 145.087 389.74 145.083C391.61 147.129 394.419 147.555 397.827 152.491C399.189 154.36 401.313 159.128 401.399 160.148C402.593 162.702 403.614 165.682 404.127 167.125C405.316 170.7 406.342 173.594 407.871 176.148C410.426 180.571 410.767 184.232 408.978 187.974C408.383 189.172 406.595 191.041 403.273 191.639C402.247 191.639 400.205 191.807 399.102 190.954C398.081 190.446 396.887 189.339 394.845 186.953C393.992 186.273 391.863 184.998 389.308 185.51C388.881 185.846 388.069 186.485 387.688 187.465C386.93 189.252 383.862 189.252 381.82 187.547C376.882 183.977 381.648 178.193 383.349 176.569C382.5 176.061 382.328 176.32 381.225 176.32C378.924 177.336 378.665 180.997 377.73 182.612C376.196 184.313 374.494 187.72 373.305 190.446C370.577 193.848 369.384 195.89 369.384 195.89L370.75 196.062C370.75 196.062 373.387 194.787 375.602 191.04C376.455 190.019 376.964 189.339 378.584 189.421C379.601 190.106 383.177 192.742 389.649 191.979C391.523 192.061 392.545 193.589 393.824 194.787C399.188 199.804 397.654 206.441 397.654 206.441C394.586 206.273 393.397 206.101 390.842 206.359C389.362 206.935 387.334 207.262 385.564 208.06C384.071 208.455 381.225 208.232 379.265 207.892C377.304 209.507 376.369 212.233 376.369 212.233L377.39 212.827C378.157 212.142 379.519 211.208 379.519 211.208C381.561 210.782 382.755 211.38 384.203 211.38C386.931 211.634 389.567 211.38 390.924 211.974C393.738 212.741 394.927 214.356 392.885 216.651C391.95 218.184 390.162 219.718 388.633 222.784C388.12 224.993 388.016 226.549 389.482 228.654C389.99 231.036 391.016 233.68 391.184 236.23C391.692 239.632 389.223 240.739 388.883 241.587L386.246 243.547C384.544 244.055 383.01 244.055 381.476 243.375C379.266 242.522 377.9 242.186 373.307 241.846C368.024 242.699 359.338 239.464 356.106 237.759C352.702 235.205 345.205 233.164 340.439 233.164C337.376 233.164 335.329 232.824 332.093 231.803C322.898 229.762 317.62 228.401 311.148 222.445C308.085 219.719 309.786 217.677 312.854 213.935C321.028 200.317 328.516 179.895 327.499 155.213C326.473 147.896 329.201 137.34 329.201 137.34C331.075 130.703 331.584 129.17 332.605 121C333.335 107.256 331.542 97.943 330.46 93.748L330.504 93.696C330.601 93.502 332.923 93.339 333.78 92.999H333.778ZM329.318 90.018L328.886 89.615L329.031 89.854L329.318 90.018V90.018ZM303.544 80.633L303.511 80.668C302.919 81.326 303.123 81.536 303.649 81.731L303.629 81.711C303.28 81.355 303.323 80.962 303.544 80.633ZM316.676 86.385L316.408 86.359C316.493 86.405 316.584 86.406 316.676 86.385ZM373.398 148.046C372.99 147.828 373.121 147.506 373.253 147.211C373.553 146.531 373.893 146.277 374.456 145.224C375.096 144.026 376.535 143.809 377.474 142.03C377.515 141.962 379.199 140.592 379.398 140.519C380.455 140.147 381.163 140.945 381.327 141.395C381.645 142.28 381.622 143.033 381.726 143.858C382.243 147.755 381.844 143.472 382.026 146.054C382.071 146.617 380.669 147.324 380.41 147.551C378.749 148.998 376.924 148.708 376.924 148.708C374.832 148.404 374.41 148.576 373.398 148.046V148.046ZM305.19 296.991C277.773 283.033 260.913 274.015 222.427 281.164C243.208 262.443 246.953 244.574 244.225 223.635C248.686 227.5 252.848 230.966 254.872 232.54C256.805 234.042 260.236 235.806 262.36 236.509C263.767 236.972 265.342 237.335 267.384 238.351C269.685 239.49 268.659 242.733 270.003 245.205C271.042 247.124 271.56 247.378 272.753 248.644C275.49 251.529 273.511 252.74 276.629 255.888C277.868 257.145 279.543 257.285 280.373 258.573C282.542 261.93 281.93 263.903 284.421 265.636C287.648 267.886 288.415 272.654 289.763 275.326C290.63 277.036 292.763 279.4 294.138 280.724C296.893 283.382 298.545 284.825 299.393 286.866C299.942 288.191 300.659 289.465 301.59 291.13C301.998 291.851 303.995 294.95 304.849 295.544C304.849 295.544 307.409 298.121 305.189 296.991H305.19ZM319.74 270.272C319.658 269.079 318.297 268.226 317.87 266.611C315.914 259.888 313.531 257.675 310.55 254.867C309.188 253.334 308.167 246.951 306.974 244.057C308.767 241.675 308.426 239.974 308.426 237.593C312.937 239.267 318.011 240.9 322.486 242.705L328.177 245.422C328.177 245.422 328.268 249.872 329.221 254.145L330.12 257.143C331.917 262.636 336.519 268.547 338.561 273.809C341.289 280.822 339.732 289.124 339.972 297.153C339.995 297.97 339.754 300.564 339.84 302.098C339.327 301.676 335.669 297.757 335.156 297.33C333.79 296.055 333.558 296.033 333.127 295.729C330.613 293.928 330.472 294.1 330.281 291.528C330.558 286.266 327.835 281.163 323.9 277.865C323.197 277.284 321.858 275.202 321.39 274.041C320.441 271.669 319.851 271.982 319.738 270.271L319.74 270.272ZM389.055 173.699C388.311 173.944 388.796 174.892 388.937 174.919C392.032 175.468 392.949 175.482 395.785 178.194C395.953 178.362 396.57 178.407 396.847 178.221C397.65 177.681 397.196 176.683 396.638 176.302C393.393 174.102 391.991 172.736 389.054 173.698L389.055 173.699ZM371.682 203.634V203.806C371.795 203.538 371.387 203.398 371.51 203.126C370.262 202.709 368.773 203.253 368.192 204.36C367.076 206.483 366.785 208.937 367.38 211.264C367.539 211.885 368.633 212.085 369.027 211.559C369.926 210.366 369.653 208.742 370.234 207.417C370.797 206.147 371.251 204.958 371.682 203.634V203.634ZM342.396 187.975H342.224C342.564 189.721 342.369 191.554 342.887 193.205C342.978 193.491 343.327 194.171 343.763 194.194C344.199 194.217 344.38 194.593 344.766 194.67C345.011 194.715 345.224 195.096 345.22 195.291C345.193 196.221 345.683 197.26 346.146 197.273C348.742 197.346 350.249 198.924 351.361 201.025C351.447 201.197 352.178 201.22 352.382 200.875C353.644 198.752 355.259 197.196 356.961 195.558C357.283 195.25 358.205 195.426 358.459 195.05C359.058 194.152 359.344 193.145 359.802 192.169C360.574 190.513 360.964 188.649 362.117 187.238C364.159 184.729 364.79 182.956 367.527 180.91C367.79 180.719 369.052 179.372 369.224 179.082C370.059 177.649 371.257 176.827 372.142 176.011C372.555 175.63 373.331 174.782 372.95 174.632C371.602 174.101 371.77 175.126 369.383 176.537C367.736 177.503 367.885 178.742 365.68 179.236C364.278 179.554 362.657 179.994 361.527 180.747C359.004 182.425 356.73 183.768 354.111 185.011C351.992 186.014 349.663 186.454 347.335 186.399C345.315 186.358 343.414 185.555 341.372 185.415C341.091 185.397 341.358 185.864 341.032 185.764C340.914 186.753 341.427 187.665 342.398 187.973L342.396 187.975Z" fill="#F5F3EE"/>
<path d="M120.265 140.407C114.642 148.404 110.557 161.002 108.515 170.02C111.066 168.659 111.238 168.827 113.625 167.979C114.474 163.724 121.186 139.092 120.265 140.407ZM153.3 417.837C156.767 426.157 157.212 434.177 154.149 449.664C150.745 446.43 150.573 443.535 148.018 442.002C147.682 450.852 147.342 453.579 145.64 457.493C142.059 464.47 141.038 468.044 140.87 474.849C134.907 469.914 133.373 463.109 129.288 459.194C126.392 456.295 120.606 450.852 118.564 447.277C118.224 451.537 118.564 453.07 116.862 457.153C115.491 452.435 115.328 451.024 112.092 447.11C107.83 441.154 98.3 427.876 96.085 413.755C95.572 411.369 94.211 404.388 92.681 394.861C91.487 398.091 89.445 400.645 87.398 401.153C86.377 401.666 86.377 400.305 86.377 400.305C87.226 397.243 87.571 393.836 87.226 391.282C86.718 387.54 85.697 379.197 83.822 377.156H82.973C83.141 382.772 80.931 385.326 79.565 387.199C79.397 382.772 79.565 379.365 78.544 377.156C78.036 375.623 76.842 374.262 76.502 375.795C75.653 380.222 75.308 381.071 75.308 385.158C74.968 391.282 74.968 393.328 74.287 398.436C73.951 402.178 72.758 406.769 69.349 411.369C68.673 407.286 66.113 404.052 66.113 404.052C66.113 408.987 67.139 416.305 64.071 420.219C60.327 425.322 59.814 427.876 58.625 431.623C58.108 427.196 56.751 428.556 56.065 426.175C53.346 437.752 44.832 446.602 41.764 448.643C43.806 443.875 45.508 438.427 45.849 435.025C45.849 435.025 45.341 422.432 43.466 415.279C38.801 393.01 36.549 341.56 40.062 322.013C48.517 252.367 84.516 188.437 115.032 130.876H111.238V117.426H115.327L120.859 105.006L124.522 107.814L132.097 84.751L135.419 101.685L149.892 90.362L138.142 117.09H142.177C141.533 118.492 140.884 119.884 140.275 121.309L115.495 121.345V126.807H138.074C137.561 128.141 137.103 129.52 136.622 130.876H128.553L135.156 135.14C134.725 136.46 134.316 137.794 133.917 139.132L130.972 137.218C129.76 142.652 125.866 161.269 126.738 172.234C137.126 182.277 144.787 191.98 143.594 213.768C143.594 213.768 144.275 214.272 139.845 212.911C142.06 215.297 142.745 217.171 144.615 221.253C145.464 227.89 145.977 233.846 145.464 239.974C145.464 239.974 145.977 255.125 146.49 259.888C148.532 260.568 147.343 266.012 147.511 273.161C147.511 273.161 147.343 277.588 146.658 280.995C142.406 277.588 142.746 277.761 141.552 278.096C142.573 281.503 143.254 281.503 145.296 284.229C145.296 304.484 145.977 325.414 147.343 334.605C148.019 341.242 149.213 348.903 149.726 351.285C150.747 354.352 150.747 357.073 153.811 363.542C152.79 363.542 149.94 363.619 148.02 361.16C150.748 366.263 150.748 365.243 152.449 366.944L154.832 384.649L152.109 387.706L155.853 390.092C155.853 390.092 155.004 398.089 156.025 405.411C156.538 408.818 157.554 412.22 159.942 416.983C155.004 417.155 154.151 413.068 154.151 413.068C152.789 411.535 150.402 408.133 149.726 408.133C149.386 413.068 152.109 414.937 153.302 417.836L153.3 417.837Z" fill="#403737"/>
<path d="M80.59 348.26C79.995 348.596 79.228 347.203 79.061 350.778C78.97 352.715 79.311 356.076 77.935 357.487C77.654 357.777 76.9 357.587 76.328 357.587C76.401 356.421 75.729 354.729 74.295 354.924C73.837 354.983 74.032 355.645 73.868 355.795C72.988 356.593 71.54 356.199 71.449 355.178C71.181 352.361 69.348 349.412 68.363 347.983C67.65 346.944 67.632 345.352 67.814 343.968C64.832 346.49 66.176 350.868 67.832 353.63C68.917 355.44 69.23 358.239 67.728 359.523C67.388 359.813 66.575 359.795 66.14 359.264C64.075 356.728 64.066 353.63 63.049 350.777C62.078 352.024 61.515 352.478 61.905 355.526C62.323 358.774 63.82 360.489 63.484 363.682C63.28 365.596 63.861 367.919 62.272 369.398C61.559 370.065 60.207 369.638 59.821 369.04C58.695 367.284 59.036 364.98 58.183 363.075C57.952 362.558 56.958 362.454 56.699 362.78C55.401 364.413 55.047 366.459 54.67 368.5C54.375 370.074 55.106 371.598 54.856 373.24C54.774 373.757 54.479 374.329 54.139 374.497C53.495 374.819 52.519 374.81 51.856 374.502C50.998 374.103 50.626 372.864 50.372 372.13C49.156 368.601 49.877 364.627 51.221 360.898C52.047 358.607 49.147 356.847 48.884 354.506C48.68 352.655 47.967 350.877 48.23 349.099C48.38 348.074 48.661 347.062 48.743 346.01C47.922 347.248 46.374 347.453 45.339 348.392C44.4 345.734 46.324 343.212 45.679 340.562C45.602 341.433 44.767 341.696 44.313 342.268C43.805 340.952 44.181 339.419 43.505 338.258C42.761 336.983 42.747 337.931 42.575 336.407C45.339 292.033 59.812 247.097 82.291 202.019C85.182 191.98 114.473 136.833 118.73 131.044H122.306C114.641 141.94 106.471 158.616 103.063 173.427C100.508 175.809 95.738 186.192 95.738 186.192C94.549 182.958 94.889 181.932 94.381 180.404C91.994 184.146 92.334 188.406 92.334 191.296C92.166 194.363 92.166 197.592 90.292 200.319C89.443 203.553 87.396 205.935 86.548 208.316C85.695 210.362 85.522 209.337 85.182 211.55C87.397 211.89 88.931 208.316 92.167 208.316C91.318 215.297 89.276 232.998 86.208 236.573C85.523 233.339 83.653 230.272 82.119 229.592L81.606 230.105C85.182 246.785 84.334 256.996 83.993 262.272C84.506 262.104 87.397 259.89 88.078 261.079C87.397 262.272 85.182 263.633 83.313 264.998C81.947 270.614 81.098 277.251 80.077 280.997C77.862 275.889 75.82 267.379 73.605 259.545C73.265 270.273 76.841 284.735 78.711 291.376C78.543 294.951 78.035 299.378 76.669 306.863C75.48 303.633 73.093 299.718 69.349 296.312C72.925 305.335 76.161 316.907 76.502 324.224C79.565 322.183 80.419 321.675 83.655 319.456C83.655 322.014 79.806 326.759 79.566 326.95C78.545 327.29 77.828 327.63 78.545 329.504C79.212 334.158 80.274 340.954 80.592 348.262L80.59 348.26ZM142.403 364.831C141.523 363.965 140.465 363.189 140.306 361.819C139.593 363.425 140.156 365.117 140.91 366.537C141.346 367.358 142.321 367.798 142.975 368.51C143.697 369.304 143.955 370.374 144.359 371.368C144.89 372.652 143.624 373.387 142.82 373.536C140.337 374.003 140.265 370.438 139.48 368.696C138.926 367.462 137.329 366.977 136.494 365.829C136.294 365.557 135.927 365.28 135.745 364.963C135.037 363.711 133.598 362.813 132.981 361.479C132.858 362.069 133.072 362.645 133.231 363.157C134.42 366.918 136.331 370.234 137.978 373.786C138.436 374.775 138.949 375.741 139.231 376.816C139.476 377.728 139.349 378.826 138.818 379.406C138.278 379.996 137.03 378.712 136.785 379.143C135.873 380.735 137.293 382.631 138.092 384.201C138.655 385.294 139.685 386.397 139.204 387.662C139.104 387.911 138.768 388.247 138.423 388.338C137.22 388.66 136.149 387.88 135.514 387.213C133.004 384.577 130.817 381.946 128.82 378.785C128.058 377.578 128.475 376.004 127.622 374.82C127.132 374.135 126.211 373.033 125.371 373.786C125.085 374.045 124.763 374.389 124.699 374.77C124.431 376.321 124.114 377.773 123.174 378.93C122.915 379.248 122.389 379.774 122.284 379.969C120.986 382.346 120.714 385.068 120.292 387.849C120.188 388.511 120.029 389.346 119.339 389.691C118.722 390.004 118.291 389.505 117.928 389.042C117.47 387.5 117.007 385.971 116.566 384.524C106.518 345.63 102.583 304.159 104.085 262.103C105.447 221.254 111.578 188.574 124.857 133.431L127.753 135.3C127.753 135.3 122.475 157.936 123.501 173.768C130.654 179.897 138.314 188.234 138.65 205.427C138.06 205.676 137.974 205.509 137.461 205.087C135.419 202.447 129.968 201.594 125.884 194.957C126.479 199.126 138.483 215.806 139.336 219.04C139.504 229.424 141.038 244.484 140.185 247.46C137.294 246.017 135.76 242.701 136.1 244.743C138.315 250.445 140.185 255.462 142.826 259.636C142.826 259.636 143.08 274.356 142.572 272.315H141.887C139.504 270.614 137.126 268.573 135.334 266.867C134.231 266.273 134.059 264.826 132.016 262.871C128.948 260.063 127.246 257.677 125.971 257.164C122.735 254.869 120.52 254.102 118.646 253.503C118.047 253.503 116.862 253.335 116.862 253.335C116.862 253.335 122.989 258.529 126.906 264.404C131.59 270.015 133.546 273.331 135.166 276.738C136.95 280.145 139.505 283.547 141.552 286.441C141.552 291.122 141.212 306.696 141.466 309.331L140.186 308.397C137.127 306.524 133.8 302.355 130.991 296.911C129.462 304.736 137.803 313.931 141.638 316.993C142.913 331.545 142.913 338.35 145.296 353.669L145.124 354.862C141.72 352.48 138.144 348.738 133.891 342.609C133.546 348.561 139.505 356.395 145.809 363.88C146.222 364.374 146.381 364.951 146.485 365.54C145.768 364.51 143.335 365.753 142.405 364.832L142.403 364.831ZM92.589 381.724L92.167 382.091C91.486 382.599 89.957 382.808 89.784 381.583C87.91 373.245 86.888 362.862 86.888 354.352C87.741 352.138 90.124 348.051 91.994 343.628L91.826 342.607C89.784 343.628 86.375 347.034 85.695 348.903L84.846 347.71C84.165 344.308 83.48 337.671 83.48 330.69C83.14 329.415 83.652 328.649 84.165 327.628C85.522 324.394 87.065 320.792 88.25 317.244C89.276 313.669 94.971 302.61 96.678 300.051L95.571 301.076C92.421 302.183 84.334 311.968 83.313 312.648L82.546 312.734C82.973 302.949 85.696 281.161 87.57 267.802C89.444 262.776 104.085 247.457 100.681 250.183C94.037 252.565 91.827 254.951 90.46 255.631L88.418 256.311C90.456 246.812 94.69 212.463 99.147 203.205C102.383 197.589 105.619 196.06 108.006 189.932L106.304 190.78C105.11 191.978 99.832 195.888 96.592 200.315L95.571 200.483C97.105 196.06 97.613 191.292 100.681 185.168C101.534 182.61 102.896 181.593 103.917 179.38C106.472 176.146 107.489 174.953 109.876 173.764C111.065 173.251 113.284 172.399 113.284 172.399C106.481 200.275 104.085 222.942 102.042 253.93C100.304 295.922 103.077 345.382 114.178 381.971L114.019 382.202C113.329 383.381 112.213 383.93 110.996 384.402C110.324 384.651 109.562 384.162 109.417 383.581C108.596 380.279 106.313 377.92 105.396 374.753C103.989 374.767 102.605 375.084 101.674 373.714C99.636 370.706 100.054 367.341 99.777 364.034C99.323 364.429 98.769 364.701 98.434 365.236C95.207 370.439 93.968 375.846 92.589 381.721V381.724ZM136.271 106.108L141.549 101.513L137.124 110.109L136.271 106.108V106.108ZM120.096 117.177L122.474 111.303L129.286 117.177H120.096V117.177ZM127.925 110.704L131.079 99.472L133.289 115.304L127.925 110.704Z" fill="#F5F3EE"/>
<path d="M149.074 421.648C151.461 426.071 152.31 435.094 150.776 438.332C148.225 434.072 144.817 429.137 141.754 427.772C143.288 432.88 143.456 439.394 143.456 445.137C143.456 452.626 140.048 459.435 138.178 463.282C137.325 461.917 136.508 461.136 135.487 459.435C132.047 454.495 129.832 453.474 125.748 448.711C120.638 444.451 116.208 436.799 116.04 430.838L115.187 431.006C115.532 434.413 113.998 436.078 114.506 440.505C110.254 437.815 103.201 426.996 101.395 416.372C100.714 413.138 99.353 406.669 98.672 400.2C97.819 393.563 95.776 389.649 95.268 385.734C95.055 385.094 95.486 382.876 93.394 385.566C92.2 387.099 91.007 386.755 91.774 384.459C92.146 383.348 92.31 382.912 92.591 381.724C93.971 375.85 95.21 370.442 98.436 365.239C98.772 364.704 99.326 364.432 99.779 364.037C100.056 367.344 99.638 370.71 101.676 373.717C102.606 375.087 103.991 374.769 105.398 374.756C106.315 377.922 108.598 380.281 109.419 383.584C109.564 384.165 110.327 384.655 110.998 384.405C112.214 383.933 113.331 383.384 114.021 382.205L114.18 381.974C115.487 386.288 116.944 390.362 118.487 394.299C118.605 394.644 118.728 394.984 118.846 395.306L119.186 396.245C119.377 396.744 119.558 397.198 119.74 397.642L120.017 398.327C120.285 398.948 120.534 399.506 120.775 399.965C120.725 399.516 120.607 398.904 120.453 398.223L120.394 397.937C120.24 397.257 120.045 396.485 119.818 395.646L119.705 395.211C119.469 394.345 119.215 393.433 118.943 392.48L118.834 392.113C118.544 391.106 118.239 390.081 117.931 389.042C118.294 389.505 118.725 390.004 119.342 389.691C120.032 389.346 120.191 388.512 120.295 387.849C120.717 385.068 120.989 382.346 122.287 379.969C122.391 379.774 122.918 379.248 123.177 378.93C124.116 377.773 124.434 376.322 124.702 374.77C124.766 374.389 125.088 374.044 125.374 373.786C126.214 373.033 127.135 374.135 127.625 374.82C128.478 376.004 128.061 377.578 128.823 378.785C130.82 381.947 133.007 384.578 135.517 387.213C136.152 387.88 137.223 388.66 138.426 388.338C138.771 388.247 139.107 387.912 139.207 387.662C139.688 386.396 138.658 385.294 138.095 384.201C137.296 382.631 135.876 380.735 136.788 379.143C137.033 378.712 138.281 379.996 138.821 379.406C139.352 378.825 139.479 377.728 139.234 376.816C138.953 375.741 138.44 374.775 137.981 373.786C136.334 370.234 134.423 366.918 133.234 363.157C133.075 362.644 132.862 362.068 132.984 361.479C133.601 362.813 135.04 363.711 135.748 364.963C135.93 365.281 136.297 365.557 136.497 365.829C137.332 366.977 138.93 367.462 139.483 368.696C140.268 370.438 140.341 374.003 142.823 373.536C143.626 373.386 144.893 372.651 144.362 371.368C143.958 370.375 143.699 369.304 142.978 368.51C142.324 367.798 141.349 367.358 140.913 366.537C140.16 365.117 139.597 363.425 140.309 361.819C140.468 363.189 141.525 363.965 142.406 364.831C143.409 365.829 146.205 364.255 146.645 365.811C147.171 367.666 148.056 370.08 149.332 372.883C149.078 373.654 151.465 377.564 150.271 382.504L147.716 387.439C147.716 387.439 150.099 389.648 151.124 391.522C150.947 392.207 151.632 397.991 151.124 402.073C148.396 401.393 147.203 401.56 145.501 397.65C142.778 408.709 146.695 416.203 149.077 421.647L149.074 421.648ZM42.612 336.393C42.784 337.922 42.762 336.983 43.506 338.257C44.182 339.418 43.806 340.952 44.314 342.267C44.768 341.695 45.603 341.432 45.68 340.561C46.324 343.21 44.4 345.732 45.34 348.391C46.375 347.452 47.922 347.248 48.744 346.009C48.662 347.061 48.381 348.073 48.231 349.098C47.968 350.876 48.68 352.654 48.885 354.505C49.148 356.846 52.048 358.606 51.222 360.897C49.879 364.626 49.157 368.6 50.373 372.129C50.627 372.864 50.999 374.102 51.857 374.501C52.52 374.809 53.495 374.819 54.14 374.496C54.48 374.328 54.775 373.757 54.857 373.239C55.107 371.597 54.376 370.073 54.671 368.499C55.048 366.458 55.402 364.412 56.7 362.779C56.959 362.452 57.953 362.557 58.184 363.074C59.037 364.979 58.697 367.284 59.822 369.039C60.208 369.638 61.56 370.064 62.273 369.397C63.861 367.918 63.281 365.596 63.485 363.681C63.821 360.487 62.323 358.773 61.906 355.525C61.516 352.477 62.078 352.023 63.05 350.776C64.067 353.629 64.076 356.728 66.141 359.263C66.577 359.794 67.389 359.812 67.729 359.522C69.231 358.238 68.918 355.439 67.833 353.629C66.176 350.866 64.833 346.489 67.815 343.967C67.633 345.351 67.652 346.943 68.364 347.982C69.349 349.411 71.182 352.36 71.45 355.177C71.541 356.198 72.989 356.592 73.869 355.794C74.032 355.644 73.837 354.982 74.296 354.923C75.73 354.728 76.402 356.42 76.329 357.586C76.901 357.586 77.654 357.777 77.936 357.486C79.311 356.075 78.971 352.714 79.062 350.777C79.23 347.202 80.079 348.559 80.673 348.223C80.673 348.223 80.932 349.924 80.591 354.86C81.099 360.989 80.419 368.986 78.712 370.859C77.187 369.33 77.01 367.965 74.968 367.452C69.522 370.01 69.862 393.327 70.198 396.902C70.116 397.75 68.841 396.902 68.841 396.902C65.773 393.835 64.412 390.093 63.563 388.052C63.563 388.052 62.369 386.687 62.369 388.052C60.835 392.983 61.343 406.433 62.029 409.667C62.71 413.577 62.197 415.791 60.327 419.538C59.982 420.559 59.301 420.731 59.301 419.37C59.133 417.837 58.107 417.156 57.599 415.623C57.599 415.623 56.405 413.409 56.065 415.623C55.048 421.407 51.813 428.388 50.619 430.597L49.766 431.11C50.111 425.666 48.409 417.156 47.215 410.855C44.487 394.515 41.764 379.196 41.764 356.9C41.764 346.857 42.309 336.051 42.309 336.051L42.613 336.391L42.612 336.393ZM63.933 334.774C63.388 332.392 64.242 331.884 64.26 330.052C64.274 328.854 63.543 327.725 63.525 326.609C63.52 326.205 64.228 325.307 64.632 325.702C65.163 326.237 65.948 326.446 66.311 326.773C67.105 327.476 66.901 328.923 68.036 329.826C69.311 330.833 68.621 332.634 68.336 334.067C68.259 334.475 67.918 335.219 67.446 335.36C66.493 335.65 65.435 335.46 64.41 335.46C64.828 334.961 64.047 335.265 63.933 334.775V334.774ZM51.643 319.119C51.525 317.155 50.876 314.37 53.821 315.15C54.747 315.399 54.956 316.774 54.974 317.423C55.024 319.21 55.432 320.648 56.19 322.204C56.617 323.089 55.886 323.842 55.441 324.49C54.297 326.164 51.96 327.121 50.617 325.452C49.805 324.44 48.815 322.939 49.55 321.564C50.131 320.471 50.58 319.881 51.465 318.947L51.642 319.119H51.643ZM54.593 339.396C53.041 337.169 53.767 335.114 55.582 333.789C56.717 332.954 58.105 333.508 58.423 334.501C59.067 336.533 59.862 338.239 60.493 340.276C61.133 342.354 58.514 344.377 56.667 343.451C55.346 342.784 55.437 340.611 54.593 339.396V339.396ZM56.181 347.471L55.555 347.711C55.895 347.711 56.422 347.625 56.481 347.756C57.289 349.53 56.517 352.814 58.709 354.098C60.393 355.082 58.75 359.188 56.558 359.374C55.156 359.496 53.513 357.895 53.177 356.797C52.687 355.187 52.319 352.819 53.563 351.14C54.23 350.237 54.239 348.849 54.997 348.191C55.365 347.878 55.437 347.229 56.182 347.47L56.181 347.471ZM70.232 343.261C69.656 342.508 69.642 341.501 70.286 341.02C70.885 340.58 71.911 340.789 72.523 341.315C72.695 341.46 73.322 341.864 73.494 342C75.332 343.452 76.444 345.407 75.464 347.63C75.183 348.265 74.107 348.855 73.345 348.288C72.75 347.839 71.929 347.816 71.516 347.054C70.862 345.834 71.13 344.441 70.232 343.262V343.261ZM50.109 329.502C50.109 329.389 50.617 330.182 50.54 330.7C50.658 329.893 52.41 335.753 49.968 337.282C48.897 337.958 46.7 337.672 46.36 336.139C46.532 333.417 47.136 331.607 48.343 329.743C48.851 328.949 49.768 328.414 50.108 329.503L50.109 329.502ZM97.467 346.345C98.52 347.134 99.568 347.933 99.881 349.334C100.103 350.327 99.482 351.298 98.542 351.484C95.882 352.015 95.914 348.712 96.091 346.957C96.15 346.345 96.958 345.968 97.466 346.345H97.467ZM103.825 352.569C104.833 353.603 105.491 354.883 105.813 356.321C106.176 357.931 105.427 359.456 104.624 360.572C104.284 361.044 102.99 360.291 102.368 359.647C101.397 358.635 100.952 357.229 100.575 355.927C100.23 354.72 100.589 353.133 101.569 352.375C102.032 352.017 103.189 351.926 103.825 352.57V352.569ZM128.178 350.519H127.497C128.659 350.492 129.648 351.186 130.279 351.971C131.264 353.214 129.594 355.45 128.259 354.784C126.993 354.144 125.963 352.412 126.916 350.924C127.098 350.629 127.701 350.557 128.178 350.52V350.519ZM116.487 366.178C116.001 365.929 115.23 364.35 115.611 363.297C115.956 362.349 117.032 361.972 117.957 362.136C118.992 362.322 119.677 363.075 120.281 363.851C121.833 365.847 122.269 368.982 120.258 370.669C119.432 371.359 117.952 371.195 117.362 370.215C116.631 368.99 117.167 367.997 116.6 366.69L116.487 366.177V366.178ZM130.638 367.276C131.596 368.034 132.662 369.245 132.018 370.388C131.809 370.751 131.251 371.336 130.974 371.168C128.845 369.875 126.132 369.807 125.001 367.512C124.742 366.995 124.361 366.46 124.475 365.847C124.684 364.776 124.679 363.719 125.51 363.012C126.304 362.336 127.443 362.477 128.297 363.03C129.826 364.014 129.25 366.187 130.639 367.276H130.638ZM108.109 365.139C109.679 367.035 108.726 369.571 109.371 371.816C109.725 373.027 109.071 374.288 108.037 374.751C106.576 375.404 105.446 373.871 104.964 372.605C104.156 370.496 104.891 368.218 104.905 366.009C104.91 365.664 105.155 365.233 105.409 365.056C106.153 364.557 107.383 364.262 108.109 365.138V365.139ZM117.19 338.47C116.813 337.409 115.788 336.633 116.337 335.585C116.491 335.295 117.063 335.367 117.467 335.258C118.688 334.927 120.113 335.122 120.912 335.988C121.538 336.659 121.965 337.467 122.491 338.311C123.036 339.187 123.154 340.216 123.517 341.182C123.903 342.234 123.472 343.414 122.646 343.908C121.688 344.484 121.284 344.988 119.868 344.366C119.337 344.13 119.006 342.982 118.765 342.547C118.429 341.957 118.461 340.288 118.025 339.748C117.635 339.267 117.417 339.108 117.19 338.469V338.47ZM116.269 344.208C117.404 345.319 118.298 346.576 118.652 348.005C119.11 349.847 118.861 352.623 116.887 353.222C115.68 353.585 114.109 354.215 113.125 353.299C111.891 352.151 110.393 350.559 111.133 348.885C111.85 347.247 114.246 346.286 114.106 344.217C114.083 343.845 114.682 343.791 114.891 343.804C115.318 343.827 115.871 343.822 116.271 344.208H116.269Z" fill="#403737"/>
</svg>
