<svg width="500" height="500" viewBox="0 0 500 500" fill="none" xmlns="http://www.w3.org/2000/svg">
<path d="M217.375 264.305H255.217L235.171 204.589L217.375 264.305Z" fill="#F5F3EE"/>
<path d="M431.992 317.729L375.759 191.731L405.696 184.214V95.569H95.311V184.162L124.85 191.667L67.859 317.796L35 325.815V404.14H466V325.704L431.992 317.729Z" fill="#F5F3EE"/>
<path d="M378.261 372.971L358.825 358.237L339.441 372.264L346.96 350.043L328.658 335.361H351.41L358.825 314.156L366.243 335.361H389.89L371.081 350.267L378.261 372.97V372.971ZM298.938 274.602H321.656L329.117 253.382L336.489 274.602H360.164L341.334 289.519L348.54 312.211L329.117 297.492L309.681 311.528L317.236 289.283L298.938 274.601V274.602ZM269.962 212.202H292.719L300.143 190.989L307.539 212.202H331.199L312.36 227.129L319.54 249.817L300.143 235.088L280.72 249.072L288.247 226.87L269.962 212.201V212.202ZM249.134 187.51L256.664 165.33L238.446 150.655H261.145L268.588 129.414L275.971 150.655H299.654L280.796 165.55L287.994 188.264L268.588 173.53L249.135 187.51H249.134ZM217.376 264.306L235.172 204.59L255.218 264.306H217.376ZM354.576 181.443L390.541 172.408V110.707H110.469V172.391L146.1 181.443L78.636 330.751L50.158 337.7V389.001H221.685V337.7L197.379 330.785L205.161 308.921H265.682L272.923 330.828L250.502 337.7V389.001H450.85V337.7L421.214 330.751L354.577 181.443H354.576Z" fill="#403737"/>
<path d="M280.795 165.549L287.993 188.263L268.587 173.529L249.134 187.509L256.664 165.329L238.446 150.654H261.145L268.588 129.413L275.971 150.654H299.654L280.796 165.549H280.795ZM300.143 235.088L280.72 249.072L288.247 226.87L269.962 212.201H292.719L300.143 190.988L307.539 212.201H331.199L312.36 227.128L319.54 249.816L300.143 235.087V235.088ZM329.117 297.493L309.681 311.529L317.236 289.284L298.938 274.602H321.656L329.117 253.382L336.489 274.602H360.164L341.334 289.519L348.54 312.211L329.117 297.492V297.493ZM366.243 335.363H389.89L371.081 350.269L378.261 372.972L358.825 358.238L339.441 372.265L346.96 350.044L328.658 335.362H351.41L358.825 314.157L366.243 335.362V335.363Z" fill="#F5F3EE"/>
</svg>
