<svg width="500" height="500" viewBox="0 0 500 500" fill="none" xmlns="http://www.w3.org/2000/svg">
<path d="M276.127 95.338V163.901L210.427 95.338H45V178.349L74.028 184.455V319.067L46.121 325.995V404.549H235.824V336.64L302.99 404.59H430.008V184.051L455 178.148V95.338H276.127Z" fill="#F5F3EE"/>
<path d="M300.744 283.954L308.183 307.442L288.103 292.237L268.036 306.652L275.803 283.687L256.902 268.482H280.397L288.103 246.503L295.782 268.482H320.212L300.743 283.953L300.744 283.954ZM347.779 303.468L355.471 325.504H379.94L360.447 340.889L367.886 364.434L347.78 349.186L327.719 363.622L335.546 340.675L316.618 325.503H340.101L347.78 303.467L347.779 303.468ZM228.362 235.217L208.268 249.653L216.046 226.708L197.182 211.518H220.652L228.362 189.504L235.984 211.518H260.477L240.996 226.905L248.386 250.444L228.362 235.217V235.217ZM181.257 169.918L188.703 193.455L168.615 178.248L148.548 192.706L156.338 169.688L137.441 154.524H160.918L168.616 132.553L176.271 154.524H200.779L181.259 169.917L181.257 169.918ZM291.299 166.109L311.547 172.247V222.796L203.953 110.511H60.172V166.032L89.2 172.136V330.933L61.293 337.863V389.374H220.652V337.986L196.808 330.99V275.698L309.324 389.395H414.835V172.038L439.827 166.137V110.509H291.298V166.106L291.299 166.109Z" fill="#403737"/>
<path d="M176.27 154.525H200.778L181.258 169.918L188.704 193.455L168.616 178.248L148.549 192.706L156.339 169.688L137.442 154.524H160.919L168.617 132.553L176.272 154.524L176.27 154.525ZM260.478 211.518L240.997 226.905L248.387 250.444L228.363 235.217L208.269 249.653L216.047 226.708L197.183 211.518H220.653L228.363 189.504L235.985 211.518H260.478V211.518ZM288.104 246.504L295.783 268.483H320.213L300.744 283.954L308.183 307.442L288.103 292.237L268.036 306.652L275.803 283.687L256.902 268.482H280.397L288.103 246.503L288.104 246.504ZM335.545 340.677L316.617 325.505H340.1L347.779 303.469L355.471 325.505H379.94L360.447 340.89L367.886 364.435L347.78 349.187L327.719 363.623L335.546 340.676L335.545 340.677Z" fill="#F5F3EE"/>
</svg>
