<svg width="200" height="200" viewBox="0 0 200 200" fill="none" xmlns="http://www.w3.org/2000/svg">
<path d="M167.963 22.75C161.704 27.24 149.733 33.36 134.331 29.565C107.64 22.99 100 0 100 0C100 0 92.361 22.994 65.669 29.565C50.26 33.36 38.291 27.238 32.038 22.75H27.219V146.724C27.221 149.861 27.985 156.033 33.071 162.212C39.352 169.842 50.006 174.79 64.729 176.917C76.458 178.614 85.129 182.301 91.245 188.186C95.737 192.511 100 200 100 200C100 200 104.426 192.354 108.756 188.187C114.871 182.302 123.547 178.616 135.272 176.918C149.995 174.791 160.649 169.843 166.931 162.213C172.013 156.038 172.778 149.859 172.782 146.725V22.75H167.963Z" fill="#F5F3EE"/>
<path d="M168.414 27.584C168.414 27.584 153.824 38.939 133.271 33.804C109.309 27.815 100 9.86804 100 9.86804C100 9.86804 90.692 27.815 66.729 33.804C46.177 38.94 31.587 27.584 31.587 27.584V146.718C31.59 150.767 33.282 167.961 65.355 172.596C78.018 174.429 87.477 178.499 94.273 185.039C96.721 187.387 98.581 189.778 100.001 191.972C101.425 189.779 103.277 187.387 105.722 185.039C112.526 178.499 121.985 174.429 134.648 172.596C166.718 167.961 168.41 150.767 168.416 146.718V27.584H168.414Z" fill="#403737"/>
<path d="M100 179.844C100 179.844 109.308 168.371 133.495 164.64C161.2 160.365 160.377 147.356 160.379 146.697V84.304H39.622V146.696C39.622 147.352 38.804 160.363 66.505 164.639C90.691 168.372 100 179.844 100 179.844Z" fill="#F5F3EE"/>
<path d="M71.852 129.904L71.848 100.231L68.122 98.144V90.45H85.08V98.144L81.534 100.231V160.758L72.47 158.041L59.366 119.378L59.364 144.867L63.525 148.063V155.918L45.332 151.294V144.598L49.495 142.97V100.256L45.23 98.144V90.45H58.998L71.852 129.904Z" fill="#403737"/>
<path d="M103.066 157.041L106.698 161.392V169.085L88.677 162.352V155.821L92.655 154.192V100.232L88.701 98.232V90.45H119.992V106.109H113.114L111.03 99.68H103.066V117.786H109.043L111.395 114.348H116.191V130.46H111.395L109.131 127.202H103.067V157.041H103.066Z" fill="#403737"/>
<path d="M122.96 159.765V152.071L127.436 148.397V100.231L123.614 98.231V90.45H141.658V98.232L138.112 100.232V145.42L145.866 143.325L147.353 131.482H154.771V151.267L122.96 159.765Z" fill="#403737"/>
<path d="M42.761 71.54L37.3 67.431H43.974L46.178 61.108L48.382 67.431H55.056L49.595 71.541L51.604 77.959L46.178 74.147L40.752 77.959L42.761 71.54Z" fill="#F5F3EE"/>
<path d="M66.456 71.54L60.995 67.431H67.669L69.872 61.108L72.076 67.431H78.751L73.29 71.541L75.299 77.959L69.872 74.147L64.446 77.959L66.456 71.54Z" fill="#F5F3EE"/>
<path d="M42.761 50.156L37.3 46.047H43.974L46.178 39.723L48.382 46.047H55.056L49.595 50.156L51.604 56.574L46.178 52.761L40.752 56.574L42.761 50.156Z" fill="#F5F3EE"/>
<path d="M66.456 50.156L60.995 46.047H67.669L69.872 39.723L72.076 46.047H78.751L73.29 50.156L75.299 56.574L69.872 52.761L64.446 56.574L66.456 50.156Z" fill="#F5F3EE"/>
<path d="M159.25 77.959L153.823 74.146L148.397 77.959L150.405 71.54L144.945 67.43H151.619L153.823 61.107L156.026 67.43H162.7L157.24 71.54L159.25 77.959Z" fill="#F5F3EE"/>
<path d="M135.555 77.959L130.128 74.146L124.701 77.959L126.711 71.54L121.249 67.43H127.924L130.128 61.107L132.332 67.43H139.006L133.544 71.54L135.555 77.959Z" fill="#F5F3EE"/>
<path d="M159.25 56.575L153.823 52.762L148.397 56.575L150.405 50.156L144.945 46.046H151.619L153.823 39.723L156.026 46.046H162.7L157.24 50.156L159.25 56.575Z" fill="#F5F3EE"/>
<path d="M135.555 56.575L130.128 52.762L124.701 56.575L126.711 50.156L121.249 46.046H127.924L130.128 39.723L132.332 46.046H139.006L133.544 50.156L135.555 56.575Z" fill="#F5F3EE"/>
<path d="M115.044 33.001C115.044 33.001 112.215 34.475 108.268 38.357C109.159 38.86 110.161 39.565 110.735 40.041C110.139 40.57 109.529 41.14 108.963 41.677C106.395 39.56 103.72 38.485 101.648 37.979C102.336 37.486 103.066 37.001 103.788 36.531C104.902 36.815 105.978 37.253 105.978 37.253C110.437 33.859 114.293 32.395 114.293 32.395C114.293 32.395 113.847 32.176 112.654 32.191C95.126 32.418 78.976 45.505 82.025 67.897C82.351 70.272 83.274 74.591 84.447 76.485C84.838 72.758 86.237 64.512 90.393 55.677C88.949 55.159 87.75 54.946 87.75 54.946C88.174 54.056 88.764 52.921 88.764 52.921C91.839 53.501 94.556 54.787 96.909 56.651C96.344 57.563 95.962 58.159 95.693 58.628C94.868 57.979 94.035 57.418 93.116 56.909C88.446 65.074 86.278 72.78 85.399 76.825C85.447 77.074 85.956 77.203 86.365 77.15C105.572 74.664 114.564 64.867 117.3 54.25C119.1 47.285 118.511 40.002 116.101 34.063C115.932 33.645 115.603 32.952 115.044 33.001ZM98.529 54.153C96.031 52.071 93.117 50.795 90.258 50.25C90.258 50.25 91.135 48.819 91.634 48.076C95.131 48.768 97.97 50.403 99.955 52.083C99.445 52.812 98.961 53.51 98.529 54.153ZM101.683 49.725C99.367 47.78 96.549 46.329 93.356 45.691C93.844 45.061 94.417 44.39 94.964 43.77C97.401 44.203 100.526 45.487 103.25 47.735C102.692 48.401 102.173 49.08 101.683 49.725ZM105.194 45.5C102.763 43.499 100.038 42.203 97.142 41.586C97.843 40.923 98.561 40.355 99.192 39.829C102.81 40.699 105.246 42.32 106.905 43.698C106.312 44.305 105.738 44.897 105.194 45.5Z" fill="#F5F3EE"/>
</svg>
